<?xml version="1.0" encoding="utf-8"?>
<svg xmlns="http://www.w3.org/2000/svg" xmlns:xlink="http://www.w3.org/1999/xlink" width="576" height="384" viewBox="0 0 2304 1536">
<defs>
  <clipPath id="clip3100">
    <rect x="0" y="0" width="2304" height="1536"/>
  </clipPath>
</defs>
<polygon clip-path="url(#clip3100)" points="
0,1536 2304,1536 2304,0 0,0 
  " fill="#ffffff" fill-rule="evenodd" fill-opacity="1"/>
<defs>
  <clipPath id="clip3101">
    <rect x="460" y="0" width="1614" height="1536"/>
  </clipPath>
</defs>
<polygon clip-path="url(#clip3100)" points="
214.794,1362.26 2256.76,1362.26 2256.76,47.2441 214.794,47.2441 
  " fill="#ffffff" fill-rule="evenodd" fill-opacity="1"/>
<defs>
  <clipPath id="clip3102">
    <rect x="214" y="47" width="2043" height="1316"/>
  </clipPath>
</defs>
<polyline clip-path="url(#clip3102)" style="stroke:#000000; stroke-width:2; stroke-opacity:0.1; fill:none" points="
  328.423,1362.26 328.423,47.2441 
  "/>
<polyline clip-path="url(#clip3102)" style="stroke:#000000; stroke-width:2; stroke-opacity:0.1; fill:none" points="
  607.608,1362.26 607.608,47.2441 
  "/>
<polyline clip-path="url(#clip3102)" style="stroke:#000000; stroke-width:2; stroke-opacity:0.1; fill:none" points="
  886.793,1362.26 886.793,47.2441 
  "/>
<polyline clip-path="url(#clip3102)" style="stroke:#000000; stroke-width:2; stroke-opacity:0.1; fill:none" points="
  1165.98,1362.26 1165.98,47.2441 
  "/>
<polyline clip-path="url(#clip3102)" style="stroke:#000000; stroke-width:2; stroke-opacity:0.1; fill:none" points="
  1445.16,1362.26 1445.16,47.2441 
  "/>
<polyline clip-path="url(#clip3102)" style="stroke:#000000; stroke-width:2; stroke-opacity:0.1; fill:none" points="
  1724.35,1362.26 1724.35,47.2441 
  "/>
<polyline clip-path="url(#clip3102)" style="stroke:#000000; stroke-width:2; stroke-opacity:0.1; fill:none" points="
  2003.53,1362.26 2003.53,47.2441 
  "/>
<polyline clip-path="url(#clip3102)" style="stroke:#000000; stroke-width:2; stroke-opacity:0.1; fill:none" points="
  214.794,1245.4 2256.76,1245.4 
  "/>
<polyline clip-path="url(#clip3102)" style="stroke:#000000; stroke-width:2; stroke-opacity:0.1; fill:none" points="
  214.794,1038.96 2256.76,1038.96 
  "/>
<polyline clip-path="url(#clip3102)" style="stroke:#000000; stroke-width:2; stroke-opacity:0.1; fill:none" points="
  214.794,832.52 2256.76,832.52 
  "/>
<polyline clip-path="url(#clip3102)" style="stroke:#000000; stroke-width:2; stroke-opacity:0.1; fill:none" points="
  214.794,626.08 2256.76,626.08 
  "/>
<polyline clip-path="url(#clip3102)" style="stroke:#000000; stroke-width:2; stroke-opacity:0.1; fill:none" points="
  214.794,419.64 2256.76,419.64 
  "/>
<polyline clip-path="url(#clip3102)" style="stroke:#000000; stroke-width:2; stroke-opacity:0.1; fill:none" points="
  214.794,213.201 2256.76,213.201 
  "/>
<polyline clip-path="url(#clip3100)" style="stroke:#000000; stroke-width:4; stroke-opacity:1; fill:none" points="
  214.794,1362.26 2256.76,1362.26 
  "/>
<polyline clip-path="url(#clip3100)" style="stroke:#000000; stroke-width:4; stroke-opacity:1; fill:none" points="
  214.794,1362.26 214.794,47.2441 
  "/>
<polyline clip-path="url(#clip3100)" style="stroke:#000000; stroke-width:4; stroke-opacity:1; fill:none" points="
  328.423,1362.26 328.423,1342.53 
  "/>
<polyline clip-path="url(#clip3100)" style="stroke:#000000; stroke-width:4; stroke-opacity:1; fill:none" points="
  607.608,1362.26 607.608,1342.53 
  "/>
<polyline clip-path="url(#clip3100)" style="stroke:#000000; stroke-width:4; stroke-opacity:1; fill:none" points="
  886.793,1362.26 886.793,1342.53 
  "/>
<polyline clip-path="url(#clip3100)" style="stroke:#000000; stroke-width:4; stroke-opacity:1; fill:none" points="
  1165.98,1362.26 1165.98,1342.53 
  "/>
<polyline clip-path="url(#clip3100)" style="stroke:#000000; stroke-width:4; stroke-opacity:1; fill:none" points="
  1445.16,1362.26 1445.16,1342.53 
  "/>
<polyline clip-path="url(#clip3100)" style="stroke:#000000; stroke-width:4; stroke-opacity:1; fill:none" points="
  1724.35,1362.26 1724.35,1342.53 
  "/>
<polyline clip-path="url(#clip3100)" style="stroke:#000000; stroke-width:4; stroke-opacity:1; fill:none" points="
  2003.53,1362.26 2003.53,1342.53 
  "/>
<polyline clip-path="url(#clip3100)" style="stroke:#000000; stroke-width:4; stroke-opacity:1; fill:none" points="
  214.794,1245.4 245.424,1245.4 
  "/>
<polyline clip-path="url(#clip3100)" style="stroke:#000000; stroke-width:4; stroke-opacity:1; fill:none" points="
  214.794,1038.96 245.424,1038.96 
  "/>
<polyline clip-path="url(#clip3100)" style="stroke:#000000; stroke-width:4; stroke-opacity:1; fill:none" points="
  214.794,832.52 245.424,832.52 
  "/>
<polyline clip-path="url(#clip3100)" style="stroke:#000000; stroke-width:4; stroke-opacity:1; fill:none" points="
  214.794,626.08 245.424,626.08 
  "/>
<polyline clip-path="url(#clip3100)" style="stroke:#000000; stroke-width:4; stroke-opacity:1; fill:none" points="
  214.794,419.64 245.424,419.64 
  "/>
<polyline clip-path="url(#clip3100)" style="stroke:#000000; stroke-width:4; stroke-opacity:1; fill:none" points="
  214.794,213.201 245.424,213.201 
  "/>
<g clip-path="url(#clip3100)">
<text style="fill:#000000; fill-opacity:1; font-family:Arial,Helvetica Neue,Helvetica,sans-serif; font-size:48px; text-anchor:middle;" transform="rotate(0, 328.423, 1415.78)" x="328.423" y="1415.78">0</text>
</g>
<g clip-path="url(#clip3100)">
<text style="fill:#000000; fill-opacity:1; font-family:Arial,Helvetica Neue,Helvetica,sans-serif; font-size:48px; text-anchor:middle;" transform="rotate(0, 607.608, 1415.78)" x="607.608" y="1415.78">2</text>
</g>
<g clip-path="url(#clip3100)">
<text style="fill:#000000; fill-opacity:1; font-family:Arial,Helvetica Neue,Helvetica,sans-serif; font-size:48px; text-anchor:middle;" transform="rotate(0, 886.793, 1415.78)" x="886.793" y="1415.78">4</text>
</g>
<g clip-path="url(#clip3100)">
<text style="fill:#000000; fill-opacity:1; font-family:Arial,Helvetica Neue,Helvetica,sans-serif; font-size:48px; text-anchor:middle;" transform="rotate(0, 1165.98, 1415.78)" x="1165.98" y="1415.78">6</text>
</g>
<g clip-path="url(#clip3100)">
<text style="fill:#000000; fill-opacity:1; font-family:Arial,Helvetica Neue,Helvetica,sans-serif; font-size:48px; text-anchor:middle;" transform="rotate(0, 1445.16, 1415.78)" x="1445.16" y="1415.78">8</text>
</g>
<g clip-path="url(#clip3100)">
<text style="fill:#000000; fill-opacity:1; font-family:Arial,Helvetica Neue,Helvetica,sans-serif; font-size:48px; text-anchor:middle;" transform="rotate(0, 1724.35, 1415.78)" x="1724.35" y="1415.78">10</text>
</g>
<g clip-path="url(#clip3100)">
<text style="fill:#000000; fill-opacity:1; font-family:Arial,Helvetica Neue,Helvetica,sans-serif; font-size:48px; text-anchor:middle;" transform="rotate(0, 2003.53, 1415.78)" x="2003.53" y="1415.78">12</text>
</g>
<g clip-path="url(#clip3100)">
<text style="fill:#000000; fill-opacity:1; font-family:Arial,Helvetica Neue,Helvetica,sans-serif; font-size:48px; text-anchor:end;" transform="rotate(0, 191.754, 1262.9)" x="191.754" y="1262.9">0.4</text>
</g>
<g clip-path="url(#clip3100)">
<text style="fill:#000000; fill-opacity:1; font-family:Arial,Helvetica Neue,Helvetica,sans-serif; font-size:48px; text-anchor:end;" transform="rotate(0, 191.754, 1056.46)" x="191.754" y="1056.46">0.5</text>
</g>
<g clip-path="url(#clip3100)">
<text style="fill:#000000; fill-opacity:1; font-family:Arial,Helvetica Neue,Helvetica,sans-serif; font-size:48px; text-anchor:end;" transform="rotate(0, 191.754, 850.02)" x="191.754" y="850.02">0.6</text>
</g>
<g clip-path="url(#clip3100)">
<text style="fill:#000000; fill-opacity:1; font-family:Arial,Helvetica Neue,Helvetica,sans-serif; font-size:48px; text-anchor:end;" transform="rotate(0, 191.754, 643.58)" x="191.754" y="643.58">0.7</text>
</g>
<g clip-path="url(#clip3100)">
<text style="fill:#000000; fill-opacity:1; font-family:Arial,Helvetica Neue,Helvetica,sans-serif; font-size:48px; text-anchor:end;" transform="rotate(0, 191.754, 437.14)" x="191.754" y="437.14">0.8</text>
</g>
<g clip-path="url(#clip3100)">
<text style="fill:#000000; fill-opacity:1; font-family:Arial,Helvetica Neue,Helvetica,sans-serif; font-size:48px; text-anchor:end;" transform="rotate(0, 191.754, 230.701)" x="191.754" y="230.701">0.9</text>
</g>
<g clip-path="url(#clip3100)">
<text style="fill:#000000; fill-opacity:1; font-family:Arial,Helvetica Neue,Helvetica,sans-serif; font-size:66px; text-anchor:middle;" transform="rotate(0, 1235.77, 1495.16)" x="1235.77" y="1495.16">Age in Years</text>
</g>
<g clip-path="url(#clip3100)">
<text style="fill:#000000; fill-opacity:1; font-family:Arial,Helvetica Neue,Helvetica,sans-serif; font-size:66px; text-anchor:middle;" transform="rotate(-90, 90.2461, 704.751)" x="90.2461" y="704.751">Alpha diversity (GiniSimpson)</text>
</g>
<circle clip-path="url(#clip3102)" style="fill:#000000; stroke:none; fill-opacity:1" cx="328.423" cy="1325.04" r="18"/>
<circle clip-path="url(#clip3102)" style="fill:#d3d3d3; stroke:none; fill-opacity:1" cx="328.423" cy="1325.04" r="14"/>
<circle clip-path="url(#clip3102)" style="fill:#000000; stroke:none; fill-opacity:1" cx="328.423" cy="1146.84" r="18"/>
<circle clip-path="url(#clip3102)" style="fill:#d3d3d3; stroke:none; fill-opacity:1" cx="328.423" cy="1146.84" r="14"/>
<circle clip-path="url(#clip3102)" style="fill:#000000; stroke:none; fill-opacity:1" cx="328.423" cy="1129.97" r="18"/>
<circle clip-path="url(#clip3102)" style="fill:#d3d3d3; stroke:none; fill-opacity:1" cx="328.423" cy="1129.97" r="14"/>
<circle clip-path="url(#clip3102)" style="fill:#000000; stroke:none; fill-opacity:1" cx="468.015" cy="909.283" r="18"/>
<circle clip-path="url(#clip3102)" style="fill:#d3d3d3; stroke:none; fill-opacity:1" cx="468.015" cy="909.283" r="14"/>
<circle clip-path="url(#clip3102)" style="fill:#000000; stroke:none; fill-opacity:1" cx="607.608" cy="753.673" r="18"/>
<circle clip-path="url(#clip3102)" style="fill:#d3d3d3; stroke:none; fill-opacity:1" cx="607.608" cy="753.673" r="14"/>
<circle clip-path="url(#clip3102)" style="fill:#000000; stroke:none; fill-opacity:1" cx="607.608" cy="581.448" r="18"/>
<circle clip-path="url(#clip3102)" style="fill:#d3d3d3; stroke:none; fill-opacity:1" cx="607.608" cy="581.448" r="14"/>
<circle clip-path="url(#clip3102)" style="fill:#000000; stroke:none; fill-opacity:1" cx="607.608" cy="813.291" r="18"/>
<circle clip-path="url(#clip3102)" style="fill:#d3d3d3; stroke:none; fill-opacity:1" cx="607.608" cy="813.291" r="14"/>
<circle clip-path="url(#clip3102)" style="fill:#000000; stroke:none; fill-opacity:1" cx="607.608" cy="665.604" r="18"/>
<circle clip-path="url(#clip3102)" style="fill:#d3d3d3; stroke:none; fill-opacity:1" cx="607.608" cy="665.604" r="14"/>
<circle clip-path="url(#clip3102)" style="fill:#000000; stroke:none; fill-opacity:1" cx="747.201" cy="867.473" r="18"/>
<circle clip-path="url(#clip3102)" style="fill:#d3d3d3; stroke:none; fill-opacity:1" cx="747.201" cy="867.473" r="14"/>
<circle clip-path="url(#clip3102)" style="fill:#000000; stroke:none; fill-opacity:1" cx="886.793" cy="502.133" r="18"/>
<circle clip-path="url(#clip3102)" style="fill:#d3d3d3; stroke:none; fill-opacity:1" cx="886.793" cy="502.133" r="14"/>
<circle clip-path="url(#clip3102)" style="fill:#000000; stroke:none; fill-opacity:1" cx="886.793" cy="492.729" r="18"/>
<circle clip-path="url(#clip3102)" style="fill:#d3d3d3; stroke:none; fill-opacity:1" cx="886.793" cy="492.729" r="14"/>
<circle clip-path="url(#clip3102)" style="fill:#000000; stroke:none; fill-opacity:1" cx="886.793" cy="1182.49" r="18"/>
<circle clip-path="url(#clip3102)" style="fill:#d3d3d3; stroke:none; fill-opacity:1" cx="886.793" cy="1182.49" r="14"/>
<circle clip-path="url(#clip3102)" style="fill:#000000; stroke:none; fill-opacity:1" cx="886.793" cy="871.282" r="18"/>
<circle clip-path="url(#clip3102)" style="fill:#d3d3d3; stroke:none; fill-opacity:1" cx="886.793" cy="871.282" r="14"/>
<circle clip-path="url(#clip3102)" style="fill:#000000; stroke:none; fill-opacity:1" cx="1026.39" cy="404.208" r="18"/>
<circle clip-path="url(#clip3102)" style="fill:#d3d3d3; stroke:none; fill-opacity:1" cx="1026.39" cy="404.208" r="14"/>
<circle clip-path="url(#clip3102)" style="fill:#000000; stroke:none; fill-opacity:1" cx="1165.98" cy="417.512" r="18"/>
<circle clip-path="url(#clip3102)" style="fill:#d3d3d3; stroke:none; fill-opacity:1" cx="1165.98" cy="417.512" r="14"/>
<circle clip-path="url(#clip3102)" style="fill:#000000; stroke:none; fill-opacity:1" cx="1165.98" cy="613.125" r="18"/>
<circle clip-path="url(#clip3102)" style="fill:#d3d3d3; stroke:none; fill-opacity:1" cx="1165.98" cy="613.125" r="14"/>
<circle clip-path="url(#clip3102)" style="fill:#000000; stroke:none; fill-opacity:1" cx="1165.98" cy="412.832" r="18"/>
<circle clip-path="url(#clip3102)" style="fill:#d3d3d3; stroke:none; fill-opacity:1" cx="1165.98" cy="412.832" r="14"/>
<circle clip-path="url(#clip3102)" style="fill:#000000; stroke:none; fill-opacity:1" cx="1445.16" cy="333.679" r="18"/>
<circle clip-path="url(#clip3102)" style="fill:#d3d3d3; stroke:none; fill-opacity:1" cx="1445.16" cy="333.679" r="14"/>
<circle clip-path="url(#clip3102)" style="fill:#000000; stroke:none; fill-opacity:1" cx="1724.35" cy="369.643" r="18"/>
<circle clip-path="url(#clip3102)" style="fill:#d3d3d3; stroke:none; fill-opacity:1" cx="1724.35" cy="369.643" r="14"/>
<circle clip-path="url(#clip3102)" style="fill:#000000; stroke:none; fill-opacity:1" cx="1863.94" cy="381.118" r="18"/>
<circle clip-path="url(#clip3102)" style="fill:#d3d3d3; stroke:none; fill-opacity:1" cx="1863.94" cy="381.118" r="14"/>
<polygon clip-path="url(#clip3102)" points="
328.423,905.794 272.585,905.794 384.26,905.794 328.423,905.794 328.423,582.277 328.423,905.794 
  " fill="#d3d3d3" fill-rule="evenodd" fill-opacity="1"/>
<polyline clip-path="url(#clip3102)" style="stroke:#000000; stroke-width:4; stroke-opacity:1; fill:none" points="
  328.423,905.794 272.585,905.794 384.26,905.794 328.423,905.794 328.423,582.277 328.423,905.794 
  "/>
<polygon clip-path="url(#clip3102)" points="
272.585,582.277 272.585,394.837 384.26,394.837 384.26,582.277 272.585,582.277 272.585,582.277 
  " fill="#d3d3d3" fill-rule="evenodd" fill-opacity="1"/>
<polyline clip-path="url(#clip3102)" style="stroke:#000000; stroke-width:4; stroke-opacity:1; fill:none" points="
  272.585,582.277 272.585,394.837 384.26,394.837 384.26,582.277 272.585,582.277 
  "/>
<polygon clip-path="url(#clip3102)" points="
272.585,331.712 272.585,394.837 384.26,394.837 384.26,331.712 272.585,331.712 272.585,331.712 
  " fill="#d3d3d3" fill-rule="evenodd" fill-opacity="1"/>
<polyline clip-path="url(#clip3102)" style="stroke:#000000; stroke-width:4; stroke-opacity:1; fill:none" points="
  272.585,331.712 272.585,394.837 384.26,394.837 384.26,331.712 272.585,331.712 
  "/>
<polygon clip-path="url(#clip3102)" points="
328.423,133.315 272.585,133.315 384.26,133.315 328.423,133.315 328.423,331.712 328.423,133.315 
  " fill="#d3d3d3" fill-rule="evenodd" fill-opacity="1"/>
<polyline clip-path="url(#clip3102)" style="stroke:#000000; stroke-width:4; stroke-opacity:1; fill:none" points="
  328.423,133.315 272.585,133.315 384.26,133.315 328.423,133.315 328.423,331.712 328.423,133.315 
  "/>
<polygon clip-path="url(#clip3102)" points="
468.015,444.479 412.178,444.479 523.852,444.479 468.015,444.479 468.015,305.081 468.015,444.479 
  " fill="#d3d3d3" fill-rule="evenodd" fill-opacity="1"/>
<polyline clip-path="url(#clip3102)" style="stroke:#000000; stroke-width:4; stroke-opacity:1; fill:none" points="
  468.015,444.479 412.178,444.479 523.852,444.479 468.015,444.479 468.015,305.081 468.015,444.479 
  "/>
<polygon clip-path="url(#clip3102)" points="
412.178,305.081 412.178,203.04 523.852,203.04 523.852,305.081 412.178,305.081 412.178,305.081 
  " fill="#d3d3d3" fill-rule="evenodd" fill-opacity="1"/>
<polyline clip-path="url(#clip3102)" style="stroke:#000000; stroke-width:4; stroke-opacity:1; fill:none" points="
  412.178,305.081 412.178,203.04 523.852,203.04 523.852,305.081 412.178,305.081 
  "/>
<polygon clip-path="url(#clip3102)" points="
412.178,166.858 412.178,203.04 523.852,203.04 523.852,166.858 412.178,166.858 412.178,166.858 
  " fill="#d3d3d3" fill-rule="evenodd" fill-opacity="1"/>
<polyline clip-path="url(#clip3102)" style="stroke:#000000; stroke-width:4; stroke-opacity:1; fill:none" points="
  412.178,166.858 412.178,203.04 523.852,203.04 523.852,166.858 412.178,166.858 
  "/>
<polygon clip-path="url(#clip3102)" points="
468.015,127.415 412.178,127.415 523.852,127.415 468.015,127.415 468.015,166.858 468.015,127.415 
  " fill="#d3d3d3" fill-rule="evenodd" fill-opacity="1"/>
<polyline clip-path="url(#clip3102)" style="stroke:#000000; stroke-width:4; stroke-opacity:1; fill:none" points="
  468.015,127.415 412.178,127.415 523.852,127.415 468.015,127.415 468.015,166.858 468.015,127.415 
  "/>
<polygon clip-path="url(#clip3102)" points="
607.608,351.562 551.771,351.562 663.445,351.562 607.608,351.562 607.608,225.401 607.608,351.562 
  " fill="#d3d3d3" fill-rule="evenodd" fill-opacity="1"/>
<polyline clip-path="url(#clip3102)" style="stroke:#000000; stroke-width:4; stroke-opacity:1; fill:none" points="
  607.608,351.562 551.771,351.562 663.445,351.562 607.608,351.562 607.608,225.401 607.608,351.562 
  "/>
<polygon clip-path="url(#clip3102)" points="
551.771,225.401 551.771,178.546 663.445,178.546 663.445,225.401 551.771,225.401 551.771,225.401 
  " fill="#d3d3d3" fill-rule="evenodd" fill-opacity="1"/>
<polyline clip-path="url(#clip3102)" style="stroke:#000000; stroke-width:4; stroke-opacity:1; fill:none" points="
  551.771,225.401 551.771,178.546 663.445,178.546 663.445,225.401 551.771,225.401 
  "/>
<polygon clip-path="url(#clip3102)" points="
551.771,140.125 551.771,178.546 663.445,178.546 663.445,140.125 551.771,140.125 551.771,140.125 
  " fill="#d3d3d3" fill-rule="evenodd" fill-opacity="1"/>
<polyline clip-path="url(#clip3102)" style="stroke:#000000; stroke-width:4; stroke-opacity:1; fill:none" points="
  551.771,140.125 551.771,178.546 663.445,178.546 663.445,140.125 551.771,140.125 
  "/>
<polygon clip-path="url(#clip3102)" points="
607.608,103.845 551.771,103.845 663.445,103.845 607.608,103.845 607.608,140.125 607.608,103.845 
  " fill="#d3d3d3" fill-rule="evenodd" fill-opacity="1"/>
<polyline clip-path="url(#clip3102)" style="stroke:#000000; stroke-width:4; stroke-opacity:1; fill:none" points="
  607.608,103.845 551.771,103.845 663.445,103.845 607.608,103.845 607.608,140.125 607.608,103.845 
  "/>
<polygon clip-path="url(#clip3102)" points="
747.201,429.86 691.364,429.86 803.038,429.86 747.201,429.86 747.201,324.942 747.201,429.86 
  " fill="#d3d3d3" fill-rule="evenodd" fill-opacity="1"/>
<polyline clip-path="url(#clip3102)" style="stroke:#000000; stroke-width:4; stroke-opacity:1; fill:none" points="
  747.201,429.86 691.364,429.86 803.038,429.86 747.201,429.86 747.201,324.942 747.201,429.86 
  "/>
<polygon clip-path="url(#clip3102)" points="
691.364,324.942 691.364,218.056 803.038,218.056 803.038,324.942 691.364,324.942 691.364,324.942 
  " fill="#d3d3d3" fill-rule="evenodd" fill-opacity="1"/>
<polyline clip-path="url(#clip3102)" style="stroke:#000000; stroke-width:4; stroke-opacity:1; fill:none" points="
  691.364,324.942 691.364,218.056 803.038,218.056 803.038,324.942 691.364,324.942 
  "/>
<polygon clip-path="url(#clip3102)" points="
691.364,156.519 691.364,218.056 803.038,218.056 803.038,156.519 691.364,156.519 691.364,156.519 
  " fill="#d3d3d3" fill-rule="evenodd" fill-opacity="1"/>
<polyline clip-path="url(#clip3102)" style="stroke:#000000; stroke-width:4; stroke-opacity:1; fill:none" points="
  691.364,156.519 691.364,218.056 803.038,218.056 803.038,156.519 691.364,156.519 
  "/>
<polygon clip-path="url(#clip3102)" points="
747.201,106.876 691.364,106.876 803.038,106.876 747.201,106.876 747.201,156.519 747.201,106.876 
  " fill="#d3d3d3" fill-rule="evenodd" fill-opacity="1"/>
<polyline clip-path="url(#clip3102)" style="stroke:#000000; stroke-width:4; stroke-opacity:1; fill:none" points="
  747.201,106.876 691.364,106.876 803.038,106.876 747.201,106.876 747.201,156.519 747.201,106.876 
  "/>
<polygon clip-path="url(#clip3102)" points="
886.793,329.531 830.956,329.531 942.63,329.531 886.793,329.531 886.793,267.987 886.793,329.531 
  " fill="#d3d3d3" fill-rule="evenodd" fill-opacity="1"/>
<polyline clip-path="url(#clip3102)" style="stroke:#000000; stroke-width:4; stroke-opacity:1; fill:none" points="
  886.793,329.531 830.956,329.531 942.63,329.531 886.793,329.531 886.793,267.987 886.793,329.531 
  "/>
<polygon clip-path="url(#clip3102)" points="
830.956,267.987 830.956,185.069 942.63,185.069 942.63,267.987 830.956,267.987 830.956,267.987 
  " fill="#d3d3d3" fill-rule="evenodd" fill-opacity="1"/>
<polyline clip-path="url(#clip3102)" style="stroke:#000000; stroke-width:4; stroke-opacity:1; fill:none" points="
  830.956,267.987 830.956,185.069 942.63,185.069 942.63,267.987 830.956,267.987 
  "/>
<polygon clip-path="url(#clip3102)" points="
830.956,131.211 830.956,185.069 942.63,185.069 942.63,131.211 830.956,131.211 830.956,131.211 
  " fill="#d3d3d3" fill-rule="evenodd" fill-opacity="1"/>
<polyline clip-path="url(#clip3102)" style="stroke:#000000; stroke-width:4; stroke-opacity:1; fill:none" points="
  830.956,131.211 830.956,185.069 942.63,185.069 942.63,131.211 830.956,131.211 
  "/>
<polygon clip-path="url(#clip3102)" points="
886.793,84.4615 830.956,84.4615 942.63,84.4615 886.793,84.4615 886.793,131.211 886.793,84.4615 
  " fill="#d3d3d3" fill-rule="evenodd" fill-opacity="1"/>
<polyline clip-path="url(#clip3102)" style="stroke:#000000; stroke-width:4; stroke-opacity:1; fill:none" points="
  886.793,84.4615 830.956,84.4615 942.63,84.4615 886.793,84.4615 886.793,131.211 886.793,84.4615 
  "/>
<polygon clip-path="url(#clip3102)" points="
1026.39,259.958 970.549,259.958 1082.22,259.958 1026.39,259.958 1026.39,207.927 1026.39,259.958 
  " fill="#d3d3d3" fill-rule="evenodd" fill-opacity="1"/>
<polyline clip-path="url(#clip3102)" style="stroke:#000000; stroke-width:4; stroke-opacity:1; fill:none" points="
  1026.39,259.958 970.549,259.958 1082.22,259.958 1026.39,259.958 1026.39,207.927 1026.39,259.958 
  "/>
<polygon clip-path="url(#clip3102)" points="
970.549,207.927 970.549,173.439 1082.22,173.439 1082.22,207.927 970.549,207.927 970.549,207.927 
  " fill="#d3d3d3" fill-rule="evenodd" fill-opacity="1"/>
<polyline clip-path="url(#clip3102)" style="stroke:#000000; stroke-width:4; stroke-opacity:1; fill:none" points="
  970.549,207.927 970.549,173.439 1082.22,173.439 1082.22,207.927 970.549,207.927 
  "/>
<polygon clip-path="url(#clip3102)" points="
970.549,139.011 970.549,173.439 1082.22,173.439 1082.22,139.011 970.549,139.011 970.549,139.011 
  " fill="#d3d3d3" fill-rule="evenodd" fill-opacity="1"/>
<polyline clip-path="url(#clip3102)" style="stroke:#000000; stroke-width:4; stroke-opacity:1; fill:none" points="
  970.549,139.011 970.549,173.439 1082.22,173.439 1082.22,139.011 970.549,139.011 
  "/>
<polygon clip-path="url(#clip3102)" points="
1026.39,118.039 970.549,118.039 1082.22,118.039 1026.39,118.039 1026.39,139.011 1026.39,118.039 
  " fill="#d3d3d3" fill-rule="evenodd" fill-opacity="1"/>
<polyline clip-path="url(#clip3102)" style="stroke:#000000; stroke-width:4; stroke-opacity:1; fill:none" points="
  1026.39,118.039 970.549,118.039 1082.22,118.039 1026.39,118.039 1026.39,139.011 1026.39,118.039 
  "/>
<polygon clip-path="url(#clip3102)" points="
1165.98,313.696 1110.14,313.696 1221.82,313.696 1165.98,313.696 1165.98,219.253 1165.98,313.696 
  " fill="#d3d3d3" fill-rule="evenodd" fill-opacity="1"/>
<polyline clip-path="url(#clip3102)" style="stroke:#000000; stroke-width:4; stroke-opacity:1; fill:none" points="
  1165.98,313.696 1110.14,313.696 1221.82,313.696 1165.98,313.696 1165.98,219.253 1165.98,313.696 
  "/>
<polygon clip-path="url(#clip3102)" points="
1110.14,219.253 1110.14,188.132 1221.82,188.132 1221.82,219.253 1110.14,219.253 1110.14,219.253 
  " fill="#d3d3d3" fill-rule="evenodd" fill-opacity="1"/>
<polyline clip-path="url(#clip3102)" style="stroke:#000000; stroke-width:4; stroke-opacity:1; fill:none" points="
  1110.14,219.253 1110.14,188.132 1221.82,188.132 1221.82,219.253 1110.14,219.253 
  "/>
<polygon clip-path="url(#clip3102)" points="
1110.14,134.063 1110.14,188.132 1221.82,188.132 1221.82,134.063 1110.14,134.063 1110.14,134.063 
  " fill="#d3d3d3" fill-rule="evenodd" fill-opacity="1"/>
<polyline clip-path="url(#clip3102)" style="stroke:#000000; stroke-width:4; stroke-opacity:1; fill:none" points="
  1110.14,134.063 1110.14,188.132 1221.82,188.132 1221.82,134.063 1110.14,134.063 
  "/>
<polygon clip-path="url(#clip3102)" points="
1165.98,98.6097 1110.14,98.6097 1221.82,98.6097 1165.98,98.6097 1165.98,134.063 1165.98,98.6097 
  " fill="#d3d3d3" fill-rule="evenodd" fill-opacity="1"/>
<polyline clip-path="url(#clip3102)" style="stroke:#000000; stroke-width:4; stroke-opacity:1; fill:none" points="
  1165.98,98.6097 1110.14,98.6097 1221.82,98.6097 1165.98,98.6097 1165.98,134.063 1165.98,98.6097 
  "/>
<polygon clip-path="url(#clip3102)" points="
1305.57,218.44 1249.73,218.44 1361.41,218.44 1305.57,218.44 1305.57,187.843 1305.57,218.44 
  " fill="#d3d3d3" fill-rule="evenodd" fill-opacity="1"/>
<polyline clip-path="url(#clip3102)" style="stroke:#000000; stroke-width:4; stroke-opacity:1; fill:none" points="
  1305.57,218.44 1249.73,218.44 1361.41,218.44 1305.57,218.44 1305.57,187.843 1305.57,218.44 
  "/>
<polygon clip-path="url(#clip3102)" points="
1249.73,187.843 1249.73,158.834 1361.41,158.834 1361.41,187.843 1249.73,187.843 1249.73,187.843 
  " fill="#d3d3d3" fill-rule="evenodd" fill-opacity="1"/>
<polyline clip-path="url(#clip3102)" style="stroke:#000000; stroke-width:4; stroke-opacity:1; fill:none" points="
  1249.73,187.843 1249.73,158.834 1361.41,158.834 1361.41,187.843 1249.73,187.843 
  "/>
<polygon clip-path="url(#clip3102)" points="
1249.73,139.182 1249.73,158.834 1361.41,158.834 1361.41,139.182 1249.73,139.182 1249.73,139.182 
  " fill="#d3d3d3" fill-rule="evenodd" fill-opacity="1"/>
<polyline clip-path="url(#clip3102)" style="stroke:#000000; stroke-width:4; stroke-opacity:1; fill:none" points="
  1249.73,139.182 1249.73,158.834 1361.41,158.834 1361.41,139.182 1249.73,139.182 
  "/>
<polygon clip-path="url(#clip3102)" points="
1305.57,117.823 1249.73,117.823 1361.41,117.823 1305.57,117.823 1305.57,139.182 1305.57,117.823 
  " fill="#d3d3d3" fill-rule="evenodd" fill-opacity="1"/>
<polyline clip-path="url(#clip3102)" style="stroke:#000000; stroke-width:4; stroke-opacity:1; fill:none" points="
  1305.57,117.823 1249.73,117.823 1361.41,117.823 1305.57,117.823 1305.57,139.182 1305.57,117.823 
  "/>
<polygon clip-path="url(#clip3102)" points="
1445.16,294.254 1389.33,294.254 1501,294.254 1445.16,294.254 1445.16,209.279 1445.16,294.254 
  " fill="#d3d3d3" fill-rule="evenodd" fill-opacity="1"/>
<polyline clip-path="url(#clip3102)" style="stroke:#000000; stroke-width:4; stroke-opacity:1; fill:none" points="
  1445.16,294.254 1389.33,294.254 1501,294.254 1445.16,294.254 1445.16,209.279 1445.16,294.254 
  "/>
<polygon clip-path="url(#clip3102)" points="
1389.33,209.279 1389.33,160.167 1501,160.167 1501,209.279 1389.33,209.279 1389.33,209.279 
  " fill="#d3d3d3" fill-rule="evenodd" fill-opacity="1"/>
<polyline clip-path="url(#clip3102)" style="stroke:#000000; stroke-width:4; stroke-opacity:1; fill:none" points="
  1389.33,209.279 1389.33,160.167 1501,160.167 1501,209.279 1389.33,209.279 
  "/>
<polygon clip-path="url(#clip3102)" points="
1389.33,134.032 1389.33,160.167 1501,160.167 1501,134.032 1389.33,134.032 1389.33,134.032 
  " fill="#d3d3d3" fill-rule="evenodd" fill-opacity="1"/>
<polyline clip-path="url(#clip3102)" style="stroke:#000000; stroke-width:4; stroke-opacity:1; fill:none" points="
  1389.33,134.032 1389.33,160.167 1501,160.167 1501,134.032 1389.33,134.032 
  "/>
<polygon clip-path="url(#clip3102)" points="
1445.16,94.9121 1389.33,94.9121 1501,94.9121 1445.16,94.9121 1445.16,134.032 1445.16,94.9121 
  " fill="#d3d3d3" fill-rule="evenodd" fill-opacity="1"/>
<polyline clip-path="url(#clip3102)" style="stroke:#000000; stroke-width:4; stroke-opacity:1; fill:none" points="
  1445.16,94.9121 1389.33,94.9121 1501,94.9121 1445.16,94.9121 1445.16,134.032 1445.16,94.9121 
  "/>
<polygon clip-path="url(#clip3102)" points="
1584.76,345.608 1528.92,345.608 1640.59,345.608 1584.76,345.608 1584.76,251.468 1584.76,345.608 
  " fill="#d3d3d3" fill-rule="evenodd" fill-opacity="1"/>
<polyline clip-path="url(#clip3102)" style="stroke:#000000; stroke-width:4; stroke-opacity:1; fill:none" points="
  1584.76,345.608 1528.92,345.608 1640.59,345.608 1584.76,345.608 1584.76,251.468 1584.76,345.608 
  "/>
<polygon clip-path="url(#clip3102)" points="
1528.92,251.468 1528.92,160.75 1640.59,160.75 1640.59,251.468 1528.92,251.468 1528.92,251.468 
  " fill="#d3d3d3" fill-rule="evenodd" fill-opacity="1"/>
<polyline clip-path="url(#clip3102)" style="stroke:#000000; stroke-width:4; stroke-opacity:1; fill:none" points="
  1528.92,251.468 1528.92,160.75 1640.59,160.75 1640.59,251.468 1528.92,251.468 
  "/>
<polygon clip-path="url(#clip3102)" points="
1528.92,128.964 1528.92,160.75 1640.59,160.75 1640.59,128.964 1528.92,128.964 1528.92,128.964 
  " fill="#d3d3d3" fill-rule="evenodd" fill-opacity="1"/>
<polyline clip-path="url(#clip3102)" style="stroke:#000000; stroke-width:4; stroke-opacity:1; fill:none" points="
  1528.92,128.964 1528.92,160.75 1640.59,160.75 1640.59,128.964 1528.92,128.964 
  "/>
<polygon clip-path="url(#clip3102)" points="
1584.76,122.865 1528.92,122.865 1640.59,122.865 1584.76,122.865 1584.76,128.964 1584.76,122.865 
  " fill="#d3d3d3" fill-rule="evenodd" fill-opacity="1"/>
<polyline clip-path="url(#clip3102)" style="stroke:#000000; stroke-width:4; stroke-opacity:1; fill:none" points="
  1584.76,122.865 1528.92,122.865 1640.59,122.865 1584.76,122.865 1584.76,128.964 1584.76,122.865 
  "/>
<polygon clip-path="url(#clip3102)" points="
1724.35,255.094 1668.51,255.094 1780.19,255.094 1724.35,255.094 1724.35,191.172 1724.35,255.094 
  " fill="#d3d3d3" fill-rule="evenodd" fill-opacity="1"/>
<polyline clip-path="url(#clip3102)" style="stroke:#000000; stroke-width:4; stroke-opacity:1; fill:none" points="
  1724.35,255.094 1668.51,255.094 1780.19,255.094 1724.35,255.094 1724.35,191.172 1724.35,255.094 
  "/>
<polygon clip-path="url(#clip3102)" points="
1668.51,191.172 1668.51,174.537 1780.19,174.537 1780.19,191.172 1668.51,191.172 1668.51,191.172 
  " fill="#d3d3d3" fill-rule="evenodd" fill-opacity="1"/>
<polyline clip-path="url(#clip3102)" style="stroke:#000000; stroke-width:4; stroke-opacity:1; fill:none" points="
  1668.51,191.172 1668.51,174.537 1780.19,174.537 1780.19,191.172 1668.51,191.172 
  "/>
<polygon clip-path="url(#clip3102)" points="
1668.51,134.269 1668.51,174.537 1780.19,174.537 1780.19,134.269 1668.51,134.269 1668.51,134.269 
  " fill="#d3d3d3" fill-rule="evenodd" fill-opacity="1"/>
<polyline clip-path="url(#clip3102)" style="stroke:#000000; stroke-width:4; stroke-opacity:1; fill:none" points="
  1668.51,134.269 1668.51,174.537 1780.19,174.537 1780.19,134.269 1668.51,134.269 
  "/>
<polygon clip-path="url(#clip3102)" points="
1724.35,92.4341 1668.51,92.4341 1780.19,92.4341 1724.35,92.4341 1724.35,134.269 1724.35,92.4341 
  " fill="#d3d3d3" fill-rule="evenodd" fill-opacity="1"/>
<polyline clip-path="url(#clip3102)" style="stroke:#000000; stroke-width:4; stroke-opacity:1; fill:none" points="
  1724.35,92.4341 1668.51,92.4341 1780.19,92.4341 1724.35,92.4341 1724.35,134.269 1724.35,92.4341 
  "/>
<polygon clip-path="url(#clip3102)" points="
1863.94,238.993 1808.11,238.993 1919.78,238.993 1863.94,238.993 1863.94,237.315 1863.94,238.993 
  " fill="#d3d3d3" fill-rule="evenodd" fill-opacity="1"/>
<polyline clip-path="url(#clip3102)" style="stroke:#000000; stroke-width:4; stroke-opacity:1; fill:none" points="
  1863.94,238.993 1808.11,238.993 1919.78,238.993 1863.94,238.993 1863.94,237.315 1863.94,238.993 
  "/>
<polygon clip-path="url(#clip3102)" points="
1808.11,237.315 1808.11,208.952 1919.78,208.952 1919.78,237.315 1808.11,237.315 1808.11,237.315 
  " fill="#d3d3d3" fill-rule="evenodd" fill-opacity="1"/>
<polyline clip-path="url(#clip3102)" style="stroke:#000000; stroke-width:4; stroke-opacity:1; fill:none" points="
  1808.11,237.315 1808.11,208.952 1919.78,208.952 1919.78,237.315 1808.11,237.315 
  "/>
<polygon clip-path="url(#clip3102)" points="
1808.11,191.799 1808.11,208.952 1919.78,208.952 1919.78,191.799 1808.11,191.799 1808.11,191.799 
  " fill="#d3d3d3" fill-rule="evenodd" fill-opacity="1"/>
<polyline clip-path="url(#clip3102)" style="stroke:#000000; stroke-width:4; stroke-opacity:1; fill:none" points="
  1808.11,191.799 1808.11,208.952 1919.78,208.952 1919.78,191.799 1808.11,191.799 
  "/>
<polygon clip-path="url(#clip3102)" points="
1863.94,166.594 1808.11,166.594 1919.78,166.594 1863.94,166.594 1863.94,191.799 1863.94,166.594 
  " fill="#d3d3d3" fill-rule="evenodd" fill-opacity="1"/>
<polyline clip-path="url(#clip3102)" style="stroke:#000000; stroke-width:4; stroke-opacity:1; fill:none" points="
  1863.94,166.594 1808.11,166.594 1919.78,166.594 1863.94,166.594 1863.94,191.799 1863.94,166.594 
  "/>
<polygon clip-path="url(#clip3102)" points="
2003.53,126.879 1947.7,126.879 2059.37,126.879 2003.53,126.879 2003.53,126.879 2003.53,126.879 
  " fill="#d3d3d3" fill-rule="evenodd" fill-opacity="1"/>
<polyline clip-path="url(#clip3102)" style="stroke:#000000; stroke-width:4; stroke-opacity:1; fill:none" points="
  2003.53,126.879 1947.7,126.879 2059.37,126.879 2003.53,126.879 
  "/>
<polygon clip-path="url(#clip3102)" points="
1947.7,126.879 1947.7,126.879 2059.37,126.879 2059.37,126.879 1947.7,126.879 1947.7,126.879 
  " fill="#d3d3d3" fill-rule="evenodd" fill-opacity="1"/>
<polyline clip-path="url(#clip3102)" style="stroke:#000000; stroke-width:4; stroke-opacity:1; fill:none" points="
  1947.7,126.879 1947.7,126.879 2059.37,126.879 1947.7,126.879 
  "/>
<polygon clip-path="url(#clip3102)" points="
1947.7,126.879 1947.7,126.879 2059.37,126.879 2059.37,126.879 1947.7,126.879 1947.7,126.879 
  " fill="#d3d3d3" fill-rule="evenodd" fill-opacity="1"/>
<polyline clip-path="url(#clip3102)" style="stroke:#000000; stroke-width:4; stroke-opacity:1; fill:none" points="
  1947.7,126.879 1947.7,126.879 2059.37,126.879 1947.7,126.879 
  "/>
<polygon clip-path="url(#clip3102)" points="
2003.53,126.879 1947.7,126.879 2059.37,126.879 2003.53,126.879 2003.53,126.879 2003.53,126.879 
  " fill="#d3d3d3" fill-rule="evenodd" fill-opacity="1"/>
<polyline clip-path="url(#clip3102)" style="stroke:#000000; stroke-width:4; stroke-opacity:1; fill:none" points="
  2003.53,126.879 1947.7,126.879 2059.37,126.879 2003.53,126.879 
  "/>
<polygon clip-path="url(#clip3102)" points="
2143.13,165.494 2087.29,165.494 2198.96,165.494 2143.13,165.494 2143.13,165.494 2143.13,165.494 
  " fill="#d3d3d3" fill-rule="evenodd" fill-opacity="1"/>
<polyline clip-path="url(#clip3102)" style="stroke:#000000; stroke-width:4; stroke-opacity:1; fill:none" points="
  2143.13,165.494 2087.29,165.494 2198.96,165.494 2143.13,165.494 
  "/>
<polygon clip-path="url(#clip3102)" points="
2087.29,165.494 2087.29,165.494 2198.96,165.494 2198.96,165.494 2087.29,165.494 2087.29,165.494 
  " fill="#d3d3d3" fill-rule="evenodd" fill-opacity="1"/>
<polyline clip-path="url(#clip3102)" style="stroke:#000000; stroke-width:4; stroke-opacity:1; fill:none" points="
  2087.29,165.494 2087.29,165.494 2198.96,165.494 2087.29,165.494 
  "/>
<polygon clip-path="url(#clip3102)" points="
2087.29,165.494 2087.29,165.494 2198.96,165.494 2198.96,165.494 2087.29,165.494 2087.29,165.494 
  " fill="#d3d3d3" fill-rule="evenodd" fill-opacity="1"/>
<polyline clip-path="url(#clip3102)" style="stroke:#000000; stroke-width:4; stroke-opacity:1; fill:none" points="
  2087.29,165.494 2087.29,165.494 2198.96,165.494 2087.29,165.494 
  "/>
<polygon clip-path="url(#clip3102)" points="
2143.13,165.494 2087.29,165.494 2198.96,165.494 2143.13,165.494 2143.13,165.494 2143.13,165.494 
  " fill="#d3d3d3" fill-rule="evenodd" fill-opacity="1"/>
<polyline clip-path="url(#clip3102)" style="stroke:#000000; stroke-width:4; stroke-opacity:1; fill:none" points="
  2143.13,165.494 2087.29,165.494 2198.96,165.494 2143.13,165.494 
  "/>
</svg>
