<?xml version="1.0" encoding="utf-8"?>
<svg xmlns="http://www.w3.org/2000/svg" xmlns:xlink="http://www.w3.org/1999/xlink" width="576" height="384" viewBox="0 0 2304 1536">
<defs>
  <clipPath id="clip4900">
    <rect x="0" y="0" width="2304" height="1536"/>
  </clipPath>
</defs>
<polygon clip-path="url(#clip4900)" points="
0,1536 2304,1536 2304,0 0,0 
  " fill="#ffffff" fill-rule="evenodd" fill-opacity="1"/>
<defs>
  <clipPath id="clip4901">
    <rect x="460" y="0" width="1614" height="1536"/>
  </clipPath>
</defs>
<polygon clip-path="url(#clip4900)" points="
616.229,1362.26 2256.76,1362.26 2256.76,47.2441 616.229,47.2441 
  " fill="#ffffff" fill-rule="evenodd" fill-opacity="1"/>
<defs>
  <clipPath id="clip4902">
    <rect x="616" y="47" width="1642" height="1316"/>
  </clipPath>
</defs>
<polyline clip-path="url(#clip4902)" style="stroke:#000000; stroke-width:2; stroke-opacity:0.1; fill:none" points="
  707.519,1362.26 707.519,47.2441 
  "/>
<polyline clip-path="url(#clip4902)" style="stroke:#000000; stroke-width:2; stroke-opacity:0.1; fill:none" points="
  931.819,1362.26 931.819,47.2441 
  "/>
<polyline clip-path="url(#clip4902)" style="stroke:#000000; stroke-width:2; stroke-opacity:0.1; fill:none" points="
  1156.12,1362.26 1156.12,47.2441 
  "/>
<polyline clip-path="url(#clip4902)" style="stroke:#000000; stroke-width:2; stroke-opacity:0.1; fill:none" points="
  1380.42,1362.26 1380.42,47.2441 
  "/>
<polyline clip-path="url(#clip4902)" style="stroke:#000000; stroke-width:2; stroke-opacity:0.1; fill:none" points="
  1604.72,1362.26 1604.72,47.2441 
  "/>
<polyline clip-path="url(#clip4902)" style="stroke:#000000; stroke-width:2; stroke-opacity:0.1; fill:none" points="
  1829.02,1362.26 1829.02,47.2441 
  "/>
<polyline clip-path="url(#clip4902)" style="stroke:#000000; stroke-width:2; stroke-opacity:0.1; fill:none" points="
  2053.32,1362.26 2053.32,47.2441 
  "/>
<polyline clip-path="url(#clip4902)" style="stroke:#000000; stroke-width:2; stroke-opacity:0.1; fill:none" points="
  616.229,1245.4 2256.76,1245.4 
  "/>
<polyline clip-path="url(#clip4902)" style="stroke:#000000; stroke-width:2; stroke-opacity:0.1; fill:none" points="
  616.229,1038.96 2256.76,1038.96 
  "/>
<polyline clip-path="url(#clip4902)" style="stroke:#000000; stroke-width:2; stroke-opacity:0.1; fill:none" points="
  616.229,832.52 2256.76,832.52 
  "/>
<polyline clip-path="url(#clip4902)" style="stroke:#000000; stroke-width:2; stroke-opacity:0.1; fill:none" points="
  616.229,626.08 2256.76,626.08 
  "/>
<polyline clip-path="url(#clip4902)" style="stroke:#000000; stroke-width:2; stroke-opacity:0.1; fill:none" points="
  616.229,419.64 2256.76,419.64 
  "/>
<polyline clip-path="url(#clip4902)" style="stroke:#000000; stroke-width:2; stroke-opacity:0.1; fill:none" points="
  616.229,213.201 2256.76,213.201 
  "/>
<polyline clip-path="url(#clip4900)" style="stroke:#000000; stroke-width:4; stroke-opacity:1; fill:none" points="
  616.229,1362.26 2256.76,1362.26 
  "/>
<polyline clip-path="url(#clip4900)" style="stroke:#000000; stroke-width:4; stroke-opacity:1; fill:none" points="
  616.229,1362.26 616.229,47.2441 
  "/>
<polyline clip-path="url(#clip4900)" style="stroke:#000000; stroke-width:4; stroke-opacity:1; fill:none" points="
  707.519,1362.26 707.519,1342.53 
  "/>
<polyline clip-path="url(#clip4900)" style="stroke:#000000; stroke-width:4; stroke-opacity:1; fill:none" points="
  931.819,1362.26 931.819,1342.53 
  "/>
<polyline clip-path="url(#clip4900)" style="stroke:#000000; stroke-width:4; stroke-opacity:1; fill:none" points="
  1156.12,1362.26 1156.12,1342.53 
  "/>
<polyline clip-path="url(#clip4900)" style="stroke:#000000; stroke-width:4; stroke-opacity:1; fill:none" points="
  1380.42,1362.26 1380.42,1342.53 
  "/>
<polyline clip-path="url(#clip4900)" style="stroke:#000000; stroke-width:4; stroke-opacity:1; fill:none" points="
  1604.72,1362.26 1604.72,1342.53 
  "/>
<polyline clip-path="url(#clip4900)" style="stroke:#000000; stroke-width:4; stroke-opacity:1; fill:none" points="
  1829.02,1362.26 1829.02,1342.53 
  "/>
<polyline clip-path="url(#clip4900)" style="stroke:#000000; stroke-width:4; stroke-opacity:1; fill:none" points="
  2053.32,1362.26 2053.32,1342.53 
  "/>
<polyline clip-path="url(#clip4900)" style="stroke:#000000; stroke-width:4; stroke-opacity:1; fill:none" points="
  616.229,1245.4 640.837,1245.4 
  "/>
<polyline clip-path="url(#clip4900)" style="stroke:#000000; stroke-width:4; stroke-opacity:1; fill:none" points="
  616.229,1038.96 640.837,1038.96 
  "/>
<polyline clip-path="url(#clip4900)" style="stroke:#000000; stroke-width:4; stroke-opacity:1; fill:none" points="
  616.229,832.52 640.837,832.52 
  "/>
<polyline clip-path="url(#clip4900)" style="stroke:#000000; stroke-width:4; stroke-opacity:1; fill:none" points="
  616.229,626.08 640.837,626.08 
  "/>
<polyline clip-path="url(#clip4900)" style="stroke:#000000; stroke-width:4; stroke-opacity:1; fill:none" points="
  616.229,419.64 640.837,419.64 
  "/>
<polyline clip-path="url(#clip4900)" style="stroke:#000000; stroke-width:4; stroke-opacity:1; fill:none" points="
  616.229,213.201 640.837,213.201 
  "/>
<g clip-path="url(#clip4900)">
<text style="fill:#000000; fill-opacity:1; font-family:Arial,Helvetica Neue,Helvetica,sans-serif; font-size:48px; text-anchor:middle;" transform="rotate(0, 707.519, 1415.78)" x="707.519" y="1415.78">0</text>
</g>
<g clip-path="url(#clip4900)">
<text style="fill:#000000; fill-opacity:1; font-family:Arial,Helvetica Neue,Helvetica,sans-serif; font-size:48px; text-anchor:middle;" transform="rotate(0, 931.819, 1415.78)" x="931.819" y="1415.78">2</text>
</g>
<g clip-path="url(#clip4900)">
<text style="fill:#000000; fill-opacity:1; font-family:Arial,Helvetica Neue,Helvetica,sans-serif; font-size:48px; text-anchor:middle;" transform="rotate(0, 1156.12, 1415.78)" x="1156.12" y="1415.78">4</text>
</g>
<g clip-path="url(#clip4900)">
<text style="fill:#000000; fill-opacity:1; font-family:Arial,Helvetica Neue,Helvetica,sans-serif; font-size:48px; text-anchor:middle;" transform="rotate(0, 1380.42, 1415.78)" x="1380.42" y="1415.78">6</text>
</g>
<g clip-path="url(#clip4900)">
<text style="fill:#000000; fill-opacity:1; font-family:Arial,Helvetica Neue,Helvetica,sans-serif; font-size:48px; text-anchor:middle;" transform="rotate(0, 1604.72, 1415.78)" x="1604.72" y="1415.78">8</text>
</g>
<g clip-path="url(#clip4900)">
<text style="fill:#000000; fill-opacity:1; font-family:Arial,Helvetica Neue,Helvetica,sans-serif; font-size:48px; text-anchor:middle;" transform="rotate(0, 1829.02, 1415.78)" x="1829.02" y="1415.78">10</text>
</g>
<g clip-path="url(#clip4900)">
<text style="fill:#000000; fill-opacity:1; font-family:Arial,Helvetica Neue,Helvetica,sans-serif; font-size:48px; text-anchor:middle;" transform="rotate(0, 2053.32, 1415.78)" x="2053.32" y="1415.78">12</text>
</g>
<g clip-path="url(#clip4900)">
<text style="fill:#000000; fill-opacity:1; font-family:Arial,Helvetica Neue,Helvetica,sans-serif; font-size:48px; text-anchor:end;" transform="rotate(0, 593.189, 1262.9)" x="593.189" y="1262.9">0.4000000000000000</text>
</g>
<g clip-path="url(#clip4900)">
<text style="fill:#000000; fill-opacity:1; font-family:Arial,Helvetica Neue,Helvetica,sans-serif; font-size:48px; text-anchor:end;" transform="rotate(0, 593.189, 1056.46)" x="593.189" y="1056.46">0.5000000000000000</text>
</g>
<g clip-path="url(#clip4900)">
<text style="fill:#000000; fill-opacity:1; font-family:Arial,Helvetica Neue,Helvetica,sans-serif; font-size:48px; text-anchor:end;" transform="rotate(0, 593.189, 850.02)" x="593.189" y="850.02">0.6000000000000001</text>
</g>
<g clip-path="url(#clip4900)">
<text style="fill:#000000; fill-opacity:1; font-family:Arial,Helvetica Neue,Helvetica,sans-serif; font-size:48px; text-anchor:end;" transform="rotate(0, 593.189, 643.58)" x="593.189" y="643.58">0.7000000000000001</text>
</g>
<g clip-path="url(#clip4900)">
<text style="fill:#000000; fill-opacity:1; font-family:Arial,Helvetica Neue,Helvetica,sans-serif; font-size:48px; text-anchor:end;" transform="rotate(0, 593.189, 437.14)" x="593.189" y="437.14">0.8000000000000000</text>
</g>
<g clip-path="url(#clip4900)">
<text style="fill:#000000; fill-opacity:1; font-family:Arial,Helvetica Neue,Helvetica,sans-serif; font-size:48px; text-anchor:end;" transform="rotate(0, 593.189, 230.701)" x="593.189" y="230.701">0.9000000000000000</text>
</g>
<g clip-path="url(#clip4900)">
<text style="fill:#000000; fill-opacity:1; font-family:Arial,Helvetica Neue,Helvetica,sans-serif; font-size:66px; text-anchor:middle;" transform="rotate(0, 1436.49, 1495.16)" x="1436.49" y="1495.16">Age in Years</text>
</g>
<g clip-path="url(#clip4900)">
<text style="fill:#000000; fill-opacity:1; font-family:Arial,Helvetica Neue,Helvetica,sans-serif; font-size:66px; text-anchor:middle;" transform="rotate(-90, 90.2461, 704.751)" x="90.2461" y="704.751">Alpha diversity (GiniSimpson)</text>
</g>
<circle clip-path="url(#clip4902)" style="fill:#000000; stroke:none; fill-opacity:1" cx="707.519" cy="1325.04" r="18"/>
<circle clip-path="url(#clip4902)" style="fill:#d3d3d3; stroke:none; fill-opacity:1" cx="707.519" cy="1325.04" r="14"/>
<circle clip-path="url(#clip4902)" style="fill:#000000; stroke:none; fill-opacity:1" cx="707.519" cy="1146.84" r="18"/>
<circle clip-path="url(#clip4902)" style="fill:#d3d3d3; stroke:none; fill-opacity:1" cx="707.519" cy="1146.84" r="14"/>
<circle clip-path="url(#clip4902)" style="fill:#000000; stroke:none; fill-opacity:1" cx="707.519" cy="1129.97" r="18"/>
<circle clip-path="url(#clip4902)" style="fill:#d3d3d3; stroke:none; fill-opacity:1" cx="707.519" cy="1129.97" r="14"/>
<circle clip-path="url(#clip4902)" style="fill:#000000; stroke:none; fill-opacity:1" cx="819.669" cy="909.283" r="18"/>
<circle clip-path="url(#clip4902)" style="fill:#d3d3d3; stroke:none; fill-opacity:1" cx="819.669" cy="909.283" r="14"/>
<circle clip-path="url(#clip4902)" style="fill:#000000; stroke:none; fill-opacity:1" cx="931.819" cy="753.673" r="18"/>
<circle clip-path="url(#clip4902)" style="fill:#d3d3d3; stroke:none; fill-opacity:1" cx="931.819" cy="753.673" r="14"/>
<circle clip-path="url(#clip4902)" style="fill:#000000; stroke:none; fill-opacity:1" cx="931.819" cy="581.448" r="18"/>
<circle clip-path="url(#clip4902)" style="fill:#d3d3d3; stroke:none; fill-opacity:1" cx="931.819" cy="581.448" r="14"/>
<circle clip-path="url(#clip4902)" style="fill:#000000; stroke:none; fill-opacity:1" cx="931.819" cy="813.291" r="18"/>
<circle clip-path="url(#clip4902)" style="fill:#d3d3d3; stroke:none; fill-opacity:1" cx="931.819" cy="813.291" r="14"/>
<circle clip-path="url(#clip4902)" style="fill:#000000; stroke:none; fill-opacity:1" cx="931.819" cy="665.604" r="18"/>
<circle clip-path="url(#clip4902)" style="fill:#d3d3d3; stroke:none; fill-opacity:1" cx="931.819" cy="665.604" r="14"/>
<circle clip-path="url(#clip4902)" style="fill:#000000; stroke:none; fill-opacity:1" cx="1043.97" cy="867.473" r="18"/>
<circle clip-path="url(#clip4902)" style="fill:#d3d3d3; stroke:none; fill-opacity:1" cx="1043.97" cy="867.473" r="14"/>
<circle clip-path="url(#clip4902)" style="fill:#000000; stroke:none; fill-opacity:1" cx="1156.12" cy="502.133" r="18"/>
<circle clip-path="url(#clip4902)" style="fill:#d3d3d3; stroke:none; fill-opacity:1" cx="1156.12" cy="502.133" r="14"/>
<circle clip-path="url(#clip4902)" style="fill:#000000; stroke:none; fill-opacity:1" cx="1156.12" cy="492.729" r="18"/>
<circle clip-path="url(#clip4902)" style="fill:#d3d3d3; stroke:none; fill-opacity:1" cx="1156.12" cy="492.729" r="14"/>
<circle clip-path="url(#clip4902)" style="fill:#000000; stroke:none; fill-opacity:1" cx="1156.12" cy="1182.49" r="18"/>
<circle clip-path="url(#clip4902)" style="fill:#d3d3d3; stroke:none; fill-opacity:1" cx="1156.12" cy="1182.49" r="14"/>
<circle clip-path="url(#clip4902)" style="fill:#000000; stroke:none; fill-opacity:1" cx="1156.12" cy="871.282" r="18"/>
<circle clip-path="url(#clip4902)" style="fill:#d3d3d3; stroke:none; fill-opacity:1" cx="1156.12" cy="871.282" r="14"/>
<circle clip-path="url(#clip4902)" style="fill:#000000; stroke:none; fill-opacity:1" cx="1268.27" cy="404.208" r="18"/>
<circle clip-path="url(#clip4902)" style="fill:#d3d3d3; stroke:none; fill-opacity:1" cx="1268.27" cy="404.208" r="14"/>
<circle clip-path="url(#clip4902)" style="fill:#000000; stroke:none; fill-opacity:1" cx="1380.42" cy="417.512" r="18"/>
<circle clip-path="url(#clip4902)" style="fill:#d3d3d3; stroke:none; fill-opacity:1" cx="1380.42" cy="417.512" r="14"/>
<circle clip-path="url(#clip4902)" style="fill:#000000; stroke:none; fill-opacity:1" cx="1380.42" cy="613.125" r="18"/>
<circle clip-path="url(#clip4902)" style="fill:#d3d3d3; stroke:none; fill-opacity:1" cx="1380.42" cy="613.125" r="14"/>
<circle clip-path="url(#clip4902)" style="fill:#000000; stroke:none; fill-opacity:1" cx="1380.42" cy="412.832" r="18"/>
<circle clip-path="url(#clip4902)" style="fill:#d3d3d3; stroke:none; fill-opacity:1" cx="1380.42" cy="412.832" r="14"/>
<circle clip-path="url(#clip4902)" style="fill:#000000; stroke:none; fill-opacity:1" cx="1604.72" cy="333.679" r="18"/>
<circle clip-path="url(#clip4902)" style="fill:#d3d3d3; stroke:none; fill-opacity:1" cx="1604.72" cy="333.679" r="14"/>
<circle clip-path="url(#clip4902)" style="fill:#000000; stroke:none; fill-opacity:1" cx="1829.02" cy="369.643" r="18"/>
<circle clip-path="url(#clip4902)" style="fill:#d3d3d3; stroke:none; fill-opacity:1" cx="1829.02" cy="369.643" r="14"/>
<circle clip-path="url(#clip4902)" style="fill:#000000; stroke:none; fill-opacity:1" cx="1941.17" cy="381.118" r="18"/>
<circle clip-path="url(#clip4902)" style="fill:#d3d3d3; stroke:none; fill-opacity:1" cx="1941.17" cy="381.118" r="14"/>
<polygon clip-path="url(#clip4902)" points="
707.519,905.794 662.659,905.794 752.379,905.794 707.519,905.794 707.519,582.277 707.519,905.794 
  " fill="#d3d3d3" fill-rule="evenodd" fill-opacity="1"/>
<polyline clip-path="url(#clip4902)" style="stroke:#000000; stroke-width:4; stroke-opacity:1; fill:none" points="
  707.519,905.794 662.659,905.794 752.379,905.794 707.519,905.794 707.519,582.277 707.519,905.794 
  "/>
<polygon clip-path="url(#clip4902)" points="
662.659,582.277 662.659,394.837 752.379,394.837 752.379,582.277 662.659,582.277 662.659,582.277 
  " fill="#d3d3d3" fill-rule="evenodd" fill-opacity="1"/>
<polyline clip-path="url(#clip4902)" style="stroke:#000000; stroke-width:4; stroke-opacity:1; fill:none" points="
  662.659,582.277 662.659,394.837 752.379,394.837 752.379,582.277 662.659,582.277 
  "/>
<polygon clip-path="url(#clip4902)" points="
662.659,331.712 662.659,394.837 752.379,394.837 752.379,331.712 662.659,331.712 662.659,331.712 
  " fill="#d3d3d3" fill-rule="evenodd" fill-opacity="1"/>
<polyline clip-path="url(#clip4902)" style="stroke:#000000; stroke-width:4; stroke-opacity:1; fill:none" points="
  662.659,331.712 662.659,394.837 752.379,394.837 752.379,331.712 662.659,331.712 
  "/>
<polygon clip-path="url(#clip4902)" points="
707.519,133.315 662.659,133.315 752.379,133.315 707.519,133.315 707.519,331.712 707.519,133.315 
  " fill="#d3d3d3" fill-rule="evenodd" fill-opacity="1"/>
<polyline clip-path="url(#clip4902)" style="stroke:#000000; stroke-width:4; stroke-opacity:1; fill:none" points="
  707.519,133.315 662.659,133.315 752.379,133.315 707.519,133.315 707.519,331.712 707.519,133.315 
  "/>
<polygon clip-path="url(#clip4902)" points="
819.669,444.479 774.809,444.479 864.529,444.479 819.669,444.479 819.669,305.081 819.669,444.479 
  " fill="#d3d3d3" fill-rule="evenodd" fill-opacity="1"/>
<polyline clip-path="url(#clip4902)" style="stroke:#000000; stroke-width:4; stroke-opacity:1; fill:none" points="
  819.669,444.479 774.809,444.479 864.529,444.479 819.669,444.479 819.669,305.081 819.669,444.479 
  "/>
<polygon clip-path="url(#clip4902)" points="
774.809,305.081 774.809,203.04 864.529,203.04 864.529,305.081 774.809,305.081 774.809,305.081 
  " fill="#d3d3d3" fill-rule="evenodd" fill-opacity="1"/>
<polyline clip-path="url(#clip4902)" style="stroke:#000000; stroke-width:4; stroke-opacity:1; fill:none" points="
  774.809,305.081 774.809,203.04 864.529,203.04 864.529,305.081 774.809,305.081 
  "/>
<polygon clip-path="url(#clip4902)" points="
774.809,166.858 774.809,203.04 864.529,203.04 864.529,166.858 774.809,166.858 774.809,166.858 
  " fill="#d3d3d3" fill-rule="evenodd" fill-opacity="1"/>
<polyline clip-path="url(#clip4902)" style="stroke:#000000; stroke-width:4; stroke-opacity:1; fill:none" points="
  774.809,166.858 774.809,203.04 864.529,203.04 864.529,166.858 774.809,166.858 
  "/>
<polygon clip-path="url(#clip4902)" points="
819.669,127.415 774.809,127.415 864.529,127.415 819.669,127.415 819.669,166.858 819.669,127.415 
  " fill="#d3d3d3" fill-rule="evenodd" fill-opacity="1"/>
<polyline clip-path="url(#clip4902)" style="stroke:#000000; stroke-width:4; stroke-opacity:1; fill:none" points="
  819.669,127.415 774.809,127.415 864.529,127.415 819.669,127.415 819.669,166.858 819.669,127.415 
  "/>
<polygon clip-path="url(#clip4902)" points="
931.819,351.562 886.959,351.562 976.679,351.562 931.819,351.562 931.819,225.401 931.819,351.562 
  " fill="#d3d3d3" fill-rule="evenodd" fill-opacity="1"/>
<polyline clip-path="url(#clip4902)" style="stroke:#000000; stroke-width:4; stroke-opacity:1; fill:none" points="
  931.819,351.562 886.959,351.562 976.679,351.562 931.819,351.562 931.819,225.401 931.819,351.562 
  "/>
<polygon clip-path="url(#clip4902)" points="
886.959,225.401 886.959,178.546 976.679,178.546 976.679,225.401 886.959,225.401 886.959,225.401 
  " fill="#d3d3d3" fill-rule="evenodd" fill-opacity="1"/>
<polyline clip-path="url(#clip4902)" style="stroke:#000000; stroke-width:4; stroke-opacity:1; fill:none" points="
  886.959,225.401 886.959,178.546 976.679,178.546 976.679,225.401 886.959,225.401 
  "/>
<polygon clip-path="url(#clip4902)" points="
886.959,140.125 886.959,178.546 976.679,178.546 976.679,140.125 886.959,140.125 886.959,140.125 
  " fill="#d3d3d3" fill-rule="evenodd" fill-opacity="1"/>
<polyline clip-path="url(#clip4902)" style="stroke:#000000; stroke-width:4; stroke-opacity:1; fill:none" points="
  886.959,140.125 886.959,178.546 976.679,178.546 976.679,140.125 886.959,140.125 
  "/>
<polygon clip-path="url(#clip4902)" points="
931.819,103.845 886.959,103.845 976.679,103.845 931.819,103.845 931.819,140.125 931.819,103.845 
  " fill="#d3d3d3" fill-rule="evenodd" fill-opacity="1"/>
<polyline clip-path="url(#clip4902)" style="stroke:#000000; stroke-width:4; stroke-opacity:1; fill:none" points="
  931.819,103.845 886.959,103.845 976.679,103.845 931.819,103.845 931.819,140.125 931.819,103.845 
  "/>
<polygon clip-path="url(#clip4902)" points="
1043.97,429.86 999.108,429.86 1088.83,429.86 1043.97,429.86 1043.97,324.942 1043.97,429.86 
  " fill="#d3d3d3" fill-rule="evenodd" fill-opacity="1"/>
<polyline clip-path="url(#clip4902)" style="stroke:#000000; stroke-width:4; stroke-opacity:1; fill:none" points="
  1043.97,429.86 999.108,429.86 1088.83,429.86 1043.97,429.86 1043.97,324.942 1043.97,429.86 
  "/>
<polygon clip-path="url(#clip4902)" points="
999.108,324.942 999.108,218.056 1088.83,218.056 1088.83,324.942 999.108,324.942 999.108,324.942 
  " fill="#d3d3d3" fill-rule="evenodd" fill-opacity="1"/>
<polyline clip-path="url(#clip4902)" style="stroke:#000000; stroke-width:4; stroke-opacity:1; fill:none" points="
  999.108,324.942 999.108,218.056 1088.83,218.056 1088.83,324.942 999.108,324.942 
  "/>
<polygon clip-path="url(#clip4902)" points="
999.108,156.519 999.108,218.056 1088.83,218.056 1088.83,156.519 999.108,156.519 999.108,156.519 
  " fill="#d3d3d3" fill-rule="evenodd" fill-opacity="1"/>
<polyline clip-path="url(#clip4902)" style="stroke:#000000; stroke-width:4; stroke-opacity:1; fill:none" points="
  999.108,156.519 999.108,218.056 1088.83,218.056 1088.83,156.519 999.108,156.519 
  "/>
<polygon clip-path="url(#clip4902)" points="
1043.97,106.876 999.108,106.876 1088.83,106.876 1043.97,106.876 1043.97,156.519 1043.97,106.876 
  " fill="#d3d3d3" fill-rule="evenodd" fill-opacity="1"/>
<polyline clip-path="url(#clip4902)" style="stroke:#000000; stroke-width:4; stroke-opacity:1; fill:none" points="
  1043.97,106.876 999.108,106.876 1088.83,106.876 1043.97,106.876 1043.97,156.519 1043.97,106.876 
  "/>
<polygon clip-path="url(#clip4902)" points="
1156.12,329.531 1111.26,329.531 1200.98,329.531 1156.12,329.531 1156.12,267.987 1156.12,329.531 
  " fill="#d3d3d3" fill-rule="evenodd" fill-opacity="1"/>
<polyline clip-path="url(#clip4902)" style="stroke:#000000; stroke-width:4; stroke-opacity:1; fill:none" points="
  1156.12,329.531 1111.26,329.531 1200.98,329.531 1156.12,329.531 1156.12,267.987 1156.12,329.531 
  "/>
<polygon clip-path="url(#clip4902)" points="
1111.26,267.987 1111.26,185.069 1200.98,185.069 1200.98,267.987 1111.26,267.987 1111.26,267.987 
  " fill="#d3d3d3" fill-rule="evenodd" fill-opacity="1"/>
<polyline clip-path="url(#clip4902)" style="stroke:#000000; stroke-width:4; stroke-opacity:1; fill:none" points="
  1111.26,267.987 1111.26,185.069 1200.98,185.069 1200.98,267.987 1111.26,267.987 
  "/>
<polygon clip-path="url(#clip4902)" points="
1111.26,131.211 1111.26,185.069 1200.98,185.069 1200.98,131.211 1111.26,131.211 1111.26,131.211 
  " fill="#d3d3d3" fill-rule="evenodd" fill-opacity="1"/>
<polyline clip-path="url(#clip4902)" style="stroke:#000000; stroke-width:4; stroke-opacity:1; fill:none" points="
  1111.26,131.211 1111.26,185.069 1200.98,185.069 1200.98,131.211 1111.26,131.211 
  "/>
<polygon clip-path="url(#clip4902)" points="
1156.12,84.4615 1111.26,84.4615 1200.98,84.4615 1156.12,84.4615 1156.12,131.211 1156.12,84.4615 
  " fill="#d3d3d3" fill-rule="evenodd" fill-opacity="1"/>
<polyline clip-path="url(#clip4902)" style="stroke:#000000; stroke-width:4; stroke-opacity:1; fill:none" points="
  1156.12,84.4615 1111.26,84.4615 1200.98,84.4615 1156.12,84.4615 1156.12,131.211 1156.12,84.4615 
  "/>
<polygon clip-path="url(#clip4902)" points="
1268.27,259.958 1223.41,259.958 1313.13,259.958 1268.27,259.958 1268.27,207.927 1268.27,259.958 
  " fill="#d3d3d3" fill-rule="evenodd" fill-opacity="1"/>
<polyline clip-path="url(#clip4902)" style="stroke:#000000; stroke-width:4; stroke-opacity:1; fill:none" points="
  1268.27,259.958 1223.41,259.958 1313.13,259.958 1268.27,259.958 1268.27,207.927 1268.27,259.958 
  "/>
<polygon clip-path="url(#clip4902)" points="
1223.41,207.927 1223.41,173.439 1313.13,173.439 1313.13,207.927 1223.41,207.927 1223.41,207.927 
  " fill="#d3d3d3" fill-rule="evenodd" fill-opacity="1"/>
<polyline clip-path="url(#clip4902)" style="stroke:#000000; stroke-width:4; stroke-opacity:1; fill:none" points="
  1223.41,207.927 1223.41,173.439 1313.13,173.439 1313.13,207.927 1223.41,207.927 
  "/>
<polygon clip-path="url(#clip4902)" points="
1223.41,139.011 1223.41,173.439 1313.13,173.439 1313.13,139.011 1223.41,139.011 1223.41,139.011 
  " fill="#d3d3d3" fill-rule="evenodd" fill-opacity="1"/>
<polyline clip-path="url(#clip4902)" style="stroke:#000000; stroke-width:4; stroke-opacity:1; fill:none" points="
  1223.41,139.011 1223.41,173.439 1313.13,173.439 1313.13,139.011 1223.41,139.011 
  "/>
<polygon clip-path="url(#clip4902)" points="
1268.27,118.039 1223.41,118.039 1313.13,118.039 1268.27,118.039 1268.27,139.011 1268.27,118.039 
  " fill="#d3d3d3" fill-rule="evenodd" fill-opacity="1"/>
<polyline clip-path="url(#clip4902)" style="stroke:#000000; stroke-width:4; stroke-opacity:1; fill:none" points="
  1268.27,118.039 1223.41,118.039 1313.13,118.039 1268.27,118.039 1268.27,139.011 1268.27,118.039 
  "/>
<polygon clip-path="url(#clip4902)" points="
1380.42,313.696 1335.56,313.696 1425.28,313.696 1380.42,313.696 1380.42,219.253 1380.42,313.696 
  " fill="#d3d3d3" fill-rule="evenodd" fill-opacity="1"/>
<polyline clip-path="url(#clip4902)" style="stroke:#000000; stroke-width:4; stroke-opacity:1; fill:none" points="
  1380.42,313.696 1335.56,313.696 1425.28,313.696 1380.42,313.696 1380.42,219.253 1380.42,313.696 
  "/>
<polygon clip-path="url(#clip4902)" points="
1335.56,219.253 1335.56,188.132 1425.28,188.132 1425.28,219.253 1335.56,219.253 1335.56,219.253 
  " fill="#d3d3d3" fill-rule="evenodd" fill-opacity="1"/>
<polyline clip-path="url(#clip4902)" style="stroke:#000000; stroke-width:4; stroke-opacity:1; fill:none" points="
  1335.56,219.253 1335.56,188.132 1425.28,188.132 1425.28,219.253 1335.56,219.253 
  "/>
<polygon clip-path="url(#clip4902)" points="
1335.56,134.063 1335.56,188.132 1425.28,188.132 1425.28,134.063 1335.56,134.063 1335.56,134.063 
  " fill="#d3d3d3" fill-rule="evenodd" fill-opacity="1"/>
<polyline clip-path="url(#clip4902)" style="stroke:#000000; stroke-width:4; stroke-opacity:1; fill:none" points="
  1335.56,134.063 1335.56,188.132 1425.28,188.132 1425.28,134.063 1335.56,134.063 
  "/>
<polygon clip-path="url(#clip4902)" points="
1380.42,98.6097 1335.56,98.6097 1425.28,98.6097 1380.42,98.6097 1380.42,134.063 1380.42,98.6097 
  " fill="#d3d3d3" fill-rule="evenodd" fill-opacity="1"/>
<polyline clip-path="url(#clip4902)" style="stroke:#000000; stroke-width:4; stroke-opacity:1; fill:none" points="
  1380.42,98.6097 1335.56,98.6097 1425.28,98.6097 1380.42,98.6097 1380.42,134.063 1380.42,98.6097 
  "/>
<polygon clip-path="url(#clip4902)" points="
1492.57,218.44 1447.71,218.44 1537.43,218.44 1492.57,218.44 1492.57,187.843 1492.57,218.44 
  " fill="#d3d3d3" fill-rule="evenodd" fill-opacity="1"/>
<polyline clip-path="url(#clip4902)" style="stroke:#000000; stroke-width:4; stroke-opacity:1; fill:none" points="
  1492.57,218.44 1447.71,218.44 1537.43,218.44 1492.57,218.44 1492.57,187.843 1492.57,218.44 
  "/>
<polygon clip-path="url(#clip4902)" points="
1447.71,187.843 1447.71,158.834 1537.43,158.834 1537.43,187.843 1447.71,187.843 1447.71,187.843 
  " fill="#d3d3d3" fill-rule="evenodd" fill-opacity="1"/>
<polyline clip-path="url(#clip4902)" style="stroke:#000000; stroke-width:4; stroke-opacity:1; fill:none" points="
  1447.71,187.843 1447.71,158.834 1537.43,158.834 1537.43,187.843 1447.71,187.843 
  "/>
<polygon clip-path="url(#clip4902)" points="
1447.71,139.182 1447.71,158.834 1537.43,158.834 1537.43,139.182 1447.71,139.182 1447.71,139.182 
  " fill="#d3d3d3" fill-rule="evenodd" fill-opacity="1"/>
<polyline clip-path="url(#clip4902)" style="stroke:#000000; stroke-width:4; stroke-opacity:1; fill:none" points="
  1447.71,139.182 1447.71,158.834 1537.43,158.834 1537.43,139.182 1447.71,139.182 
  "/>
<polygon clip-path="url(#clip4902)" points="
1492.57,117.823 1447.71,117.823 1537.43,117.823 1492.57,117.823 1492.57,139.182 1492.57,117.823 
  " fill="#d3d3d3" fill-rule="evenodd" fill-opacity="1"/>
<polyline clip-path="url(#clip4902)" style="stroke:#000000; stroke-width:4; stroke-opacity:1; fill:none" points="
  1492.57,117.823 1447.71,117.823 1537.43,117.823 1492.57,117.823 1492.57,139.182 1492.57,117.823 
  "/>
<polygon clip-path="url(#clip4902)" points="
1604.72,294.254 1559.86,294.254 1649.58,294.254 1604.72,294.254 1604.72,209.279 1604.72,294.254 
  " fill="#d3d3d3" fill-rule="evenodd" fill-opacity="1"/>
<polyline clip-path="url(#clip4902)" style="stroke:#000000; stroke-width:4; stroke-opacity:1; fill:none" points="
  1604.72,294.254 1559.86,294.254 1649.58,294.254 1604.72,294.254 1604.72,209.279 1604.72,294.254 
  "/>
<polygon clip-path="url(#clip4902)" points="
1559.86,209.279 1559.86,160.167 1649.58,160.167 1649.58,209.279 1559.86,209.279 1559.86,209.279 
  " fill="#d3d3d3" fill-rule="evenodd" fill-opacity="1"/>
<polyline clip-path="url(#clip4902)" style="stroke:#000000; stroke-width:4; stroke-opacity:1; fill:none" points="
  1559.86,209.279 1559.86,160.167 1649.58,160.167 1649.58,209.279 1559.86,209.279 
  "/>
<polygon clip-path="url(#clip4902)" points="
1559.86,134.032 1559.86,160.167 1649.58,160.167 1649.58,134.032 1559.86,134.032 1559.86,134.032 
  " fill="#d3d3d3" fill-rule="evenodd" fill-opacity="1"/>
<polyline clip-path="url(#clip4902)" style="stroke:#000000; stroke-width:4; stroke-opacity:1; fill:none" points="
  1559.86,134.032 1559.86,160.167 1649.58,160.167 1649.58,134.032 1559.86,134.032 
  "/>
<polygon clip-path="url(#clip4902)" points="
1604.72,94.9121 1559.86,94.9121 1649.58,94.9121 1604.72,94.9121 1604.72,134.032 1604.72,94.9121 
  " fill="#d3d3d3" fill-rule="evenodd" fill-opacity="1"/>
<polyline clip-path="url(#clip4902)" style="stroke:#000000; stroke-width:4; stroke-opacity:1; fill:none" points="
  1604.72,94.9121 1559.86,94.9121 1649.58,94.9121 1604.72,94.9121 1604.72,134.032 1604.72,94.9121 
  "/>
<polygon clip-path="url(#clip4902)" points="
1716.87,345.608 1672.01,345.608 1761.73,345.608 1716.87,345.608 1716.87,251.468 1716.87,345.608 
  " fill="#d3d3d3" fill-rule="evenodd" fill-opacity="1"/>
<polyline clip-path="url(#clip4902)" style="stroke:#000000; stroke-width:4; stroke-opacity:1; fill:none" points="
  1716.87,345.608 1672.01,345.608 1761.73,345.608 1716.87,345.608 1716.87,251.468 1716.87,345.608 
  "/>
<polygon clip-path="url(#clip4902)" points="
1672.01,251.468 1672.01,160.75 1761.73,160.75 1761.73,251.468 1672.01,251.468 1672.01,251.468 
  " fill="#d3d3d3" fill-rule="evenodd" fill-opacity="1"/>
<polyline clip-path="url(#clip4902)" style="stroke:#000000; stroke-width:4; stroke-opacity:1; fill:none" points="
  1672.01,251.468 1672.01,160.75 1761.73,160.75 1761.73,251.468 1672.01,251.468 
  "/>
<polygon clip-path="url(#clip4902)" points="
1672.01,128.964 1672.01,160.75 1761.73,160.75 1761.73,128.964 1672.01,128.964 1672.01,128.964 
  " fill="#d3d3d3" fill-rule="evenodd" fill-opacity="1"/>
<polyline clip-path="url(#clip4902)" style="stroke:#000000; stroke-width:4; stroke-opacity:1; fill:none" points="
  1672.01,128.964 1672.01,160.75 1761.73,160.75 1761.73,128.964 1672.01,128.964 
  "/>
<polygon clip-path="url(#clip4902)" points="
1716.87,122.865 1672.01,122.865 1761.73,122.865 1716.87,122.865 1716.87,128.964 1716.87,122.865 
  " fill="#d3d3d3" fill-rule="evenodd" fill-opacity="1"/>
<polyline clip-path="url(#clip4902)" style="stroke:#000000; stroke-width:4; stroke-opacity:1; fill:none" points="
  1716.87,122.865 1672.01,122.865 1761.73,122.865 1716.87,122.865 1716.87,128.964 1716.87,122.865 
  "/>
<polygon clip-path="url(#clip4902)" points="
1829.02,255.094 1784.16,255.094 1873.88,255.094 1829.02,255.094 1829.02,191.172 1829.02,255.094 
  " fill="#d3d3d3" fill-rule="evenodd" fill-opacity="1"/>
<polyline clip-path="url(#clip4902)" style="stroke:#000000; stroke-width:4; stroke-opacity:1; fill:none" points="
  1829.02,255.094 1784.16,255.094 1873.88,255.094 1829.02,255.094 1829.02,191.172 1829.02,255.094 
  "/>
<polygon clip-path="url(#clip4902)" points="
1784.16,191.172 1784.16,174.537 1873.88,174.537 1873.88,191.172 1784.16,191.172 1784.16,191.172 
  " fill="#d3d3d3" fill-rule="evenodd" fill-opacity="1"/>
<polyline clip-path="url(#clip4902)" style="stroke:#000000; stroke-width:4; stroke-opacity:1; fill:none" points="
  1784.16,191.172 1784.16,174.537 1873.88,174.537 1873.88,191.172 1784.16,191.172 
  "/>
<polygon clip-path="url(#clip4902)" points="
1784.16,134.269 1784.16,174.537 1873.88,174.537 1873.88,134.269 1784.16,134.269 1784.16,134.269 
  " fill="#d3d3d3" fill-rule="evenodd" fill-opacity="1"/>
<polyline clip-path="url(#clip4902)" style="stroke:#000000; stroke-width:4; stroke-opacity:1; fill:none" points="
  1784.16,134.269 1784.16,174.537 1873.88,174.537 1873.88,134.269 1784.16,134.269 
  "/>
<polygon clip-path="url(#clip4902)" points="
1829.02,92.4341 1784.16,92.4341 1873.88,92.4341 1829.02,92.4341 1829.02,134.269 1829.02,92.4341 
  " fill="#d3d3d3" fill-rule="evenodd" fill-opacity="1"/>
<polyline clip-path="url(#clip4902)" style="stroke:#000000; stroke-width:4; stroke-opacity:1; fill:none" points="
  1829.02,92.4341 1784.16,92.4341 1873.88,92.4341 1829.02,92.4341 1829.02,134.269 1829.02,92.4341 
  "/>
<polygon clip-path="url(#clip4902)" points="
1941.17,238.993 1896.31,238.993 1986.03,238.993 1941.17,238.993 1941.17,237.315 1941.17,238.993 
  " fill="#d3d3d3" fill-rule="evenodd" fill-opacity="1"/>
<polyline clip-path="url(#clip4902)" style="stroke:#000000; stroke-width:4; stroke-opacity:1; fill:none" points="
  1941.17,238.993 1896.31,238.993 1986.03,238.993 1941.17,238.993 1941.17,237.315 1941.17,238.993 
  "/>
<polygon clip-path="url(#clip4902)" points="
1896.31,237.315 1896.31,208.952 1986.03,208.952 1986.03,237.315 1896.31,237.315 1896.31,237.315 
  " fill="#d3d3d3" fill-rule="evenodd" fill-opacity="1"/>
<polyline clip-path="url(#clip4902)" style="stroke:#000000; stroke-width:4; stroke-opacity:1; fill:none" points="
  1896.31,237.315 1896.31,208.952 1986.03,208.952 1986.03,237.315 1896.31,237.315 
  "/>
<polygon clip-path="url(#clip4902)" points="
1896.31,191.799 1896.31,208.952 1986.03,208.952 1986.03,191.799 1896.31,191.799 1896.31,191.799 
  " fill="#d3d3d3" fill-rule="evenodd" fill-opacity="1"/>
<polyline clip-path="url(#clip4902)" style="stroke:#000000; stroke-width:4; stroke-opacity:1; fill:none" points="
  1896.31,191.799 1896.31,208.952 1986.03,208.952 1986.03,191.799 1896.31,191.799 
  "/>
<polygon clip-path="url(#clip4902)" points="
1941.17,166.594 1896.31,166.594 1986.03,166.594 1941.17,166.594 1941.17,191.799 1941.17,166.594 
  " fill="#d3d3d3" fill-rule="evenodd" fill-opacity="1"/>
<polyline clip-path="url(#clip4902)" style="stroke:#000000; stroke-width:4; stroke-opacity:1; fill:none" points="
  1941.17,166.594 1896.31,166.594 1986.03,166.594 1941.17,166.594 1941.17,191.799 1941.17,166.594 
  "/>
<polygon clip-path="url(#clip4902)" points="
2053.32,126.879 2008.46,126.879 2098.18,126.879 2053.32,126.879 2053.32,126.879 2053.32,126.879 
  " fill="#d3d3d3" fill-rule="evenodd" fill-opacity="1"/>
<polyline clip-path="url(#clip4902)" style="stroke:#000000; stroke-width:4; stroke-opacity:1; fill:none" points="
  2053.32,126.879 2008.46,126.879 2098.18,126.879 2053.32,126.879 
  "/>
<polygon clip-path="url(#clip4902)" points="
2008.46,126.879 2008.46,126.879 2098.18,126.879 2098.18,126.879 2008.46,126.879 2008.46,126.879 
  " fill="#d3d3d3" fill-rule="evenodd" fill-opacity="1"/>
<polyline clip-path="url(#clip4902)" style="stroke:#000000; stroke-width:4; stroke-opacity:1; fill:none" points="
  2008.46,126.879 2008.46,126.879 2098.18,126.879 2008.46,126.879 
  "/>
<polygon clip-path="url(#clip4902)" points="
2008.46,126.879 2008.46,126.879 2098.18,126.879 2098.18,126.879 2008.46,126.879 2008.46,126.879 
  " fill="#d3d3d3" fill-rule="evenodd" fill-opacity="1"/>
<polyline clip-path="url(#clip4902)" style="stroke:#000000; stroke-width:4; stroke-opacity:1; fill:none" points="
  2008.46,126.879 2008.46,126.879 2098.18,126.879 2008.46,126.879 
  "/>
<polygon clip-path="url(#clip4902)" points="
2053.32,126.879 2008.46,126.879 2098.18,126.879 2053.32,126.879 2053.32,126.879 2053.32,126.879 
  " fill="#d3d3d3" fill-rule="evenodd" fill-opacity="1"/>
<polyline clip-path="url(#clip4902)" style="stroke:#000000; stroke-width:4; stroke-opacity:1; fill:none" points="
  2053.32,126.879 2008.46,126.879 2098.18,126.879 2053.32,126.879 
  "/>
<polygon clip-path="url(#clip4902)" points="
2165.47,165.494 2120.61,165.494 2210.33,165.494 2165.47,165.494 2165.47,165.494 2165.47,165.494 
  " fill="#d3d3d3" fill-rule="evenodd" fill-opacity="1"/>
<polyline clip-path="url(#clip4902)" style="stroke:#000000; stroke-width:4; stroke-opacity:1; fill:none" points="
  2165.47,165.494 2120.61,165.494 2210.33,165.494 2165.47,165.494 
  "/>
<polygon clip-path="url(#clip4902)" points="
2120.61,165.494 2120.61,165.494 2210.33,165.494 2210.33,165.494 2120.61,165.494 2120.61,165.494 
  " fill="#d3d3d3" fill-rule="evenodd" fill-opacity="1"/>
<polyline clip-path="url(#clip4902)" style="stroke:#000000; stroke-width:4; stroke-opacity:1; fill:none" points="
  2120.61,165.494 2120.61,165.494 2210.33,165.494 2120.61,165.494 
  "/>
<polygon clip-path="url(#clip4902)" points="
2120.61,165.494 2120.61,165.494 2210.33,165.494 2210.33,165.494 2120.61,165.494 2120.61,165.494 
  " fill="#d3d3d3" fill-rule="evenodd" fill-opacity="1"/>
<polyline clip-path="url(#clip4902)" style="stroke:#000000; stroke-width:4; stroke-opacity:1; fill:none" points="
  2120.61,165.494 2120.61,165.494 2210.33,165.494 2120.61,165.494 
  "/>
<polygon clip-path="url(#clip4902)" points="
2165.47,165.494 2120.61,165.494 2210.33,165.494 2165.47,165.494 2165.47,165.494 2165.47,165.494 
  " fill="#d3d3d3" fill-rule="evenodd" fill-opacity="1"/>
<polyline clip-path="url(#clip4902)" style="stroke:#000000; stroke-width:4; stroke-opacity:1; fill:none" points="
  2165.47,165.494 2120.61,165.494 2210.33,165.494 2165.47,165.494 
  "/>
</svg>
