<?xml version="1.0" encoding="utf-8"?>
<!-- Generator: Adobe Illustrator 22.1.0, SVG Export Plug-In . SVG Version: 6.00 Build 0)  -->
<svg version="1.1" id="Layer_1" xmlns="http://www.w3.org/2000/svg" xmlns:xlink="http://www.w3.org/1999/xlink" x="0px" y="0px"
	 viewBox="0 0 600 400" style="enable-background:new 0 0 600 400;" xml:space="preserve">
<style type="text/css">
	.st0{fill:none;stroke:#000000;}
	.st1{font-family:'ArialMT';}
	.st2{font-size:21px;}
	.st3{font-size:16.5px;}
	.st4{fill:#377EB8;}
	.st5{fill:#E31A1C;}
	.st6{fill:#4DAF49;}
	.st7{fill:#999999;}
	.st8{font-size:12px;}
</style>
<line class="st0" x1="35.4" y1="372.4" x2="580.3" y2="372.4"/>
<line class="st0" x1="35.4" y1="372.4" x2="35.4" y2="31.5"/>
<text transform="matrix(1 0 0 1 216.8203 18.2998)" class="st1 st2">Kids, Breastfeeding</text>
<text transform="matrix(1 0 0 1 251.4707 397.5996)" class="st1 st3">PCo1 (14.02%)</text>
<text transform="matrix(6.123234e-17 -1 1 6.123234e-17 14.3999 257.7607)" class="st1 st3">PCo2 (11.22%)</text>
<circle cx="441.7" cy="84.7" r="3.5"/>
<circle class="st4" cx="441.7" cy="84.7" r="2.5"/>
<circle cx="548.1" cy="154.2" r="3.5"/>
<circle class="st4" cx="548.1" cy="154.2" r="2.5"/>
<circle cx="527.7" cy="134.3" r="3.5"/>
<circle class="st4" cx="527.7" cy="134.3" r="2.5"/>
<ellipse transform="matrix(0.1602 -0.9871 0.9871 0.1602 265.8194 642.3406)" cx="510.4" cy="165" rx="3.5" ry="3.5"/>
<ellipse transform="matrix(0.1602 -0.9871 0.9871 0.1602 265.8194 642.3406)" class="st5" cx="510.4" cy="165" rx="2.5" ry="2.5"/>
<circle cx="458.4" cy="81.4" r="3.5"/>
<circle class="st4" cx="458.4" cy="81.4" r="2.5"/>
<circle cx="434.7" cy="118.6" r="3.5"/>
<circle class="st5" cx="434.7" cy="118.6" r="2.5"/>
<circle cx="560.4" cy="213.5" r="3.5"/>
<circle class="st4" cx="560.4" cy="213.5" r="2.5"/>
<circle cx="457.1" cy="111.8" r="3.5"/>
<circle class="st4" cx="457.1" cy="111.8" r="2.5"/>
<circle cx="484.2" cy="77.4" r="3.5"/>
<circle class="st4" cx="484.2" cy="77.4" r="2.5"/>
<circle cx="547.5" cy="167.1" r="3.5"/>
<circle class="st4" cx="547.5" cy="167.1" r="2.5"/>
<circle cx="521.5" cy="159.5" r="3.5"/>
<circle class="st4" cx="521.5" cy="159.5" r="2.5"/>
<circle cx="469" cy="84.2" r="3.5"/>
<circle class="st4" cx="469" cy="84.2" r="2.5"/>
<circle cx="526" cy="165.8" r="3.5"/>
<circle class="st5" cx="526" cy="165.8" r="2.5"/>
<circle cx="528.6" cy="113.9" r="3.5"/>
<circle class="st5" cx="528.6" cy="113.9" r="2.5"/>
<circle cx="441.6" cy="143.3" r="3.5"/>
<circle class="st4" cx="441.6" cy="143.3" r="2.5"/>
<circle cx="504.6" cy="116.2" r="3.5"/>
<circle class="st4" cx="504.6" cy="116.2" r="2.5"/>
<circle cx="437.8" cy="96.3" r="3.5"/>
<circle class="st6" cx="437.8" cy="96.3" r="2.5"/>
<circle cx="506.1" cy="115.8" r="3.5"/>
<circle class="st4" cx="506.1" cy="115.8" r="2.5"/>
<circle cx="449" cy="112.5" r="3.5"/>
<circle class="st7" cx="449" cy="112.5" r="2.5"/>
<circle cx="438" cy="82.8" r="3.5"/>
<circle class="st5" cx="438" cy="82.8" r="2.5"/>
<circle cx="526.6" cy="119" r="3.5"/>
<circle class="st6" cx="526.6" cy="119" r="2.5"/>
<circle cx="526.8" cy="119.8" r="3.5"/>
<circle class="st4" cx="526.8" cy="119.8" r="2.5"/>
<circle cx="508.2" cy="121.8" r="3.5"/>
<circle class="st7" cx="508.2" cy="121.8" r="2.5"/>
<circle cx="494.5" cy="193.3" r="3.5"/>
<circle class="st4" cx="494.5" cy="193.3" r="2.5"/>
<circle cx="552.2" cy="142.4" r="3.5"/>
<circle class="st7" cx="552.2" cy="142.4" r="2.5"/>
<circle cx="450.5" cy="49.8" r="3.5"/>
<circle class="st4" cx="450.5" cy="49.8" r="2.5"/>
<circle cx="455.8" cy="114.8" r="3.5"/>
<circle class="st4" cx="455.8" cy="114.8" r="2.5"/>
<circle cx="521.2" cy="110.8" r="3.5"/>
<circle class="st4" cx="521.2" cy="110.8" r="2.5"/>
<circle cx="450.9" cy="164.5" r="3.5"/>
<circle class="st4" cx="450.9" cy="164.5" r="2.5"/>
<circle cx="528.7" cy="104" r="3.5"/>
<circle class="st5" cx="528.7" cy="104" r="2.5"/>
<circle cx="550" cy="165.5" r="3.5"/>
<circle class="st4" cx="550" cy="165.5" r="2.5"/>
<circle cx="392.3" cy="175.8" r="3.5"/>
<circle class="st4" cx="392.3" cy="175.8" r="2.5"/>
<circle cx="563.5" cy="179.7" r="3.5"/>
<circle class="st4" cx="563.5" cy="179.7" r="2.5"/>
<circle cx="492.3" cy="328.3" r="3.5"/>
<circle class="st4" cx="492.3" cy="328.3" r="2.5"/>
<circle cx="541.6" cy="250.5" r="3.5"/>
<circle class="st4" cx="541.6" cy="250.5" r="2.5"/>
<circle cx="453" cy="148.2" r="3.5"/>
<circle class="st4" cx="453" cy="148.2" r="2.5"/>
<circle cx="526.1" cy="122" r="3.5"/>
<circle class="st4" cx="526.1" cy="122" r="2.5"/>
<circle cx="481.8" cy="194.2" r="3.5"/>
<circle class="st4" cx="481.8" cy="194.2" r="2.5"/>
<circle cx="534.5" cy="252.4" r="3.5"/>
<circle class="st6" cx="534.5" cy="252.4" r="2.5"/>
<circle cx="490.5" cy="81.4" r="3.5"/>
<circle class="st4" cx="490.5" cy="81.4" r="2.5"/>
<circle cx="484.4" cy="88" r="3.5"/>
<circle class="st4" cx="484.4" cy="88" r="2.5"/>
<circle cx="485.9" cy="120.8" r="3.5"/>
<circle class="st4" cx="485.9" cy="120.8" r="2.5"/>
<circle cx="516" cy="141" r="3.5"/>
<circle class="st5" cx="516" cy="141" r="2.5"/>
<circle cx="539.6" cy="216.2" r="3.5"/>
<circle class="st4" cx="539.6" cy="216.2" r="2.5"/>
<circle cx="494.6" cy="156.8" r="3.5"/>
<circle class="st5" cx="494.6" cy="156.8" r="2.5"/>
<circle cx="432.3" cy="78.3" r="3.5"/>
<circle class="st5" cx="432.3" cy="78.3" r="2.5"/>
<circle cx="443.1" cy="103.3" r="3.5"/>
<circle class="st6" cx="443.1" cy="103.3" r="2.5"/>
<circle cx="436" cy="75.9" r="3.5"/>
<circle class="st4" cx="436" cy="75.9" r="2.5"/>
<circle cx="544.9" cy="207.2" r="3.5"/>
<circle class="st4" cx="544.9" cy="207.2" r="2.5"/>
<circle cx="483.9" cy="101.5" r="3.5"/>
<circle class="st4" cx="483.9" cy="101.5" r="2.5"/>
<circle cx="501.3" cy="126.5" r="3.5"/>
<circle class="st5" cx="501.3" cy="126.5" r="2.5"/>
<circle cx="389.9" cy="107.8" r="3.5"/>
<circle class="st5" cx="389.9" cy="107.8" r="2.5"/>
<circle cx="434.2" cy="77.2" r="3.5"/>
<circle class="st4" cx="434.2" cy="77.2" r="2.5"/>
<circle cx="476" cy="79.5" r="3.5"/>
<circle class="st4" cx="476" cy="79.5" r="2.5"/>
<circle cx="456.3" cy="328.8" r="3.5"/>
<circle class="st4" cx="456.3" cy="328.8" r="2.5"/>
<circle cx="495.2" cy="117.6" r="3.5"/>
<circle class="st4" cx="495.2" cy="117.6" r="2.5"/>
<circle cx="495.2" cy="97" r="3.5"/>
<circle class="st4" cx="495.2" cy="97" r="2.5"/>
<circle cx="493.8" cy="94.2" r="3.5"/>
<circle class="st4" cx="493.8" cy="94.2" r="2.5"/>
<circle cx="445.4" cy="57.4" r="3.5"/>
<circle class="st6" cx="445.4" cy="57.4" r="2.5"/>
<circle cx="381.3" cy="50.2" r="3.5"/>
<circle class="st5" cx="381.3" cy="50.2" r="2.5"/>
<circle cx="351.4" cy="163.7" r="3.5"/>
<circle class="st7" cx="351.4" cy="163.7" r="2.5"/>
<circle cx="464.3" cy="97.7" r="3.5"/>
<circle class="st7" cx="464.3" cy="97.7" r="2.5"/>
<circle cx="497.5" cy="132.2" r="3.5"/>
<circle class="st4" cx="497.5" cy="132.2" r="2.5"/>
<circle cx="444.5" cy="146.5" r="3.5"/>
<circle class="st4" cx="444.5" cy="146.5" r="2.5"/>
<circle cx="514.9" cy="158.8" r="3.5"/>
<circle class="st4" cx="514.9" cy="158.8" r="2.5"/>
<circle cx="401.1" cy="115.6" r="3.5"/>
<circle class="st7" cx="401.1" cy="115.6" r="2.5"/>
<circle cx="370.1" cy="45.8" r="3.5"/>
<circle class="st4" cx="370.1" cy="45.8" r="2.5"/>
<circle cx="522" cy="115.3" r="3.5"/>
<circle class="st6" cx="522" cy="115.3" r="2.5"/>
<circle cx="428.4" cy="143.3" r="3.5"/>
<circle class="st7" cx="428.4" cy="143.3" r="2.5"/>
<circle cx="453.3" cy="103.1" r="3.5"/>
<circle class="st4" cx="453.3" cy="103.1" r="2.5"/>
<circle cx="426.9" cy="68.2" r="3.5"/>
<circle class="st6" cx="426.9" cy="68.2" r="2.5"/>
<circle cx="462.7" cy="88.5" r="3.5"/>
<circle class="st4" cx="462.7" cy="88.5" r="2.5"/>
<circle cx="512.9" cy="145.3" r="3.5"/>
<circle class="st4" cx="512.9" cy="145.3" r="2.5"/>
<circle cx="288.3" cy="114.5" r="3.5"/>
<circle class="st4" cx="288.3" cy="114.5" r="2.5"/>
<circle cx="395" cy="139.4" r="3.5"/>
<circle class="st4" cx="395" cy="139.4" r="2.5"/>
<circle cx="393.4" cy="88.1" r="3.5"/>
<circle class="st4" cx="393.4" cy="88.1" r="2.5"/>
<circle cx="450.7" cy="76.1" r="3.5"/>
<circle class="st4" cx="450.7" cy="76.1" r="2.5"/>
<circle cx="411.6" cy="109.8" r="3.5"/>
<circle class="st5" cx="411.6" cy="109.8" r="2.5"/>
<circle cx="197.9" cy="67.6" r="3.5"/>
<circle class="st5" cx="197.9" cy="67.6" r="2.5"/>
<circle cx="494.9" cy="285.8" r="3.5"/>
<circle class="st4" cx="494.9" cy="285.8" r="2.5"/>
<circle cx="261.7" cy="75.1" r="3.5"/>
<circle class="st4" cx="261.7" cy="75.1" r="2.5"/>
<circle cx="296.4" cy="47.1" r="3.5"/>
<circle class="st5" cx="296.4" cy="47.1" r="2.5"/>
<circle cx="490.4" cy="290.6" r="3.5"/>
<circle class="st4" cx="490.4" cy="290.6" r="2.5"/>
<circle cx="436" cy="71.9" r="3.5"/>
<circle class="st4" cx="436" cy="71.9" r="2.5"/>
<circle cx="502.4" cy="122" r="3.5"/>
<circle class="st4" cx="502.4" cy="122" r="2.5"/>
<circle cx="519.8" cy="233.8" r="3.5"/>
<circle class="st6" cx="519.8" cy="233.8" r="2.5"/>
<circle cx="476.4" cy="320.4" r="3.5"/>
<circle class="st5" cx="476.4" cy="320.4" r="2.5"/>
<circle cx="461.3" cy="115.7" r="3.5"/>
<circle class="st5" cx="461.3" cy="115.7" r="2.5"/>
<circle cx="514.2" cy="104" r="3.5"/>
<circle class="st5" cx="514.2" cy="104" r="2.5"/>
<circle cx="356.8" cy="131.9" r="3.5"/>
<circle class="st7" cx="356.8" cy="131.9" r="2.5"/>
<circle cx="495.2" cy="109.3" r="3.5"/>
<circle class="st4" cx="495.2" cy="109.3" r="2.5"/>
<circle cx="482.4" cy="108.1" r="3.5"/>
<circle class="st4" cx="482.4" cy="108.1" r="2.5"/>
<circle cx="198.5" cy="85.8" r="3.5"/>
<circle class="st6" cx="198.5" cy="85.8" r="2.5"/>
<circle cx="414.5" cy="334.3" r="3.5"/>
<circle class="st6" cx="414.5" cy="334.3" r="2.5"/>
<circle cx="469.5" cy="310.2" r="3.5"/>
<circle class="st5" cx="469.5" cy="310.2" r="2.5"/>
<circle cx="445.1" cy="84.1" r="3.5"/>
<circle class="st4" cx="445.1" cy="84.1" r="2.5"/>
<circle cx="381.7" cy="132.4" r="3.5"/>
<circle class="st4" cx="381.7" cy="132.4" r="2.5"/>
<circle cx="451.6" cy="72.3" r="3.5"/>
<circle class="st6" cx="451.6" cy="72.3" r="2.5"/>
<circle cx="455.1" cy="119.6" r="3.5"/>
<circle class="st4" cx="455.1" cy="119.6" r="2.5"/>
<circle cx="525.4" cy="267.6" r="3.5"/>
<circle class="st5" cx="525.4" cy="267.6" r="2.5"/>
<circle cx="111.4" cy="166.1" r="3.5"/>
<circle class="st4" cx="111.4" cy="166.1" r="2.5"/>
<circle cx="483.5" cy="81.5" r="3.5"/>
<circle class="st4" cx="483.5" cy="81.5" r="2.5"/>
<circle cx="540.4" cy="133.7" r="3.5"/>
<circle class="st7" cx="540.4" cy="133.7" r="2.5"/>
<circle cx="503.7" cy="213.3" r="3.5"/>
<circle class="st6" cx="503.7" cy="213.3" r="2.5"/>
<circle cx="264.1" cy="170.9" r="3.5"/>
<circle class="st4" cx="264.1" cy="170.9" r="2.5"/>
<circle cx="266.2" cy="67" r="3.5"/>
<circle class="st6" cx="266.2" cy="67" r="2.5"/>
<circle cx="472" cy="131.1" r="3.5"/>
<circle class="st5" cx="472" cy="131.1" r="2.5"/>
<circle cx="427.3" cy="129.2" r="3.5"/>
<circle class="st5" cx="427.3" cy="129.2" r="2.5"/>
<circle cx="437.2" cy="82.4" r="3.5"/>
<circle class="st7" cx="437.2" cy="82.4" r="2.5"/>
<circle cx="391.7" cy="76.4" r="3.5"/>
<circle class="st7" cx="391.7" cy="76.4" r="2.5"/>
<circle cx="441.7" cy="71.2" r="3.5"/>
<circle class="st4" cx="441.7" cy="71.2" r="2.5"/>
<circle cx="488.1" cy="99" r="3.5"/>
<circle class="st4" cx="488.1" cy="99" r="2.5"/>
<circle cx="411.8" cy="67" r="3.5"/>
<circle class="st5" cx="411.8" cy="67" r="2.5"/>
<circle cx="468.1" cy="77.6" r="3.5"/>
<circle class="st4" cx="468.1" cy="77.6" r="2.5"/>
<circle cx="515.6" cy="79.4" r="3.5"/>
<circle class="st4" cx="515.6" cy="79.4" r="2.5"/>
<circle cx="477.8" cy="97.4" r="3.5"/>
<circle class="st6" cx="477.8" cy="97.4" r="2.5"/>
<circle cx="433" cy="316.9" r="3.5"/>
<circle class="st6" cx="433" cy="316.9" r="2.5"/>
<circle cx="441.9" cy="111" r="3.5"/>
<circle class="st4" cx="441.9" cy="111" r="2.5"/>
<circle cx="362.1" cy="58.4" r="3.5"/>
<circle class="st4" cx="362.1" cy="58.4" r="2.5"/>
<circle cx="392.6" cy="133.6" r="3.5"/>
<circle class="st6" cx="392.6" cy="133.6" r="2.5"/>
<circle cx="379" cy="109.9" r="3.5"/>
<circle class="st4" cx="379" cy="109.9" r="2.5"/>
<circle cx="482.2" cy="140.2" r="3.5"/>
<circle class="st4" cx="482.2" cy="140.2" r="2.5"/>
<circle cx="510.2" cy="195.7" r="3.5"/>
<circle class="st5" cx="510.2" cy="195.7" r="2.5"/>
<circle cx="138.6" cy="180.4" r="3.5"/>
<circle class="st5" cx="138.6" cy="180.4" r="2.5"/>
<circle cx="501.6" cy="113.8" r="3.5"/>
<circle class="st5" cx="501.6" cy="113.8" r="2.5"/>
<circle cx="527.6" cy="90.3" r="3.5"/>
<circle class="st5" cx="527.6" cy="90.3" r="2.5"/>
<circle cx="113.2" cy="163.2" r="3.5"/>
<circle class="st5" cx="113.2" cy="163.2" r="2.5"/>
<circle cx="457" cy="53.1" r="3.5"/>
<circle class="st4" cx="457" cy="53.1" r="2.5"/>
<circle cx="126.8" cy="126.7" r="3.5"/>
<circle class="st4" cx="126.8" cy="126.7" r="2.5"/>
<circle cx="137.5" cy="191" r="3.5"/>
<circle class="st7" cx="137.5" cy="191" r="2.5"/>
<circle cx="448.5" cy="135.9" r="3.5"/>
<circle class="st5" cx="448.5" cy="135.9" r="2.5"/>
<circle cx="474.1" cy="118.3" r="3.5"/>
<circle class="st4" cx="474.1" cy="118.3" r="2.5"/>
<circle cx="89.1" cy="186.3" r="3.5"/>
<circle class="st4" cx="89.1" cy="186.3" r="2.5"/>
<circle cx="495" cy="72.5" r="3.5"/>
<circle class="st4" cx="495" cy="72.5" r="2.5"/>
<circle cx="445" cy="53.2" r="3.5"/>
<circle class="st4" cx="445" cy="53.2" r="2.5"/>
<circle cx="87.4" cy="208.8" r="3.5"/>
<circle class="st5" cx="87.4" cy="208.8" r="2.5"/>
<circle cx="496.6" cy="75.8" r="3.5"/>
<circle class="st4" cx="496.6" cy="75.8" r="2.5"/>
<circle cx="466.3" cy="315.7" r="3.5"/>
<circle class="st4" cx="466.3" cy="315.7" r="2.5"/>
<circle cx="193" cy="170.6" r="3.5"/>
<circle class="st7" cx="193" cy="170.6" r="2.5"/>
<circle cx="517.5" cy="174.4" r="3.5"/>
<circle class="st4" cx="517.5" cy="174.4" r="2.5"/>
<circle cx="256.6" cy="114.6" r="3.5"/>
<circle class="st6" cx="256.6" cy="114.6" r="2.5"/>
<circle cx="115" cy="206" r="3.5"/>
<circle class="st4" cx="115" cy="206" r="2.5"/>
<circle cx="465.2" cy="227.1" r="3.5"/>
<circle class="st4" cx="465.2" cy="227.1" r="2.5"/>
<circle cx="370.8" cy="71.2" r="3.5"/>
<circle class="st4" cx="370.8" cy="71.2" r="2.5"/>
<circle cx="471.9" cy="105.4" r="3.5"/>
<circle class="st4" cx="471.9" cy="105.4" r="2.5"/>
<circle cx="461.7" cy="88.5" r="3.5"/>
<circle class="st4" cx="461.7" cy="88.5" r="2.5"/>
<circle cx="413.5" cy="160.2" r="3.5"/>
<circle class="st7" cx="413.5" cy="160.2" r="2.5"/>
<circle cx="80.4" cy="197.9" r="3.5"/>
<circle class="st7" cx="80.4" cy="197.9" r="2.5"/>
<circle cx="376.4" cy="99.9" r="3.5"/>
<circle class="st4" cx="376.4" cy="99.9" r="2.5"/>
<circle cx="521.6" cy="140.8" r="3.5"/>
<circle class="st5" cx="521.6" cy="140.8" r="2.5"/>
<circle cx="352.4" cy="126.8" r="3.5"/>
<circle class="st5" cx="352.4" cy="126.8" r="2.5"/>
<circle cx="139.8" cy="123.8" r="3.5"/>
<circle class="st6" cx="139.8" cy="123.8" r="2.5"/>
<circle cx="524.5" cy="87.2" r="3.5"/>
<circle class="st4" cx="524.5" cy="87.2" r="2.5"/>
<circle cx="182.5" cy="199.5" r="3.5"/>
<circle class="st4" cx="182.5" cy="199.5" r="2.5"/>
<circle cx="536.9" cy="132.3" r="3.5"/>
<circle class="st4" cx="536.9" cy="132.3" r="2.5"/>
<circle cx="450.5" cy="99.8" r="3.5"/>
<circle class="st6" cx="450.5" cy="99.8" r="2.5"/>
<ellipse transform="matrix(0.1602 -0.9871 0.9871 0.1602 323.9223 590.4812)" cx="509" cy="104.9" rx="3.5" ry="3.5"/>
<circle class="st4" cx="509" cy="104.9" r="2.5"/>
<circle cx="403.4" cy="56.1" r="3.5"/>
<circle class="st7" cx="403.4" cy="56.1" r="2.5"/>
<circle cx="514.9" cy="116.2" r="3.5"/>
<circle class="st4" cx="514.9" cy="116.2" r="2.5"/>
<circle cx="439.2" cy="56.1" r="3.5"/>
<circle class="st6" cx="439.2" cy="56.1" r="2.5"/>
<circle cx="174.1" cy="101" r="3.5"/>
<circle class="st5" cx="174.1" cy="101" r="2.5"/>
<circle cx="510" cy="254.6" r="3.5"/>
<circle class="st4" cx="510" cy="254.6" r="2.5"/>
<circle cx="239.7" cy="95.3" r="3.5"/>
<circle class="st7" cx="239.7" cy="95.3" r="2.5"/>
<circle cx="277.1" cy="45.7" r="3.5"/>
<circle class="st4" cx="277.1" cy="45.7" r="2.5"/>
<circle cx="93.3" cy="182.8" r="3.5"/>
<circle class="st5" cx="93.3" cy="182.8" r="2.5"/>
<circle cx="364.4" cy="76.1" r="3.5"/>
<circle class="st5" cx="364.4" cy="76.1" r="2.5"/>
<circle cx="256.9" cy="148.6" r="3.5"/>
<circle class="st6" cx="256.9" cy="148.6" r="2.5"/>
<circle cx="309.9" cy="301.7" r="3.5"/>
<circle class="st7" cx="309.9" cy="301.7" r="2.5"/>
<circle cx="506.7" cy="114.6" r="3.5"/>
<circle class="st5" cx="506.7" cy="114.6" r="2.5"/>
<circle cx="412.4" cy="102.9" r="3.5"/>
<circle class="st4" cx="412.4" cy="102.9" r="2.5"/>
<circle cx="67.7" cy="201.1" r="3.5"/>
<circle class="st4" cx="67.7" cy="201.1" r="2.5"/>
<circle cx="514.6" cy="135.3" r="3.5"/>
<circle class="st4" cx="514.6" cy="135.3" r="2.5"/>
<circle cx="213.4" cy="170.6" r="3.5"/>
<circle class="st4" cx="213.4" cy="170.6" r="2.5"/>
<circle cx="317.4" cy="95.7" r="3.5"/>
<circle class="st4" cx="317.4" cy="95.7" r="2.5"/>
<circle cx="168.5" cy="116.1" r="3.5"/>
<circle class="st5" cx="168.5" cy="116.1" r="2.5"/>
<circle cx="410.2" cy="104.2" r="3.5"/>
<circle class="st4" cx="410.2" cy="104.2" r="2.5"/>
<circle cx="397" cy="85.8" r="3.5"/>
<circle class="st4" cx="397" cy="85.8" r="2.5"/>
<circle cx="395.2" cy="53.6" r="3.5"/>
<circle class="st5" cx="395.2" cy="53.6" r="2.5"/>
<circle cx="154.3" cy="186.9" r="3.5"/>
<circle class="st6" cx="154.3" cy="186.9" r="2.5"/>
<circle cx="499.8" cy="70.5" r="3.5"/>
<circle class="st5" cx="499.8" cy="70.5" r="2.5"/>
<circle cx="360.9" cy="56.2" r="3.5"/>
<circle class="st7" cx="360.9" cy="56.2" r="2.5"/>
<circle cx="505.9" cy="147.2" r="3.5"/>
<circle class="st7" cx="505.9" cy="147.2" r="2.5"/>
<circle cx="80.6" cy="176.4" r="3.5"/>
<circle class="st5" cx="80.6" cy="176.4" r="2.5"/>
<circle cx="87.1" cy="181.3" r="3.5"/>
<circle class="st4" cx="87.1" cy="181.3" r="2.5"/>
<circle cx="499.4" cy="145.1" r="3.5"/>
<circle class="st4" cx="499.4" cy="145.1" r="2.5"/>
<circle cx="527.7" cy="166.3" r="3.5"/>
<circle class="st7" cx="527.7" cy="166.3" r="2.5"/>
<circle cx="505.3" cy="217.1" r="3.5"/>
<circle class="st4" cx="505.3" cy="217.1" r="2.5"/>
<circle cx="540.5" cy="104.8" r="3.5"/>
<circle class="st5" cx="540.5" cy="104.8" r="2.5"/>
<ellipse transform="matrix(0.1602 -0.9871 0.9871 0.1602 348.1878 570.2576)" cx="509.2" cy="80.5" rx="3.5" ry="3.5"/>
<circle class="st7" cx="509.2" cy="80.5" r="2.5"/>
<circle cx="440.1" cy="299.8" r="3.5"/>
<circle class="st4" cx="440.1" cy="299.8" r="2.5"/>
<circle cx="139.7" cy="184.8" r="3.5"/>
<circle class="st4" cx="139.7" cy="184.8" r="2.5"/>
<circle cx="433.3" cy="67" r="3.5"/>
<circle class="st4" cx="433.3" cy="67" r="2.5"/>
<circle cx="444.6" cy="65.1" r="3.5"/>
<circle class="st4" cx="444.6" cy="65.1" r="2.5"/>
<circle cx="171.1" cy="178.5" r="3.5"/>
<circle class="st7" cx="171.1" cy="178.5" r="2.5"/>
<circle cx="503.4" cy="85.6" r="3.5"/>
<circle class="st4" cx="503.4" cy="85.6" r="2.5"/>
<circle cx="427.4" cy="299.9" r="3.5"/>
<circle class="st4" cx="427.4" cy="299.9" r="2.5"/>
<circle cx="470" cy="91.5" r="3.5"/>
<circle class="st7" cx="470" cy="91.5" r="2.5"/>
<circle cx="459.9" cy="101.6" r="3.5"/>
<circle class="st7" cx="459.9" cy="101.6" r="2.5"/>
<circle cx="420.8" cy="142.5" r="3.5"/>
<circle class="st4" cx="420.8" cy="142.5" r="2.5"/>
<circle cx="454.8" cy="108.1" r="3.5"/>
<circle class="st4" cx="454.8" cy="108.1" r="2.5"/>
<circle cx="487.7" cy="214.5" r="3.5"/>
<circle class="st4" cx="487.7" cy="214.5" r="2.5"/>
<circle cx="262.5" cy="117.3" r="3.5"/>
<circle class="st4" cx="262.5" cy="117.3" r="2.5"/>
<circle cx="309.8" cy="61.6" r="3.5"/>
<circle class="st4" cx="309.8" cy="61.6" r="2.5"/>
<circle cx="382.4" cy="91.3" r="3.5"/>
<circle class="st4" cx="382.4" cy="91.3" r="2.5"/>
<circle cx="417.4" cy="46" r="3.5"/>
<circle class="st7" cx="417.4" cy="46" r="2.5"/>
<circle cx="490.3" cy="76.8" r="3.5"/>
<circle class="st7" cx="490.3" cy="76.8" r="2.5"/>
<circle cx="500.5" cy="128.6" r="3.5"/>
<circle class="st4" cx="500.5" cy="128.6" r="2.5"/>
<circle cx="487.1" cy="133.7" r="3.5"/>
<circle class="st4" cx="487.1" cy="133.7" r="2.5"/>
<circle cx="81.9" cy="186.8" r="3.5"/>
<circle class="st5" cx="81.9" cy="186.8" r="2.5"/>
<circle cx="136" cy="129.2" r="3.5"/>
<circle class="st4" cx="136" cy="129.2" r="2.5"/>
<circle cx="80" cy="183.9" r="3.5"/>
<circle class="st4" cx="80" cy="183.9" r="2.5"/>
<circle cx="458.3" cy="124.7" r="3.5"/>
<circle class="st4" cx="458.3" cy="124.7" r="2.5"/>
<circle cx="190.1" cy="166.3" r="3.5"/>
<circle class="st4" cx="190.1" cy="166.3" r="2.5"/>
<circle cx="250" cy="151.2" r="3.5"/>
<circle class="st4" cx="250" cy="151.2" r="2.5"/>
<circle cx="144.5" cy="159.1" r="3.5"/>
<circle class="st4" cx="144.5" cy="159.1" r="2.5"/>
<circle cx="307.5" cy="78.8" r="3.5"/>
<circle class="st4" cx="307.5" cy="78.8" r="2.5"/>
<circle cx="378.8" cy="174.2" r="3.5"/>
<circle class="st4" cx="378.8" cy="174.2" r="2.5"/>
<circle cx="50.9" cy="178.2" r="3.5"/>
<circle class="st4" cx="50.9" cy="178.2" r="2.5"/>
<circle cx="176.5" cy="124.8" r="3.5"/>
<circle class="st4" cx="176.5" cy="124.8" r="2.5"/>
<circle cx="313.9" cy="96.8" r="3.5"/>
<circle class="st7" cx="313.9" cy="96.8" r="2.5"/>
<circle cx="509.2" cy="120" r="3.5"/>
<circle class="st5" cx="509.2" cy="120" r="2.5"/>
<circle cx="540.7" cy="133.7" r="3.5"/>
<circle class="st7" cx="540.7" cy="133.7" r="2.5"/>
<circle cx="494.6" cy="93.5" r="3.5"/>
<circle class="st4" cx="494.6" cy="93.5" r="2.5"/>
<circle cx="387.5" cy="98.2" r="3.5"/>
<circle class="st7" cx="387.5" cy="98.2" r="2.5"/>
<circle cx="549.5" cy="174.3" r="3.5"/>
<circle class="st7" cx="549.5" cy="174.3" r="2.5"/>
<circle cx="430.7" cy="98.4" r="3.5"/>
<circle class="st7" cx="430.7" cy="98.4" r="2.5"/>
<circle cx="377.8" cy="56.1" r="3.5"/>
<circle class="st7" cx="377.8" cy="56.1" r="2.5"/>
<circle cx="406.5" cy="86.5" r="3.5"/>
<circle class="st4" cx="406.5" cy="86.5" r="2.5"/>
<circle cx="367.9" cy="221.9" r="3.5"/>
<circle class="st7" cx="367.9" cy="221.9" r="2.5"/>
<circle cx="420.3" cy="336" r="3.5"/>
<circle class="st7" cx="420.3" cy="336" r="2.5"/>
<circle cx="451.3" cy="226.7" r="3.5"/>
<circle class="st7" cx="451.3" cy="226.7" r="2.5"/>
<circle cx="531.4" cy="165.1" r="3.5"/>
<circle class="st7" cx="531.4" cy="165.1" r="2.5"/>
<circle cx="485" cy="68.1" r="3.5"/>
<circle class="st6" cx="485" cy="68.1" r="2.5"/>
<circle cx="520.7" cy="127.6" r="3.5"/>
<circle class="st7" cx="520.7" cy="127.6" r="2.5"/>
<circle cx="499.9" cy="115.1" r="3.5"/>
<circle class="st7" cx="499.9" cy="115.1" r="2.5"/>
<circle cx="507.1" cy="120.8" r="3.5"/>
<circle class="st7" cx="507.1" cy="120.8" r="2.5"/>
<circle cx="456.9" cy="324.6" r="3.5"/>
<circle class="st4" cx="456.9" cy="324.6" r="2.5"/>
<circle cx="507.1" cy="95.1" r="3.5"/>
<circle class="st7" cx="507.1" cy="95.1" r="2.5"/>
<circle cx="463.4" cy="102.7" r="3.5"/>
<circle class="st7" cx="463.4" cy="102.7" r="2.5"/>
<circle cx="476.5" cy="106.7" r="3.5"/>
<circle class="st7" cx="476.5" cy="106.7" r="2.5"/>
<circle cx="372.5" cy="101.8" r="3.5"/>
<circle class="st4" cx="372.5" cy="101.8" r="2.5"/>
<circle cx="508.1" cy="124.1" r="3.5"/>
<circle class="st7" cx="508.1" cy="124.1" r="2.5"/>
<circle cx="293.3" cy="51.7" r="3.5"/>
<circle class="st7" cx="293.3" cy="51.7" r="2.5"/>
<circle cx="421.7" cy="116.5" r="3.5"/>
<circle class="st7" cx="421.7" cy="116.5" r="2.5"/>
<circle cx="404.9" cy="69.1" r="3.5"/>
<circle class="st7" cx="404.9" cy="69.1" r="2.5"/>
<circle cx="496.2" cy="111.8" r="3.5"/>
<circle class="st7" cx="496.2" cy="111.8" r="2.5"/>
<circle cx="409.8" cy="73.5" r="3.5"/>
<circle class="st7" cx="409.8" cy="73.5" r="2.5"/>
<circle cx="425" cy="65.2" r="3.5"/>
<circle class="st7" cx="425" cy="65.2" r="2.5"/>
<circle cx="470.4" cy="323" r="3.5"/>
<circle class="st7" cx="470.4" cy="323" r="2.5"/>
<circle cx="486.1" cy="257.5" r="3.5"/>
<circle class="st6" cx="486.1" cy="257.5" r="2.5"/>
<circle cx="462.8" cy="303.2" r="3.5"/>
<circle class="st7" cx="462.8" cy="303.2" r="2.5"/>
<circle cx="258.3" cy="146.1" r="3.5"/>
<circle class="st7" cx="258.3" cy="146.1" r="2.5"/>
<circle cx="429.2" cy="89.4" r="3.5"/>
<circle class="st7" cx="429.2" cy="89.4" r="2.5"/>
<circle cx="466.4" cy="254.3" r="3.5"/>
<circle class="st7" cx="466.4" cy="254.3" r="2.5"/>
<circle cx="348.9" cy="174.6" r="3.5"/>
<circle class="st7" cx="348.9" cy="174.6" r="2.5"/>
<circle cx="511.6" cy="244.2" r="3.5"/>
<circle class="st7" cx="511.6" cy="244.2" r="2.5"/>
<circle cx="470.3" cy="139" r="3.5"/>
<circle class="st7" cx="470.3" cy="139" r="2.5"/>
<circle cx="539" cy="114.7" r="3.5"/>
<circle class="st7" cx="539" cy="114.7" r="2.5"/>
<circle cx="493.2" cy="288.2" r="3.5"/>
<circle class="st7" cx="493.2" cy="288.2" r="2.5"/>
<circle cx="449.9" cy="278.6" r="3.5"/>
<circle class="st7" cx="449.9" cy="278.6" r="2.5"/>
<circle cx="400.1" cy="339.7" r="3.5"/>
<circle class="st7" cx="400.1" cy="339.7" r="2.5"/>
<circle cx="300.7" cy="362.8" r="3.5"/>
<circle class="st7" cx="300.7" cy="362.8" r="2.5"/>
<circle cx="376.6" cy="305.4" r="3.5"/>
<circle class="st7" cx="376.6" cy="305.4" r="2.5"/>
<circle cx="453" cy="119.6" r="3.5"/>
<circle class="st7" cx="453" cy="119.6" r="2.5"/>
<circle cx="515" cy="158.5" r="3.5"/>
<circle class="st7" cx="515" cy="158.5" r="2.5"/>
<circle cx="481.1" cy="152.6" r="3.5"/>
<circle class="st7" cx="481.1" cy="152.6" r="2.5"/>
<circle cx="396.9" cy="169.3" r="3.5"/>
<circle class="st7" cx="396.9" cy="169.3" r="2.5"/>
<circle cx="537.6" cy="137.2" r="3.5"/>
<circle class="st7" cx="537.6" cy="137.2" r="2.5"/>
<circle cx="488.7" cy="112.1" r="3.5"/>
<circle class="st4" cx="488.7" cy="112.1" r="2.5"/>
<circle cx="290" cy="85" r="3.5"/>
<circle class="st5" cx="290" cy="85" r="2.5"/>
<circle cx="444.7" cy="91.8" r="3.5"/>
<circle class="st7" cx="444.7" cy="91.8" r="2.5"/>
<circle cx="489.3" cy="173.8" r="3.5"/>
<circle class="st7" cx="489.3" cy="173.8" r="2.5"/>
<circle cx="269.1" cy="50.9" r="3.5"/>
<circle class="st7" cx="269.1" cy="50.9" r="2.5"/>
<circle cx="261.8" cy="152.6" r="3.5"/>
<circle class="st7" cx="261.8" cy="152.6" r="2.5"/>
<circle cx="501" cy="140.6" r="3.5"/>
<circle class="st7" cx="501" cy="140.6" r="2.5"/>
<circle cx="415" cy="41.1" r="3.5"/>
<circle class="st5" cx="415" cy="41.1" r="2.5"/>
<circle cx="393.7" cy="142.6" r="3.5"/>
<circle class="st7" cx="393.7" cy="142.6" r="2.5"/>
<circle cx="522" cy="295.1" r="3.5"/>
<circle class="st7" cx="522" cy="295.1" r="2.5"/>
<circle cx="472.6" cy="104.8" r="3.5"/>
<circle class="st5" cx="472.6" cy="104.8" r="2.5"/>
<circle cx="388.6" cy="114.8" r="3.5"/>
<circle class="st7" cx="388.6" cy="114.8" r="2.5"/>
<circle cx="222.8" cy="148.8" r="3.5"/>
<circle class="st7" cx="222.8" cy="148.8" r="2.5"/>
<circle cx="488.3" cy="193.3" r="3.5"/>
<circle class="st7" cx="488.3" cy="193.3" r="2.5"/>
<circle cx="542.9" cy="113.8" r="3.5"/>
<circle class="st7" cx="542.9" cy="113.8" r="2.5"/>
<circle cx="457.3" cy="306.1" r="3.5"/>
<circle class="st7" cx="457.3" cy="306.1" r="2.5"/>
<circle cx="496.3" cy="105" r="3.5"/>
<circle class="st7" cx="496.3" cy="105" r="2.5"/>
<circle cx="296.5" cy="43.4" r="3.5"/>
<circle class="st7" cx="296.5" cy="43.4" r="2.5"/>
<circle cx="512.5" cy="290" r="3.5"/>
<circle class="st7" cx="512.5" cy="290" r="2.5"/>
<circle cx="518.5" cy="164.7" r="3.5"/>
<circle class="st7" cx="518.5" cy="164.7" r="2.5"/>
<circle cx="412.8" cy="174.3" r="3.5"/>
<circle class="st7" cx="412.8" cy="174.3" r="2.5"/>
<ellipse transform="matrix(0.1602 -0.9871 0.9871 0.1602 336.7207 583.4294)" cx="511.2" cy="93.8" rx="3.5" ry="3.5"/>
<ellipse transform="matrix(0.1602 -0.9871 0.9871 0.1602 336.7206 583.4294)" class="st7" cx="511.2" cy="93.8" rx="2.5" ry="2.5"/>
<circle cx="464.7" cy="59.2" r="3.5"/>
<circle class="st7" cx="464.7" cy="59.2" r="2.5"/>
<circle cx="496.3" cy="78.6" r="3.5"/>
<circle class="st7" cx="496.3" cy="78.6" r="2.5"/>
<circle cx="315.9" cy="90" r="3.5"/>
<circle class="st7" cx="315.9" cy="90" r="2.5"/>
<circle cx="422.6" cy="105.8" r="3.5"/>
<circle class="st7" cx="422.6" cy="105.8" r="2.5"/>
<circle cx="452.8" cy="66.3" r="3.5"/>
<circle class="st7" cx="452.8" cy="66.3" r="2.5"/>
<circle cx="490.4" cy="281" r="3.5"/>
<circle class="st7" cx="490.4" cy="281" r="2.5"/>
<circle cx="470.6" cy="104.2" r="3.5"/>
<circle class="st7" cx="470.6" cy="104.2" r="2.5"/>
<circle cx="564.9" cy="193.2" r="3.5"/>
<circle class="st7" cx="564.9" cy="193.2" r="2.5"/>
<circle cx="523.4" cy="163.7" r="3.5"/>
<circle class="st7" cx="523.4" cy="163.7" r="2.5"/>
<circle cx="451" cy="103.1" r="3.5"/>
<circle class="st7" cx="451" cy="103.1" r="2.5"/>
<circle cx="455.8" cy="335.6" r="3.5"/>
<circle class="st7" cx="455.8" cy="335.6" r="2.5"/>
<circle cx="433.4" cy="280.9" r="3.5"/>
<circle class="st7" cx="433.4" cy="280.9" r="2.5"/>
<circle cx="497.3" cy="306.2" r="3.5"/>
<circle class="st7" cx="497.3" cy="306.2" r="2.5"/>
<circle cx="541.9" cy="123.5" r="3.5"/>
<circle class="st7" cx="541.9" cy="123.5" r="2.5"/>
<circle cx="378.2" cy="129.2" r="3.5"/>
<circle class="st7" cx="378.2" cy="129.2" r="2.5"/>
<circle cx="473.1" cy="306.5" r="3.5"/>
<circle class="st7" cx="473.1" cy="306.5" r="2.5"/>
<circle cx="553.8" cy="120.7" r="3.5"/>
<circle class="st7" cx="553.8" cy="120.7" r="2.5"/>
<circle cx="519.7" cy="115.6" r="3.5"/>
<circle class="st7" cx="519.7" cy="115.6" r="2.5"/>
<circle cx="438.2" cy="126.8" r="3.5"/>
<circle class="st7" cx="438.2" cy="126.8" r="2.5"/>
<circle cx="345.8" cy="99.5" r="3.5"/>
<circle class="st7" cx="345.8" cy="99.5" r="2.5"/>
<circle cx="494.4" cy="94.9" r="3.5"/>
<circle class="st7" cx="494.4" cy="94.9" r="2.5"/>
<circle cx="467.6" cy="103.7" r="3.5"/>
<circle class="st7" cx="467.6" cy="103.7" r="2.5"/>
<circle cx="457.1" cy="128.2" r="3.5"/>
<circle class="st7" cx="457.1" cy="128.2" r="2.5"/>
<circle cx="529" cy="120" r="3.5"/>
<circle class="st7" cx="529" cy="120" r="2.5"/>
<polyline class="st0" points="53.4,336.4 173.6,336.4 173.6,260.8 53.4,260.8 53.4,336.4 "/>
<circle cx="80.4" cy="276" r="6.2"/>
<circle class="st4" cx="80.4" cy="276" r="5.2"/>
<text transform="matrix(1 0 0 1 101.4331 280.335)" class="st1 st8">breastfed</text>
<circle cx="80.4" cy="291.1" r="6.2"/>
<circle class="st6" cx="80.4" cy="291.1" r="5.2"/>
<text transform="matrix(1 0 0 1 101.4331 295.4551)" class="st1 st8">formula fed</text>
<circle cx="80.4" cy="306.2" r="6.2"/>
<circle class="st5" cx="80.4" cy="306.2" r="5.2"/>
<text transform="matrix(1 0 0 1 101.4331 310.5752)" class="st1 st8">both</text>
<circle cx="80.4" cy="321.3" r="6.2"/>
<circle class="st7" cx="80.4" cy="321.3" r="5.2"/>
<text transform="matrix(1 0 0 1 101.4331 325.6948)" class="st1 st8">missing</text>
</svg>
