<?xml version="1.0" encoding="utf-8"?>
<svg xmlns="http://www.w3.org/2000/svg" xmlns:xlink="http://www.w3.org/1999/xlink" width="600" height="400" viewBox="0 0 2400 1600">
<defs>
  <clipPath id="clip7300">
    <rect x="0" y="0" width="2400" height="1600"/>
  </clipPath>
</defs>
<polygon clip-path="url(#clip7300)" points="
0,1600 2400,1600 2400,0 0,0 
  " fill="#ffffff" fill-rule="evenodd" fill-opacity="1"/>
<defs>
  <clipPath id="clip7301">
    <rect x="480" y="0" width="1681" height="1600"/>
  </clipPath>
</defs>
<polygon clip-path="url(#clip7300)" points="
183.556,1448.09 2352.76,1448.09 2352.76,47.2441 183.556,47.2441 
  " fill="#ffffff" fill-rule="evenodd" fill-opacity="1"/>
<defs>
  <clipPath id="clip7302">
    <rect x="183" y="47" width="2170" height="1402"/>
  </clipPath>
</defs>
<polyline clip-path="url(#clip7302)" style="stroke:#000000; stroke-width:2; stroke-opacity:0.1; fill:none" points="
  304.265,1448.09 304.265,47.2441 
  "/>
<polyline clip-path="url(#clip7302)" style="stroke:#000000; stroke-width:2; stroke-opacity:0.1; fill:none" points="
  600.847,1448.09 600.847,47.2441 
  "/>
<polyline clip-path="url(#clip7302)" style="stroke:#000000; stroke-width:2; stroke-opacity:0.1; fill:none" points="
  897.428,1448.09 897.428,47.2441 
  "/>
<polyline clip-path="url(#clip7302)" style="stroke:#000000; stroke-width:2; stroke-opacity:0.1; fill:none" points="
  1194.01,1448.09 1194.01,47.2441 
  "/>
<polyline clip-path="url(#clip7302)" style="stroke:#000000; stroke-width:2; stroke-opacity:0.1; fill:none" points="
  1490.59,1448.09 1490.59,47.2441 
  "/>
<polyline clip-path="url(#clip7302)" style="stroke:#000000; stroke-width:2; stroke-opacity:0.1; fill:none" points="
  1787.17,1448.09 1787.17,47.2441 
  "/>
<polyline clip-path="url(#clip7302)" style="stroke:#000000; stroke-width:2; stroke-opacity:0.1; fill:none" points="
  2083.76,1448.09 2083.76,47.2441 
  "/>
<polyline clip-path="url(#clip7302)" style="stroke:#000000; stroke-width:2; stroke-opacity:0.1; fill:none" points="
  183.556,1323.61 2352.76,1323.61 
  "/>
<polyline clip-path="url(#clip7302)" style="stroke:#000000; stroke-width:2; stroke-opacity:0.1; fill:none" points="
  183.556,1103.69 2352.76,1103.69 
  "/>
<polyline clip-path="url(#clip7302)" style="stroke:#000000; stroke-width:2; stroke-opacity:0.1; fill:none" points="
  183.556,883.778 2352.76,883.778 
  "/>
<polyline clip-path="url(#clip7302)" style="stroke:#000000; stroke-width:2; stroke-opacity:0.1; fill:none" points="
  183.556,663.863 2352.76,663.863 
  "/>
<polyline clip-path="url(#clip7302)" style="stroke:#000000; stroke-width:2; stroke-opacity:0.1; fill:none" points="
  183.556,443.948 2352.76,443.948 
  "/>
<polyline clip-path="url(#clip7302)" style="stroke:#000000; stroke-width:2; stroke-opacity:0.1; fill:none" points="
  183.556,224.033 2352.76,224.033 
  "/>
<polyline clip-path="url(#clip7300)" style="stroke:#000000; stroke-width:4; stroke-opacity:1; fill:none" points="
  183.556,1448.09 2352.76,1448.09 
  "/>
<polyline clip-path="url(#clip7300)" style="stroke:#000000; stroke-width:4; stroke-opacity:1; fill:none" points="
  183.556,1448.09 183.556,47.2441 
  "/>
<polyline clip-path="url(#clip7300)" style="stroke:#000000; stroke-width:4; stroke-opacity:1; fill:none" points="
  304.265,1448.09 304.265,1427.08 
  "/>
<polyline clip-path="url(#clip7300)" style="stroke:#000000; stroke-width:4; stroke-opacity:1; fill:none" points="
  600.847,1448.09 600.847,1427.08 
  "/>
<polyline clip-path="url(#clip7300)" style="stroke:#000000; stroke-width:4; stroke-opacity:1; fill:none" points="
  897.428,1448.09 897.428,1427.08 
  "/>
<polyline clip-path="url(#clip7300)" style="stroke:#000000; stroke-width:4; stroke-opacity:1; fill:none" points="
  1194.01,1448.09 1194.01,1427.08 
  "/>
<polyline clip-path="url(#clip7300)" style="stroke:#000000; stroke-width:4; stroke-opacity:1; fill:none" points="
  1490.59,1448.09 1490.59,1427.08 
  "/>
<polyline clip-path="url(#clip7300)" style="stroke:#000000; stroke-width:4; stroke-opacity:1; fill:none" points="
  1787.17,1448.09 1787.17,1427.08 
  "/>
<polyline clip-path="url(#clip7300)" style="stroke:#000000; stroke-width:4; stroke-opacity:1; fill:none" points="
  2083.76,1448.09 2083.76,1427.08 
  "/>
<polyline clip-path="url(#clip7300)" style="stroke:#000000; stroke-width:4; stroke-opacity:1; fill:none" points="
  183.556,1323.61 216.094,1323.61 
  "/>
<polyline clip-path="url(#clip7300)" style="stroke:#000000; stroke-width:4; stroke-opacity:1; fill:none" points="
  183.556,1103.69 216.094,1103.69 
  "/>
<polyline clip-path="url(#clip7300)" style="stroke:#000000; stroke-width:4; stroke-opacity:1; fill:none" points="
  183.556,883.778 216.094,883.778 
  "/>
<polyline clip-path="url(#clip7300)" style="stroke:#000000; stroke-width:4; stroke-opacity:1; fill:none" points="
  183.556,663.863 216.094,663.863 
  "/>
<polyline clip-path="url(#clip7300)" style="stroke:#000000; stroke-width:4; stroke-opacity:1; fill:none" points="
  183.556,443.948 216.094,443.948 
  "/>
<polyline clip-path="url(#clip7300)" style="stroke:#000000; stroke-width:4; stroke-opacity:1; fill:none" points="
  183.556,224.033 216.094,224.033 
  "/>
<g clip-path="url(#clip7300)">
<text style="fill:#000000; fill-opacity:1; font-family:Arial,Helvetica Neue,Helvetica,sans-serif; font-size:48px; text-anchor:middle;" transform="rotate(0, 304.265, 1502.09)" x="304.265" y="1502.09">0</text>
</g>
<g clip-path="url(#clip7300)">
<text style="fill:#000000; fill-opacity:1; font-family:Arial,Helvetica Neue,Helvetica,sans-serif; font-size:48px; text-anchor:middle;" transform="rotate(0, 600.847, 1502.09)" x="600.847" y="1502.09">2</text>
</g>
<g clip-path="url(#clip7300)">
<text style="fill:#000000; fill-opacity:1; font-family:Arial,Helvetica Neue,Helvetica,sans-serif; font-size:48px; text-anchor:middle;" transform="rotate(0, 897.428, 1502.09)" x="897.428" y="1502.09">4</text>
</g>
<g clip-path="url(#clip7300)">
<text style="fill:#000000; fill-opacity:1; font-family:Arial,Helvetica Neue,Helvetica,sans-serif; font-size:48px; text-anchor:middle;" transform="rotate(0, 1194.01, 1502.09)" x="1194.01" y="1502.09">6</text>
</g>
<g clip-path="url(#clip7300)">
<text style="fill:#000000; fill-opacity:1; font-family:Arial,Helvetica Neue,Helvetica,sans-serif; font-size:48px; text-anchor:middle;" transform="rotate(0, 1490.59, 1502.09)" x="1490.59" y="1502.09">8</text>
</g>
<g clip-path="url(#clip7300)">
<text style="fill:#000000; fill-opacity:1; font-family:Arial,Helvetica Neue,Helvetica,sans-serif; font-size:48px; text-anchor:middle;" transform="rotate(0, 1787.17, 1502.09)" x="1787.17" y="1502.09">10</text>
</g>
<g clip-path="url(#clip7300)">
<text style="fill:#000000; fill-opacity:1; font-family:Arial,Helvetica Neue,Helvetica,sans-serif; font-size:48px; text-anchor:middle;" transform="rotate(0, 2083.76, 1502.09)" x="2083.76" y="1502.09">12</text>
</g>
<g clip-path="url(#clip7300)">
<text style="fill:#000000; fill-opacity:1; font-family:Arial,Helvetica Neue,Helvetica,sans-serif; font-size:48px; text-anchor:end;" transform="rotate(0, 159.556, 1341.11)" x="159.556" y="1341.11">0.4</text>
</g>
<g clip-path="url(#clip7300)">
<text style="fill:#000000; fill-opacity:1; font-family:Arial,Helvetica Neue,Helvetica,sans-serif; font-size:48px; text-anchor:end;" transform="rotate(0, 159.556, 1121.19)" x="159.556" y="1121.19">0.5</text>
</g>
<g clip-path="url(#clip7300)">
<text style="fill:#000000; fill-opacity:1; font-family:Arial,Helvetica Neue,Helvetica,sans-serif; font-size:48px; text-anchor:end;" transform="rotate(0, 159.556, 901.278)" x="159.556" y="901.278">0.6</text>
</g>
<g clip-path="url(#clip7300)">
<text style="fill:#000000; fill-opacity:1; font-family:Arial,Helvetica Neue,Helvetica,sans-serif; font-size:48px; text-anchor:end;" transform="rotate(0, 159.556, 681.363)" x="159.556" y="681.363">0.7</text>
</g>
<g clip-path="url(#clip7300)">
<text style="fill:#000000; fill-opacity:1; font-family:Arial,Helvetica Neue,Helvetica,sans-serif; font-size:48px; text-anchor:end;" transform="rotate(0, 159.556, 461.448)" x="159.556" y="461.448">0.8</text>
</g>
<g clip-path="url(#clip7300)">
<text style="fill:#000000; fill-opacity:1; font-family:Arial,Helvetica Neue,Helvetica,sans-serif; font-size:48px; text-anchor:end;" transform="rotate(0, 159.556, 241.533)" x="159.556" y="241.533">0.9</text>
</g>
<g clip-path="url(#clip7300)">
<text style="fill:#000000; fill-opacity:1; font-family:Arial,Helvetica Neue,Helvetica,sans-serif; font-size:66px; text-anchor:middle;" transform="rotate(0, 1268.16, 1581.96)" x="1268.16" y="1581.96">Age in Years</text>
</g>
<g clip-path="url(#clip7300)">
<text style="fill:#000000; fill-opacity:1; font-family:Arial,Helvetica Neue,Helvetica,sans-serif; font-size:66px; text-anchor:middle;" transform="rotate(-90, 57.0878, 747.669)" x="57.0878" y="747.669">Alpha diversity (GiniSimpson)</text>
</g>
<circle clip-path="url(#clip7302)" style="fill:#000000; stroke:none; fill-opacity:1" cx="304.265" cy="1408.45" r="18"/>
<circle clip-path="url(#clip7302)" style="fill:#d3d3d3; stroke:none; fill-opacity:1" cx="304.265" cy="1408.45" r="14"/>
<circle clip-path="url(#clip7302)" style="fill:#000000; stroke:none; fill-opacity:1" cx="304.265" cy="1218.61" r="18"/>
<circle clip-path="url(#clip7302)" style="fill:#d3d3d3; stroke:none; fill-opacity:1" cx="304.265" cy="1218.61" r="14"/>
<circle clip-path="url(#clip7302)" style="fill:#000000; stroke:none; fill-opacity:1" cx="304.265" cy="1200.64" r="18"/>
<circle clip-path="url(#clip7302)" style="fill:#d3d3d3; stroke:none; fill-opacity:1" cx="304.265" cy="1200.64" r="14"/>
<circle clip-path="url(#clip7302)" style="fill:#000000; stroke:none; fill-opacity:1" cx="452.556" cy="965.551" r="18"/>
<circle clip-path="url(#clip7302)" style="fill:#d3d3d3; stroke:none; fill-opacity:1" cx="452.556" cy="965.551" r="14"/>
<circle clip-path="url(#clip7302)" style="fill:#000000; stroke:none; fill-opacity:1" cx="600.847" cy="799.784" r="18"/>
<circle clip-path="url(#clip7302)" style="fill:#d3d3d3; stroke:none; fill-opacity:1" cx="600.847" cy="799.784" r="14"/>
<circle clip-path="url(#clip7302)" style="fill:#000000; stroke:none; fill-opacity:1" cx="600.847" cy="616.318" r="18"/>
<circle clip-path="url(#clip7302)" style="fill:#d3d3d3; stroke:none; fill-opacity:1" cx="600.847" cy="616.318" r="14"/>
<circle clip-path="url(#clip7302)" style="fill:#000000; stroke:none; fill-opacity:1" cx="600.847" cy="863.293" r="18"/>
<circle clip-path="url(#clip7302)" style="fill:#d3d3d3; stroke:none; fill-opacity:1" cx="600.847" cy="863.293" r="14"/>
<circle clip-path="url(#clip7302)" style="fill:#000000; stroke:none; fill-opacity:1" cx="600.847" cy="705.967" r="18"/>
<circle clip-path="url(#clip7302)" style="fill:#d3d3d3; stroke:none; fill-opacity:1" cx="600.847" cy="705.967" r="14"/>
<circle clip-path="url(#clip7302)" style="fill:#000000; stroke:none; fill-opacity:1" cx="749.138" cy="921.012" r="18"/>
<circle clip-path="url(#clip7302)" style="fill:#d3d3d3; stroke:none; fill-opacity:1" cx="749.138" cy="921.012" r="14"/>
<circle clip-path="url(#clip7302)" style="fill:#000000; stroke:none; fill-opacity:1" cx="897.428" cy="531.825" r="18"/>
<circle clip-path="url(#clip7302)" style="fill:#d3d3d3; stroke:none; fill-opacity:1" cx="897.428" cy="531.825" r="14"/>
<circle clip-path="url(#clip7302)" style="fill:#000000; stroke:none; fill-opacity:1" cx="897.428" cy="521.807" r="18"/>
<circle clip-path="url(#clip7302)" style="fill:#d3d3d3; stroke:none; fill-opacity:1" cx="897.428" cy="521.807" r="14"/>
<circle clip-path="url(#clip7302)" style="fill:#000000; stroke:none; fill-opacity:1" cx="897.428" cy="1256.59" r="18"/>
<circle clip-path="url(#clip7302)" style="fill:#d3d3d3; stroke:none; fill-opacity:1" cx="897.428" cy="1256.59" r="14"/>
<circle clip-path="url(#clip7302)" style="fill:#000000; stroke:none; fill-opacity:1" cx="897.428" cy="925.07" r="18"/>
<circle clip-path="url(#clip7302)" style="fill:#d3d3d3; stroke:none; fill-opacity:1" cx="897.428" cy="925.07" r="14"/>
<circle clip-path="url(#clip7302)" style="fill:#000000; stroke:none; fill-opacity:1" cx="1045.72" cy="427.508" r="18"/>
<circle clip-path="url(#clip7302)" style="fill:#d3d3d3; stroke:none; fill-opacity:1" cx="1045.72" cy="427.508" r="14"/>
<circle clip-path="url(#clip7302)" style="fill:#000000; stroke:none; fill-opacity:1" cx="1045.72" cy="441.681" r="18"/>
<circle clip-path="url(#clip7302)" style="fill:#d3d3d3; stroke:none; fill-opacity:1" cx="1045.72" cy="441.681" r="14"/>
<circle clip-path="url(#clip7302)" style="fill:#000000; stroke:none; fill-opacity:1" cx="1194.01" cy="650.062" r="18"/>
<circle clip-path="url(#clip7302)" style="fill:#d3d3d3; stroke:none; fill-opacity:1" cx="1194.01" cy="650.062" r="14"/>
<circle clip-path="url(#clip7302)" style="fill:#000000; stroke:none; fill-opacity:1" cx="1194.01" cy="436.696" r="18"/>
<circle clip-path="url(#clip7302)" style="fill:#d3d3d3; stroke:none; fill-opacity:1" cx="1194.01" cy="436.696" r="14"/>
<circle clip-path="url(#clip7302)" style="fill:#000000; stroke:none; fill-opacity:1" cx="1490.59" cy="352.376" r="18"/>
<circle clip-path="url(#clip7302)" style="fill:#d3d3d3; stroke:none; fill-opacity:1" cx="1490.59" cy="352.376" r="14"/>
<circle clip-path="url(#clip7302)" style="fill:#000000; stroke:none; fill-opacity:1" cx="1787.17" cy="390.687" r="18"/>
<circle clip-path="url(#clip7302)" style="fill:#d3d3d3; stroke:none; fill-opacity:1" cx="1787.17" cy="390.687" r="14"/>
<circle clip-path="url(#clip7302)" style="fill:#000000; stroke:none; fill-opacity:1" cx="1935.47" cy="402.911" r="18"/>
<circle clip-path="url(#clip7302)" style="fill:#d3d3d3; stroke:none; fill-opacity:1" cx="1935.47" cy="402.911" r="14"/>
<polygon clip-path="url(#clip7302)" points="
304.265,961.835 244.948,961.835 363.581,961.835 304.265,961.835 304.265,624.704 304.265,961.835 
  " fill="#d3d3d3" fill-rule="evenodd" fill-opacity="1"/>
<polyline clip-path="url(#clip7302)" style="stroke:#000000; stroke-width:4; stroke-opacity:1; fill:none" points="
  304.265,961.835 244.948,961.835 363.581,961.835 304.265,961.835 304.265,624.704 304.265,961.835 
  "/>
<polygon clip-path="url(#clip7302)" points="
244.948,624.704 244.948,415.816 363.581,415.816 363.581,624.704 244.948,624.704 244.948,624.704 
  " fill="#d3d3d3" fill-rule="evenodd" fill-opacity="1"/>
<polyline clip-path="url(#clip7302)" style="stroke:#000000; stroke-width:4; stroke-opacity:1; fill:none" points="
  244.948,624.704 244.948,415.816 363.581,415.816 363.581,624.704 244.948,624.704 
  "/>
<polygon clip-path="url(#clip7302)" points="
244.948,349.734 244.948,415.816 363.581,415.816 363.581,349.734 244.948,349.734 244.948,349.734 
  " fill="#d3d3d3" fill-rule="evenodd" fill-opacity="1"/>
<polyline clip-path="url(#clip7302)" style="stroke:#000000; stroke-width:4; stroke-opacity:1; fill:none" points="
  244.948,349.734 244.948,415.816 363.581,415.816 363.581,349.734 244.948,349.734 
  "/>
<polygon clip-path="url(#clip7302)" points="
304.265,138.933 244.948,138.933 363.581,138.933 304.265,138.933 304.265,349.734 304.265,138.933 
  " fill="#d3d3d3" fill-rule="evenodd" fill-opacity="1"/>
<polyline clip-path="url(#clip7302)" style="stroke:#000000; stroke-width:4; stroke-opacity:1; fill:none" points="
  304.265,138.933 244.948,138.933 363.581,138.933 304.265,138.933 304.265,349.734 304.265,138.933 
  "/>
<polygon clip-path="url(#clip7302)" points="
452.556,470.408 393.239,470.408 511.872,470.408 452.556,470.408 452.556,322.693 452.556,470.408 
  " fill="#d3d3d3" fill-rule="evenodd" fill-opacity="1"/>
<polyline clip-path="url(#clip7302)" style="stroke:#000000; stroke-width:4; stroke-opacity:1; fill:none" points="
  452.556,470.408 393.239,470.408 511.872,470.408 452.556,470.408 452.556,322.693 452.556,470.408 
  "/>
<polygon clip-path="url(#clip7302)" points="
393.239,322.693 393.239,219.672 511.872,219.672 511.872,322.693 393.239,322.693 393.239,322.693 
  " fill="#d3d3d3" fill-rule="evenodd" fill-opacity="1"/>
<polyline clip-path="url(#clip7302)" style="stroke:#000000; stroke-width:4; stroke-opacity:1; fill:none" points="
  393.239,322.693 393.239,219.672 511.872,219.672 511.872,322.693 393.239,322.693 
  "/>
<polygon clip-path="url(#clip7302)" points="
393.239,175.007 393.239,219.672 511.872,219.672 511.872,175.007 393.239,175.007 393.239,175.007 
  " fill="#d3d3d3" fill-rule="evenodd" fill-opacity="1"/>
<polyline clip-path="url(#clip7302)" style="stroke:#000000; stroke-width:4; stroke-opacity:1; fill:none" points="
  393.239,175.007 393.239,219.672 511.872,219.672 511.872,175.007 393.239,175.007 
  "/>
<polygon clip-path="url(#clip7302)" points="
452.556,133.105 393.239,133.105 511.872,133.105 452.556,133.105 452.556,175.007 452.556,133.105 
  " fill="#d3d3d3" fill-rule="evenodd" fill-opacity="1"/>
<polyline clip-path="url(#clip7302)" style="stroke:#000000; stroke-width:4; stroke-opacity:1; fill:none" points="
  452.556,133.105 393.239,133.105 511.872,133.105 452.556,133.105 452.556,175.007 452.556,133.105 
  "/>
<polygon clip-path="url(#clip7302)" points="
600.847,371.426 541.53,371.426 660.163,371.426 600.847,371.426 600.847,237.03 600.847,371.426 
  " fill="#d3d3d3" fill-rule="evenodd" fill-opacity="1"/>
<polyline clip-path="url(#clip7302)" style="stroke:#000000; stroke-width:4; stroke-opacity:1; fill:none" points="
  600.847,371.426 541.53,371.426 660.163,371.426 600.847,371.426 600.847,237.03 600.847,371.426 
  "/>
<polygon clip-path="url(#clip7302)" points="
541.53,237.03 541.53,187.117 660.163,187.117 660.163,237.03 541.53,237.03 541.53,237.03 
  " fill="#d3d3d3" fill-rule="evenodd" fill-opacity="1"/>
<polyline clip-path="url(#clip7302)" style="stroke:#000000; stroke-width:4; stroke-opacity:1; fill:none" points="
  541.53,237.03 541.53,187.117 660.163,187.117 660.163,237.03 541.53,237.03 
  "/>
<polygon clip-path="url(#clip7302)" points="
541.53,146.188 541.53,187.117 660.163,187.117 660.163,146.188 541.53,146.188 541.53,146.188 
  " fill="#d3d3d3" fill-rule="evenodd" fill-opacity="1"/>
<polyline clip-path="url(#clip7302)" style="stroke:#000000; stroke-width:4; stroke-opacity:1; fill:none" points="
  541.53,146.188 541.53,187.117 660.163,187.117 660.163,146.188 541.53,146.188 
  "/>
<polygon clip-path="url(#clip7302)" points="
600.847,107.539 541.53,107.539 660.163,107.539 600.847,107.539 600.847,146.188 600.847,107.539 
  " fill="#d3d3d3" fill-rule="evenodd" fill-opacity="1"/>
<polyline clip-path="url(#clip7302)" style="stroke:#000000; stroke-width:4; stroke-opacity:1; fill:none" points="
  600.847,107.539 541.53,107.539 660.163,107.539 600.847,107.539 600.847,146.188 600.847,107.539 
  "/>
<polygon clip-path="url(#clip7302)" points="
749.138,454.835 689.821,454.835 808.454,454.835 749.138,454.835 749.138,343.068 749.138,454.835 
  " fill="#d3d3d3" fill-rule="evenodd" fill-opacity="1"/>
<polyline clip-path="url(#clip7302)" style="stroke:#000000; stroke-width:4; stroke-opacity:1; fill:none" points="
  749.138,454.835 689.821,454.835 808.454,454.835 749.138,454.835 749.138,343.068 749.138,454.835 
  "/>
<polygon clip-path="url(#clip7302)" points="
689.821,343.068 689.821,229.206 808.454,229.206 808.454,343.068 689.821,343.068 689.821,343.068 
  " fill="#d3d3d3" fill-rule="evenodd" fill-opacity="1"/>
<polyline clip-path="url(#clip7302)" style="stroke:#000000; stroke-width:4; stroke-opacity:1; fill:none" points="
  689.821,343.068 689.821,229.206 808.454,229.206 808.454,343.068 689.821,343.068 
  "/>
<polygon clip-path="url(#clip7302)" points="
689.821,163.651 689.821,229.206 808.454,229.206 808.454,163.651 689.821,163.651 689.821,163.651 
  " fill="#d3d3d3" fill-rule="evenodd" fill-opacity="1"/>
<polyline clip-path="url(#clip7302)" style="stroke:#000000; stroke-width:4; stroke-opacity:1; fill:none" points="
  689.821,163.651 689.821,229.206 808.454,229.206 808.454,163.651 689.821,163.651 
  "/>
<polygon clip-path="url(#clip7302)" points="
749.138,110.768 689.821,110.768 808.454,110.768 749.138,110.768 749.138,163.651 749.138,110.768 
  " fill="#d3d3d3" fill-rule="evenodd" fill-opacity="1"/>
<polyline clip-path="url(#clip7302)" style="stroke:#000000; stroke-width:4; stroke-opacity:1; fill:none" points="
  749.138,110.768 689.821,110.768 808.454,110.768 749.138,110.768 749.138,163.651 749.138,110.768 
  "/>
<polygon clip-path="url(#clip7302)" points="
897.428,347.957 838.112,347.957 956.745,347.957 897.428,347.957 897.428,282.396 897.428,347.957 
  " fill="#d3d3d3" fill-rule="evenodd" fill-opacity="1"/>
<polyline clip-path="url(#clip7302)" style="stroke:#000000; stroke-width:4; stroke-opacity:1; fill:none" points="
  897.428,347.957 838.112,347.957 956.745,347.957 897.428,347.957 897.428,282.396 897.428,347.957 
  "/>
<polygon clip-path="url(#clip7302)" points="
838.112,282.396 838.112,194.066 956.745,194.066 956.745,282.396 838.112,282.396 838.112,282.396 
  " fill="#d3d3d3" fill-rule="evenodd" fill-opacity="1"/>
<polyline clip-path="url(#clip7302)" style="stroke:#000000; stroke-width:4; stroke-opacity:1; fill:none" points="
  838.112,282.396 838.112,194.066 956.745,194.066 956.745,282.396 838.112,282.396 
  "/>
<polygon clip-path="url(#clip7302)" points="
838.112,136.692 838.112,194.066 956.745,194.066 956.745,136.692 838.112,136.692 838.112,136.692 
  " fill="#d3d3d3" fill-rule="evenodd" fill-opacity="1"/>
<polyline clip-path="url(#clip7302)" style="stroke:#000000; stroke-width:4; stroke-opacity:1; fill:none" points="
  838.112,136.692 838.112,194.066 956.745,194.066 956.745,136.692 838.112,136.692 
  "/>
<polygon clip-path="url(#clip7302)" points="
897.428,86.8908 838.112,86.8908 956.745,86.8908 897.428,86.8908 897.428,136.692 897.428,86.8908 
  " fill="#d3d3d3" fill-rule="evenodd" fill-opacity="1"/>
<polyline clip-path="url(#clip7302)" style="stroke:#000000; stroke-width:4; stroke-opacity:1; fill:none" points="
  897.428,86.8908 838.112,86.8908 956.745,86.8908 897.428,86.8908 897.428,136.692 897.428,86.8908 
  "/>
<polygon clip-path="url(#clip7302)" points="
1045.72,273.843 986.403,273.843 1105.04,273.843 1045.72,273.843 1045.72,237.178 1045.72,273.843 
  " fill="#d3d3d3" fill-rule="evenodd" fill-opacity="1"/>
<polyline clip-path="url(#clip7302)" style="stroke:#000000; stroke-width:4; stroke-opacity:1; fill:none" points="
  1045.72,273.843 986.403,273.843 1105.04,273.843 1045.72,273.843 1045.72,237.178 1045.72,273.843 
  "/>
<polygon clip-path="url(#clip7302)" points="
986.403,237.178 986.403,186.227 1105.04,186.227 1105.04,237.178 986.403,237.178 986.403,237.178 
  " fill="#d3d3d3" fill-rule="evenodd" fill-opacity="1"/>
<polyline clip-path="url(#clip7302)" style="stroke:#000000; stroke-width:4; stroke-opacity:1; fill:none" points="
  986.403,237.178 986.403,186.227 1105.04,186.227 1105.04,237.178 986.403,237.178 
  "/>
<polygon clip-path="url(#clip7302)" points="
986.403,145.407 986.403,186.227 1105.04,186.227 1105.04,145.407 986.403,145.407 986.403,145.407 
  " fill="#d3d3d3" fill-rule="evenodd" fill-opacity="1"/>
<polyline clip-path="url(#clip7302)" style="stroke:#000000; stroke-width:4; stroke-opacity:1; fill:none" points="
  986.403,145.407 986.403,186.227 1105.04,186.227 1105.04,145.407 986.403,145.407 
  "/>
<polygon clip-path="url(#clip7302)" points="
1045.72,122.66 986.403,122.66 1105.04,122.66 1045.72,122.66 1045.72,145.407 1045.72,122.66 
  " fill="#d3d3d3" fill-rule="evenodd" fill-opacity="1"/>
<polyline clip-path="url(#clip7302)" style="stroke:#000000; stroke-width:4; stroke-opacity:1; fill:none" points="
  1045.72,122.66 986.403,122.66 1105.04,122.66 1045.72,122.66 1045.72,145.407 1045.72,122.66 
  "/>
<polygon clip-path="url(#clip7302)" points="
1194.01,331.088 1134.69,331.088 1253.33,331.088 1194.01,331.088 1194.01,224.473 1194.01,331.088 
  " fill="#d3d3d3" fill-rule="evenodd" fill-opacity="1"/>
<polyline clip-path="url(#clip7302)" style="stroke:#000000; stroke-width:4; stroke-opacity:1; fill:none" points="
  1194.01,331.088 1134.69,331.088 1253.33,331.088 1194.01,331.088 1194.01,224.473 1194.01,331.088 
  "/>
<polygon clip-path="url(#clip7302)" points="
1134.69,224.473 1134.69,197.328 1253.33,197.328 1253.33,224.473 1134.69,224.473 1134.69,224.473 
  " fill="#d3d3d3" fill-rule="evenodd" fill-opacity="1"/>
<polyline clip-path="url(#clip7302)" style="stroke:#000000; stroke-width:4; stroke-opacity:1; fill:none" points="
  1134.69,224.473 1134.69,197.328 1253.33,197.328 1253.33,224.473 1134.69,224.473 
  "/>
<polygon clip-path="url(#clip7302)" points="
1134.69,141.806 1134.69,197.328 1253.33,197.328 1253.33,141.806 1134.69,141.806 1134.69,141.806 
  " fill="#d3d3d3" fill-rule="evenodd" fill-opacity="1"/>
<polyline clip-path="url(#clip7302)" style="stroke:#000000; stroke-width:4; stroke-opacity:1; fill:none" points="
  1134.69,141.806 1134.69,197.328 1253.33,197.328 1253.33,141.806 1134.69,141.806 
  "/>
<polygon clip-path="url(#clip7302)" points="
1194.01,101.963 1134.69,101.963 1253.33,101.963 1194.01,101.963 1194.01,141.806 1194.01,101.963 
  " fill="#d3d3d3" fill-rule="evenodd" fill-opacity="1"/>
<polyline clip-path="url(#clip7302)" style="stroke:#000000; stroke-width:4; stroke-opacity:1; fill:none" points="
  1194.01,101.963 1134.69,101.963 1253.33,101.963 1194.01,101.963 1194.01,141.806 1194.01,101.963 
  "/>
<polygon clip-path="url(#clip7302)" points="
1342.3,229.614 1282.98,229.614 1401.62,229.614 1342.3,229.614 1342.3,197.021 1342.3,229.614 
  " fill="#d3d3d3" fill-rule="evenodd" fill-opacity="1"/>
<polyline clip-path="url(#clip7302)" style="stroke:#000000; stroke-width:4; stroke-opacity:1; fill:none" points="
  1342.3,229.614 1282.98,229.614 1401.62,229.614 1342.3,229.614 1342.3,197.021 1342.3,229.614 
  "/>
<polygon clip-path="url(#clip7302)" points="
1282.98,197.021 1282.98,166.118 1401.62,166.118 1401.62,197.021 1282.98,197.021 1282.98,197.021 
  " fill="#d3d3d3" fill-rule="evenodd" fill-opacity="1"/>
<polyline clip-path="url(#clip7302)" style="stroke:#000000; stroke-width:4; stroke-opacity:1; fill:none" points="
  1282.98,197.021 1282.98,166.118 1401.62,166.118 1401.62,197.021 1282.98,197.021 
  "/>
<polygon clip-path="url(#clip7302)" points="
1282.98,145.183 1282.98,166.118 1401.62,166.118 1401.62,145.183 1282.98,145.183 1282.98,145.183 
  " fill="#d3d3d3" fill-rule="evenodd" fill-opacity="1"/>
<polyline clip-path="url(#clip7302)" style="stroke:#000000; stroke-width:4; stroke-opacity:1; fill:none" points="
  1282.98,145.183 1282.98,166.118 1401.62,166.118 1401.62,145.183 1282.98,145.183 
  "/>
<polygon clip-path="url(#clip7302)" points="
1342.3,122.43 1282.98,122.43 1401.62,122.43 1342.3,122.43 1342.3,145.183 1342.3,122.43 
  " fill="#d3d3d3" fill-rule="evenodd" fill-opacity="1"/>
<polyline clip-path="url(#clip7302)" style="stroke:#000000; stroke-width:4; stroke-opacity:1; fill:none" points="
  1342.3,122.43 1282.98,122.43 1401.62,122.43 1342.3,122.43 1342.3,145.183 1342.3,122.43 
  "/>
<polygon clip-path="url(#clip7302)" points="
1490.59,310.378 1431.28,310.378 1549.91,310.378 1490.59,310.378 1490.59,219.855 1490.59,310.378 
  " fill="#d3d3d3" fill-rule="evenodd" fill-opacity="1"/>
<polyline clip-path="url(#clip7302)" style="stroke:#000000; stroke-width:4; stroke-opacity:1; fill:none" points="
  1490.59,310.378 1431.28,310.378 1549.91,310.378 1490.59,310.378 1490.59,219.855 1490.59,310.378 
  "/>
<polygon clip-path="url(#clip7302)" points="
1431.28,219.855 1431.28,167.538 1549.91,167.538 1549.91,219.855 1431.28,219.855 1431.28,219.855 
  " fill="#d3d3d3" fill-rule="evenodd" fill-opacity="1"/>
<polyline clip-path="url(#clip7302)" style="stroke:#000000; stroke-width:4; stroke-opacity:1; fill:none" points="
  1431.28,219.855 1431.28,167.538 1549.91,167.538 1549.91,219.855 1431.28,219.855 
  "/>
<polygon clip-path="url(#clip7302)" points="
1431.28,139.697 1431.28,167.538 1549.91,167.538 1549.91,139.697 1431.28,139.697 1431.28,139.697 
  " fill="#d3d3d3" fill-rule="evenodd" fill-opacity="1"/>
<polyline clip-path="url(#clip7302)" style="stroke:#000000; stroke-width:4; stroke-opacity:1; fill:none" points="
  1431.28,139.697 1431.28,167.538 1549.91,167.538 1549.91,139.697 1431.28,139.697 
  "/>
<polygon clip-path="url(#clip7302)" points="
1490.59,98.0236 1431.28,98.0236 1549.91,98.0236 1490.59,98.0236 1490.59,139.697 1490.59,98.0236 
  " fill="#d3d3d3" fill-rule="evenodd" fill-opacity="1"/>
<polyline clip-path="url(#clip7302)" style="stroke:#000000; stroke-width:4; stroke-opacity:1; fill:none" points="
  1490.59,98.0236 1431.28,98.0236 1549.91,98.0236 1490.59,98.0236 1490.59,139.697 1490.59,98.0236 
  "/>
<polygon clip-path="url(#clip7302)" points="
1638.88,365.084 1579.57,365.084 1698.2,365.084 1638.88,365.084 1638.88,264.798 1638.88,365.084 
  " fill="#d3d3d3" fill-rule="evenodd" fill-opacity="1"/>
<polyline clip-path="url(#clip7302)" style="stroke:#000000; stroke-width:4; stroke-opacity:1; fill:none" points="
  1638.88,365.084 1579.57,365.084 1698.2,365.084 1638.88,365.084 1638.88,264.798 1638.88,365.084 
  "/>
<polygon clip-path="url(#clip7302)" points="
1579.57,264.798 1579.57,168.158 1698.2,168.158 1698.2,264.798 1579.57,264.798 1579.57,264.798 
  " fill="#d3d3d3" fill-rule="evenodd" fill-opacity="1"/>
<polyline clip-path="url(#clip7302)" style="stroke:#000000; stroke-width:4; stroke-opacity:1; fill:none" points="
  1579.57,264.798 1579.57,168.158 1698.2,168.158 1698.2,264.798 1579.57,264.798 
  "/>
<polygon clip-path="url(#clip7302)" points="
1579.57,134.298 1579.57,168.158 1698.2,168.158 1698.2,134.298 1579.57,134.298 1579.57,134.298 
  " fill="#d3d3d3" fill-rule="evenodd" fill-opacity="1"/>
<polyline clip-path="url(#clip7302)" style="stroke:#000000; stroke-width:4; stroke-opacity:1; fill:none" points="
  1579.57,134.298 1579.57,168.158 1698.2,168.158 1698.2,134.298 1579.57,134.298 
  "/>
<polygon clip-path="url(#clip7302)" points="
1638.88,127.801 1579.57,127.801 1698.2,127.801 1638.88,127.801 1638.88,134.298 1638.88,127.801 
  " fill="#d3d3d3" fill-rule="evenodd" fill-opacity="1"/>
<polyline clip-path="url(#clip7302)" style="stroke:#000000; stroke-width:4; stroke-opacity:1; fill:none" points="
  1638.88,127.801 1579.57,127.801 1698.2,127.801 1638.88,127.801 1638.88,134.298 1638.88,127.801 
  "/>
<polygon clip-path="url(#clip7302)" points="
1787.17,268.662 1727.86,268.662 1846.49,268.662 1787.17,268.662 1787.17,200.567 1787.17,268.662 
  " fill="#d3d3d3" fill-rule="evenodd" fill-opacity="1"/>
<polyline clip-path="url(#clip7302)" style="stroke:#000000; stroke-width:4; stroke-opacity:1; fill:none" points="
  1787.17,268.662 1727.86,268.662 1846.49,268.662 1787.17,268.662 1787.17,200.567 1787.17,268.662 
  "/>
<polygon clip-path="url(#clip7302)" points="
1727.86,200.567 1727.86,182.846 1846.49,182.846 1846.49,200.567 1727.86,200.567 1727.86,200.567 
  " fill="#d3d3d3" fill-rule="evenodd" fill-opacity="1"/>
<polyline clip-path="url(#clip7302)" style="stroke:#000000; stroke-width:4; stroke-opacity:1; fill:none" points="
  1727.86,200.567 1727.86,182.846 1846.49,182.846 1846.49,200.567 1727.86,200.567 
  "/>
<polygon clip-path="url(#clip7302)" points="
1727.86,139.95 1727.86,182.846 1846.49,182.846 1846.49,139.95 1727.86,139.95 1727.86,139.95 
  " fill="#d3d3d3" fill-rule="evenodd" fill-opacity="1"/>
<polyline clip-path="url(#clip7302)" style="stroke:#000000; stroke-width:4; stroke-opacity:1; fill:none" points="
  1727.86,139.95 1727.86,182.846 1846.49,182.846 1846.49,139.95 1727.86,139.95 
  "/>
<polygon clip-path="url(#clip7302)" points="
1787.17,95.3838 1727.86,95.3838 1846.49,95.3838 1787.17,95.3838 1787.17,139.95 1787.17,95.3838 
  " fill="#d3d3d3" fill-rule="evenodd" fill-opacity="1"/>
<polyline clip-path="url(#clip7302)" style="stroke:#000000; stroke-width:4; stroke-opacity:1; fill:none" points="
  1787.17,95.3838 1727.86,95.3838 1846.49,95.3838 1787.17,95.3838 1787.17,139.95 1787.17,95.3838 
  "/>
<polygon clip-path="url(#clip7302)" points="
1935.47,251.51 1876.15,251.51 1994.78,251.51 1935.47,251.51 1935.47,249.722 1935.47,251.51 
  " fill="#d3d3d3" fill-rule="evenodd" fill-opacity="1"/>
<polyline clip-path="url(#clip7302)" style="stroke:#000000; stroke-width:4; stroke-opacity:1; fill:none" points="
  1935.47,251.51 1876.15,251.51 1994.78,251.51 1935.47,251.51 1935.47,249.722 1935.47,251.51 
  "/>
<polygon clip-path="url(#clip7302)" points="
1876.15,249.722 1876.15,219.508 1994.78,219.508 1994.78,249.722 1876.15,249.722 1876.15,249.722 
  " fill="#d3d3d3" fill-rule="evenodd" fill-opacity="1"/>
<polyline clip-path="url(#clip7302)" style="stroke:#000000; stroke-width:4; stroke-opacity:1; fill:none" points="
  1876.15,249.722 1876.15,219.508 1994.78,219.508 1994.78,249.722 1876.15,249.722 
  "/>
<polygon clip-path="url(#clip7302)" points="
1876.15,201.234 1876.15,219.508 1994.78,219.508 1994.78,201.234 1876.15,201.234 1876.15,201.234 
  " fill="#d3d3d3" fill-rule="evenodd" fill-opacity="1"/>
<polyline clip-path="url(#clip7302)" style="stroke:#000000; stroke-width:4; stroke-opacity:1; fill:none" points="
  1876.15,201.234 1876.15,219.508 1994.78,219.508 1994.78,201.234 1876.15,201.234 
  "/>
<polygon clip-path="url(#clip7302)" points="
1935.47,174.384 1876.15,174.384 1994.78,174.384 1935.47,174.384 1935.47,201.234 1935.47,174.384 
  " fill="#d3d3d3" fill-rule="evenodd" fill-opacity="1"/>
<polyline clip-path="url(#clip7302)" style="stroke:#000000; stroke-width:4; stroke-opacity:1; fill:none" points="
  1935.47,174.384 1876.15,174.384 1994.78,174.384 1935.47,174.384 1935.47,201.234 1935.47,174.384 
  "/>
<polygon clip-path="url(#clip7302)" points="
2083.76,132.077 2024.44,132.077 2143.07,132.077 2083.76,132.077 2083.76,132.077 2083.76,132.077 
  " fill="#d3d3d3" fill-rule="evenodd" fill-opacity="1"/>
<polyline clip-path="url(#clip7302)" style="stroke:#000000; stroke-width:4; stroke-opacity:1; fill:none" points="
  2083.76,132.077 2024.44,132.077 2143.07,132.077 2083.76,132.077 
  "/>
<polygon clip-path="url(#clip7302)" points="
2024.44,132.077 2024.44,132.077 2143.07,132.077 2143.07,132.077 2024.44,132.077 2024.44,132.077 
  " fill="#d3d3d3" fill-rule="evenodd" fill-opacity="1"/>
<polyline clip-path="url(#clip7302)" style="stroke:#000000; stroke-width:4; stroke-opacity:1; fill:none" points="
  2024.44,132.077 2024.44,132.077 2143.07,132.077 2024.44,132.077 
  "/>
<polygon clip-path="url(#clip7302)" points="
2024.44,132.077 2024.44,132.077 2143.07,132.077 2143.07,132.077 2024.44,132.077 2024.44,132.077 
  " fill="#d3d3d3" fill-rule="evenodd" fill-opacity="1"/>
<polyline clip-path="url(#clip7302)" style="stroke:#000000; stroke-width:4; stroke-opacity:1; fill:none" points="
  2024.44,132.077 2024.44,132.077 2143.07,132.077 2024.44,132.077 
  "/>
<polygon clip-path="url(#clip7302)" points="
2083.76,132.077 2024.44,132.077 2143.07,132.077 2083.76,132.077 2083.76,132.077 2083.76,132.077 
  " fill="#d3d3d3" fill-rule="evenodd" fill-opacity="1"/>
<polyline clip-path="url(#clip7302)" style="stroke:#000000; stroke-width:4; stroke-opacity:1; fill:none" points="
  2083.76,132.077 2024.44,132.077 2143.07,132.077 2083.76,132.077 
  "/>
<polygon clip-path="url(#clip7302)" points="
2232.05,173.213 2172.73,173.213 2291.36,173.213 2232.05,173.213 2232.05,173.213 2232.05,173.213 
  " fill="#d3d3d3" fill-rule="evenodd" fill-opacity="1"/>
<polyline clip-path="url(#clip7302)" style="stroke:#000000; stroke-width:4; stroke-opacity:1; fill:none" points="
  2232.05,173.213 2172.73,173.213 2291.36,173.213 2232.05,173.213 
  "/>
<polygon clip-path="url(#clip7302)" points="
2172.73,173.213 2172.73,173.213 2291.36,173.213 2291.36,173.213 2172.73,173.213 2172.73,173.213 
  " fill="#d3d3d3" fill-rule="evenodd" fill-opacity="1"/>
<polyline clip-path="url(#clip7302)" style="stroke:#000000; stroke-width:4; stroke-opacity:1; fill:none" points="
  2172.73,173.213 2172.73,173.213 2291.36,173.213 2172.73,173.213 
  "/>
<polygon clip-path="url(#clip7302)" points="
2172.73,173.213 2172.73,173.213 2291.36,173.213 2291.36,173.213 2172.73,173.213 2172.73,173.213 
  " fill="#d3d3d3" fill-rule="evenodd" fill-opacity="1"/>
<polyline clip-path="url(#clip7302)" style="stroke:#000000; stroke-width:4; stroke-opacity:1; fill:none" points="
  2172.73,173.213 2172.73,173.213 2291.36,173.213 2172.73,173.213 
  "/>
<polygon clip-path="url(#clip7302)" points="
2232.05,173.213 2172.73,173.213 2291.36,173.213 2232.05,173.213 2232.05,173.213 2232.05,173.213 
  " fill="#d3d3d3" fill-rule="evenodd" fill-opacity="1"/>
<polyline clip-path="url(#clip7302)" style="stroke:#000000; stroke-width:4; stroke-opacity:1; fill:none" points="
  2232.05,173.213 2172.73,173.213 2291.36,173.213 2232.05,173.213 
  "/>
</svg>
