<?xml version="1.0" encoding="utf-8"?>
<svg xmlns="http://www.w3.org/2000/svg" xmlns:xlink="http://www.w3.org/1999/xlink" width="576" height="384" viewBox="0 0 2304 1536">
<defs>
  <clipPath id="clip4900">
    <rect x="0" y="0" width="2304" height="1536"/>
  </clipPath>
</defs>
<polygon clip-path="url(#clip4900)" points="
0,1536 2304,1536 2304,0 0,0 
  " fill="#ffffff" fill-rule="evenodd" fill-opacity="1"/>
<defs>
  <clipPath id="clip4901">
    <rect x="460" y="0" width="1614" height="1536"/>
  </clipPath>
</defs>
<polygon clip-path="url(#clip4900)" points="
241.556,1110.22 2256.76,1110.22 2256.76,121.675 241.556,121.675 
  " fill="#ffffff" fill-rule="evenodd" fill-opacity="1"/>
<defs>
  <clipPath id="clip4902">
    <rect x="241" y="121" width="2016" height="990"/>
  </clipPath>
</defs>
<polyline clip-path="url(#clip4902)" style="stroke:#000000; stroke-width:2; stroke-opacity:0.1; fill:none" points="
  408.443,1110.22 408.443,121.675 
  "/>
<polyline clip-path="url(#clip4902)" style="stroke:#000000; stroke-width:2; stroke-opacity:0.1; fill:none" points="
  548.562,1110.22 548.562,121.675 
  "/>
<polyline clip-path="url(#clip4902)" style="stroke:#000000; stroke-width:2; stroke-opacity:0.1; fill:none" points="
  688.681,1110.22 688.681,121.675 
  "/>
<polyline clip-path="url(#clip4902)" style="stroke:#000000; stroke-width:2; stroke-opacity:0.1; fill:none" points="
  828.8,1110.22 828.8,121.675 
  "/>
<polyline clip-path="url(#clip4902)" style="stroke:#000000; stroke-width:2; stroke-opacity:0.1; fill:none" points="
  968.919,1110.22 968.919,121.675 
  "/>
<polyline clip-path="url(#clip4902)" style="stroke:#000000; stroke-width:2; stroke-opacity:0.1; fill:none" points="
  1109.04,1110.22 1109.04,121.675 
  "/>
<polyline clip-path="url(#clip4902)" style="stroke:#000000; stroke-width:2; stroke-opacity:0.1; fill:none" points="
  1249.16,1110.22 1249.16,121.675 
  "/>
<polyline clip-path="url(#clip4902)" style="stroke:#000000; stroke-width:2; stroke-opacity:0.1; fill:none" points="
  1389.27,1110.22 1389.27,121.675 
  "/>
<polyline clip-path="url(#clip4902)" style="stroke:#000000; stroke-width:2; stroke-opacity:0.1; fill:none" points="
  1529.39,1110.22 1529.39,121.675 
  "/>
<polyline clip-path="url(#clip4902)" style="stroke:#000000; stroke-width:2; stroke-opacity:0.1; fill:none" points="
  1669.51,1110.22 1669.51,121.675 
  "/>
<polyline clip-path="url(#clip4902)" style="stroke:#000000; stroke-width:2; stroke-opacity:0.1; fill:none" points="
  1809.63,1110.22 1809.63,121.675 
  "/>
<polyline clip-path="url(#clip4902)" style="stroke:#000000; stroke-width:2; stroke-opacity:0.1; fill:none" points="
  1949.75,1110.22 1949.75,121.675 
  "/>
<polyline clip-path="url(#clip4902)" style="stroke:#000000; stroke-width:2; stroke-opacity:0.1; fill:none" points="
  2089.87,1110.22 2089.87,121.675 
  "/>
<polyline clip-path="url(#clip4902)" style="stroke:#000000; stroke-width:2; stroke-opacity:0.1; fill:none" points="
  241.556,1082.24 2256.76,1082.24 
  "/>
<polyline clip-path="url(#clip4902)" style="stroke:#000000; stroke-width:2; stroke-opacity:0.1; fill:none" points="
  241.556,850.512 2256.76,850.512 
  "/>
<polyline clip-path="url(#clip4902)" style="stroke:#000000; stroke-width:2; stroke-opacity:0.1; fill:none" points="
  241.556,618.783 2256.76,618.783 
  "/>
<polyline clip-path="url(#clip4902)" style="stroke:#000000; stroke-width:2; stroke-opacity:0.1; fill:none" points="
  241.556,387.055 2256.76,387.055 
  "/>
<polyline clip-path="url(#clip4902)" style="stroke:#000000; stroke-width:2; stroke-opacity:0.1; fill:none" points="
  241.556,155.326 2256.76,155.326 
  "/>
<polyline clip-path="url(#clip4900)" style="stroke:#000000; stroke-width:4; stroke-opacity:1; fill:none" points="
  241.556,1110.22 2256.76,1110.22 
  "/>
<polyline clip-path="url(#clip4900)" style="stroke:#000000; stroke-width:4; stroke-opacity:1; fill:none" points="
  241.556,1110.22 241.556,121.675 
  "/>
<polyline clip-path="url(#clip4900)" style="stroke:#000000; stroke-width:4; stroke-opacity:1; fill:none" points="
  408.443,1110.22 408.443,1095.39 
  "/>
<polyline clip-path="url(#clip4900)" style="stroke:#000000; stroke-width:4; stroke-opacity:1; fill:none" points="
  548.562,1110.22 548.562,1095.39 
  "/>
<polyline clip-path="url(#clip4900)" style="stroke:#000000; stroke-width:4; stroke-opacity:1; fill:none" points="
  688.681,1110.22 688.681,1095.39 
  "/>
<polyline clip-path="url(#clip4900)" style="stroke:#000000; stroke-width:4; stroke-opacity:1; fill:none" points="
  828.8,1110.22 828.8,1095.39 
  "/>
<polyline clip-path="url(#clip4900)" style="stroke:#000000; stroke-width:4; stroke-opacity:1; fill:none" points="
  968.919,1110.22 968.919,1095.39 
  "/>
<polyline clip-path="url(#clip4900)" style="stroke:#000000; stroke-width:4; stroke-opacity:1; fill:none" points="
  1109.04,1110.22 1109.04,1095.39 
  "/>
<polyline clip-path="url(#clip4900)" style="stroke:#000000; stroke-width:4; stroke-opacity:1; fill:none" points="
  1249.16,1110.22 1249.16,1095.39 
  "/>
<polyline clip-path="url(#clip4900)" style="stroke:#000000; stroke-width:4; stroke-opacity:1; fill:none" points="
  1389.27,1110.22 1389.27,1095.39 
  "/>
<polyline clip-path="url(#clip4900)" style="stroke:#000000; stroke-width:4; stroke-opacity:1; fill:none" points="
  1529.39,1110.22 1529.39,1095.39 
  "/>
<polyline clip-path="url(#clip4900)" style="stroke:#000000; stroke-width:4; stroke-opacity:1; fill:none" points="
  1669.51,1110.22 1669.51,1095.39 
  "/>
<polyline clip-path="url(#clip4900)" style="stroke:#000000; stroke-width:4; stroke-opacity:1; fill:none" points="
  1809.63,1110.22 1809.63,1095.39 
  "/>
<polyline clip-path="url(#clip4900)" style="stroke:#000000; stroke-width:4; stroke-opacity:1; fill:none" points="
  1949.75,1110.22 1949.75,1095.39 
  "/>
<polyline clip-path="url(#clip4900)" style="stroke:#000000; stroke-width:4; stroke-opacity:1; fill:none" points="
  2089.87,1110.22 2089.87,1095.39 
  "/>
<polyline clip-path="url(#clip4900)" style="stroke:#000000; stroke-width:4; stroke-opacity:1; fill:none" points="
  241.556,1082.24 271.784,1082.24 
  "/>
<polyline clip-path="url(#clip4900)" style="stroke:#000000; stroke-width:4; stroke-opacity:1; fill:none" points="
  241.556,850.512 271.784,850.512 
  "/>
<polyline clip-path="url(#clip4900)" style="stroke:#000000; stroke-width:4; stroke-opacity:1; fill:none" points="
  241.556,618.783 271.784,618.783 
  "/>
<polyline clip-path="url(#clip4900)" style="stroke:#000000; stroke-width:4; stroke-opacity:1; fill:none" points="
  241.556,387.055 271.784,387.055 
  "/>
<polyline clip-path="url(#clip4900)" style="stroke:#000000; stroke-width:4; stroke-opacity:1; fill:none" points="
  241.556,155.326 271.784,155.326 
  "/>
<g clip-path="url(#clip4900)">
<text style="fill:#000000; fill-opacity:1; font-family:Arial,Helvetica Neue,Helvetica,sans-serif; font-size:48px; text-anchor:end;" transform="rotate(-45, 438.142, 1151.44)" x="438.142" y="1151.44">childGender</text>
</g>
<g clip-path="url(#clip4900)">
<text style="fill:#000000; fill-opacity:1; font-family:Arial,Helvetica Neue,Helvetica,sans-serif; font-size:48px; text-anchor:end;" transform="rotate(-45, 578.261, 1151.44)" x="578.261" y="1151.44">breastfed</text>
</g>
<g clip-path="url(#clip4900)">
<text style="fill:#000000; fill-opacity:1; font-family:Arial,Helvetica Neue,Helvetica,sans-serif; font-size:48px; text-anchor:end;" transform="rotate(-45, 718.38, 1151.44)" x="718.38" y="1151.44">birthType</text>
</g>
<g clip-path="url(#clip4900)">
<text style="fill:#000000; fill-opacity:1; font-family:Arial,Helvetica Neue,Helvetica,sans-serif; font-size:48px; text-anchor:end;" transform="rotate(-45, 858.498, 1151.44)" x="858.498" y="1151.44"> lafed</text>
</g>
<g clip-path="url(#clip4900)">
<text style="fill:#000000; fill-opacity:1; font-family:Arial,Helvetica Neue,Helvetica,sans-serif; font-size:48px; text-anchor:end;" transform="rotate(-45, 998.617, 1151.44)" x="998.617" y="1151.44">white_matter_volume</text>
</g>
<g clip-path="url(#clip4900)">
<text style="fill:#000000; fill-opacity:1; font-family:Arial,Helvetica Neue,Helvetica,sans-serif; font-size:48px; text-anchor:end;" transform="rotate(-45, 1138.74, 1151.44)" x="1138.74" y="1151.44">grey_matter_volume</text>
</g>
<g clip-path="url(#clip4900)">
<text style="fill:#000000; fill-opacity:1; font-family:Arial,Helvetica Neue,Helvetica,sans-serif; font-size:48px; text-anchor:end;" transform="rotate(-45, 1278.85, 1151.44)" x="1278.85" y="1151.44">csf_volume</text>
</g>
<g clip-path="url(#clip4900)">
<text style="fill:#000000; fill-opacity:1; font-family:Arial,Helvetica Neue,Helvetica,sans-serif; font-size:48px; text-anchor:end;" transform="rotate(-45, 1418.97, 1151.44)" x="1418.97" y="1151.44">young kids formulafed</text>
</g>
<g clip-path="url(#clip4900)">
<text style="fill:#000000; fill-opacity:1; font-family:Arial,Helvetica Neue,Helvetica,sans-serif; font-size:48px; text-anchor:end;" transform="rotate(-45, 1559.09, 1151.44)" x="1559.09" y="1151.44">motherSES</text>
</g>
<g clip-path="url(#clip4900)">
<text style="fill:#000000; fill-opacity:1; font-family:Arial,Helvetica Neue,Helvetica,sans-serif; font-size:48px; text-anchor:end;" transform="rotate(-45, 1699.21, 1151.44)" x="1699.21" y="1151.44">young kids breastfed</text>
</g>
<g clip-path="url(#clip4900)">
<text style="fill:#000000; fill-opacity:1; font-family:Arial,Helvetica Neue,Helvetica,sans-serif; font-size:48px; text-anchor:end;" transform="rotate(-45, 1839.33, 1151.44)" x="1839.33" y="1151.44">Subject Type</text>
</g>
<g clip-path="url(#clip4900)">
<text style="fill:#000000; fill-opacity:1; font-family:Arial,Helvetica Neue,Helvetica,sans-serif; font-size:48px; text-anchor:end;" transform="rotate(-45, 1979.45, 1151.44)" x="1979.45" y="1151.44">cogScore</text>
</g>
<g clip-path="url(#clip4900)">
<text style="fill:#000000; fill-opacity:1; font-family:Arial,Helvetica Neue,Helvetica,sans-serif; font-size:48px; text-anchor:end;" transform="rotate(-45, 2119.57, 1151.44)" x="2119.57" y="1151.44">Age</text>
</g>
<g clip-path="url(#clip4900)">
<text style="fill:#000000; fill-opacity:1; font-family:Arial,Helvetica Neue,Helvetica,sans-serif; font-size:48px; text-anchor:end;" transform="rotate(0, 218.516, 1099.74)" x="218.516" y="1099.74">0.0</text>
</g>
<g clip-path="url(#clip4900)">
<text style="fill:#000000; fill-opacity:1; font-family:Arial,Helvetica Neue,Helvetica,sans-serif; font-size:48px; text-anchor:end;" transform="rotate(0, 218.516, 868.012)" x="218.516" y="868.012">2.5</text>
</g>
<g clip-path="url(#clip4900)">
<text style="fill:#000000; fill-opacity:1; font-family:Arial,Helvetica Neue,Helvetica,sans-serif; font-size:48px; text-anchor:end;" transform="rotate(0, 218.516, 636.283)" x="218.516" y="636.283">5.0</text>
</g>
<g clip-path="url(#clip4900)">
<text style="fill:#000000; fill-opacity:1; font-family:Arial,Helvetica Neue,Helvetica,sans-serif; font-size:48px; text-anchor:end;" transform="rotate(0, 218.516, 404.555)" x="218.516" y="404.555">7.5</text>
</g>
<g clip-path="url(#clip4900)">
<text style="fill:#000000; fill-opacity:1; font-family:Arial,Helvetica Neue,Helvetica,sans-serif; font-size:48px; text-anchor:end;" transform="rotate(0, 218.516, 172.826)" x="218.516" y="172.826">10.0</text>
</g>
<g clip-path="url(#clip4900)">
<text style="fill:#000000; fill-opacity:1; font-family:Arial,Helvetica Neue,Helvetica,sans-serif; font-size:84px; text-anchor:middle;" transform="rotate(0, 1249.16, 73.2)" x="1249.16" y="73.2">Taxonomic Profiles PERMANOVA</text>
</g>
<g clip-path="url(#clip4900)">
<text style="fill:#000000; fill-opacity:1; font-family:Arial,Helvetica Neue,Helvetica,sans-serif; font-size:66px; text-anchor:middle;" transform="rotate(-90, 90.2461, 615.947)" x="90.2461" y="615.947">% Variance explainable</text>
</g>
<polygon clip-path="url(#clip4902)" points="
352.396,1059.46 352.396,1082.24 464.491,1082.24 464.491,1059.46 352.396,1059.46 352.396,1059.46 
  " fill="#808080" fill-rule="evenodd" fill-opacity="1"/>
<polyline clip-path="url(#clip4902)" style="stroke:#000000; stroke-width:4; stroke-opacity:1; fill:none" points="
  352.396,1059.46 352.396,1082.24 464.491,1082.24 464.491,1059.46 352.396,1059.46 
  "/>
<polygon clip-path="url(#clip4902)" points="
492.515,1058.57 492.515,1082.24 604.61,1082.24 604.61,1058.57 492.515,1058.57 492.515,1058.57 
  " fill="#808080" fill-rule="evenodd" fill-opacity="1"/>
<polyline clip-path="url(#clip4902)" style="stroke:#000000; stroke-width:4; stroke-opacity:1; fill:none" points="
  492.515,1058.57 492.515,1082.24 604.61,1082.24 604.61,1058.57 492.515,1058.57 
  "/>
<polygon clip-path="url(#clip4902)" points="
632.634,1035.25 632.634,1082.24 744.729,1082.24 744.729,1035.25 632.634,1035.25 632.634,1035.25 
  " fill="#808080" fill-rule="evenodd" fill-opacity="1"/>
<polyline clip-path="url(#clip4902)" style="stroke:#000000; stroke-width:4; stroke-opacity:1; fill:none" points="
  632.634,1035.25 632.634,1082.24 744.729,1082.24 744.729,1035.25 632.634,1035.25 
  "/>
<polygon clip-path="url(#clip4902)" points="
772.752,1025.25 772.752,1082.24 884.847,1082.24 884.847,1025.25 772.752,1025.25 772.752,1025.25 
  " fill="#808080" fill-rule="evenodd" fill-opacity="1"/>
<polyline clip-path="url(#clip4902)" style="stroke:#000000; stroke-width:4; stroke-opacity:1; fill:none" points="
  772.752,1025.25 772.752,1082.24 884.847,1082.24 884.847,1025.25 772.752,1025.25 
  "/>
<polygon clip-path="url(#clip4902)" points="
912.871,1006.56 912.871,1082.24 1024.97,1082.24 1024.97,1006.56 912.871,1006.56 912.871,1006.56 
  " fill="#808080" fill-rule="evenodd" fill-opacity="1"/>
<polyline clip-path="url(#clip4902)" style="stroke:#000000; stroke-width:4; stroke-opacity:1; fill:none" points="
  912.871,1006.56 912.871,1082.24 1024.97,1082.24 1024.97,1006.56 912.871,1006.56 
  "/>
<polygon clip-path="url(#clip4902)" points="
1052.99,982.904 1052.99,1082.24 1165.08,1082.24 1165.08,982.904 1052.99,982.904 1052.99,982.904 
  " fill="#808080" fill-rule="evenodd" fill-opacity="1"/>
<polyline clip-path="url(#clip4902)" style="stroke:#000000; stroke-width:4; stroke-opacity:1; fill:none" points="
  1052.99,982.904 1052.99,1082.24 1165.08,1082.24 1165.08,982.904 1052.99,982.904 
  "/>
<polygon clip-path="url(#clip4902)" points="
1193.11,968.128 1193.11,1082.24 1305.2,1082.24 1305.2,968.128 1193.11,968.128 1193.11,968.128 
  " fill="#808080" fill-rule="evenodd" fill-opacity="1"/>
<polyline clip-path="url(#clip4902)" style="stroke:#000000; stroke-width:4; stroke-opacity:1; fill:none" points="
  1193.11,968.128 1193.11,1082.24 1305.2,1082.24 1305.2,968.128 1193.11,968.128 
  "/>
<polygon clip-path="url(#clip4902)" points="
1333.23,950.432 1333.23,1082.24 1445.32,1082.24 1445.32,950.432 1333.23,950.432 1333.23,950.432 
  " fill="#808080" fill-rule="evenodd" fill-opacity="1"/>
<polyline clip-path="url(#clip4902)" style="stroke:#000000; stroke-width:4; stroke-opacity:1; fill:none" points="
  1333.23,950.432 1333.23,1082.24 1445.32,1082.24 1445.32,950.432 1333.23,950.432 
  "/>
<polygon clip-path="url(#clip4902)" points="
1473.35,926.597 1473.35,1082.24 1585.44,1082.24 1585.44,926.597 1473.35,926.597 1473.35,926.597 
  " fill="#808080" fill-rule="evenodd" fill-opacity="1"/>
<polyline clip-path="url(#clip4902)" style="stroke:#000000; stroke-width:4; stroke-opacity:1; fill:none" points="
  1473.35,926.597 1473.35,1082.24 1585.44,1082.24 1585.44,926.597 1473.35,926.597 
  "/>
<polygon clip-path="url(#clip4902)" points="
1613.46,909.236 1613.46,1082.24 1725.56,1082.24 1725.56,909.236 1613.46,909.236 1613.46,909.236 
  " fill="#808080" fill-rule="evenodd" fill-opacity="1"/>
<polyline clip-path="url(#clip4902)" style="stroke:#000000; stroke-width:4; stroke-opacity:1; fill:none" points="
  1613.46,909.236 1613.46,1082.24 1725.56,1082.24 1725.56,909.236 1613.46,909.236 
  "/>
<polygon clip-path="url(#clip4902)" points="
1753.58,812.99 1753.58,1082.24 1865.68,1082.24 1865.68,812.99 1753.58,812.99 1753.58,812.99 
  " fill="#808080" fill-rule="evenodd" fill-opacity="1"/>
<polyline clip-path="url(#clip4902)" style="stroke:#000000; stroke-width:4; stroke-opacity:1; fill:none" points="
  1753.58,812.99 1753.58,1082.24 1865.68,1082.24 1865.68,812.99 1753.58,812.99 
  "/>
<polygon clip-path="url(#clip4902)" points="
1893.7,406.774 1893.7,1082.24 2005.8,1082.24 2005.8,406.774 1893.7,406.774 1893.7,406.774 
  " fill="#808080" fill-rule="evenodd" fill-opacity="1"/>
<polyline clip-path="url(#clip4902)" style="stroke:#000000; stroke-width:4; stroke-opacity:1; fill:none" points="
  1893.7,406.774 1893.7,1082.24 2005.8,1082.24 2005.8,406.774 1893.7,406.774 
  "/>
<polygon clip-path="url(#clip4902)" points="
2033.82,149.653 2033.82,1082.24 2145.92,1082.24 2145.92,149.653 2033.82,149.653 2033.82,149.653 
  " fill="#808080" fill-rule="evenodd" fill-opacity="1"/>
<polyline clip-path="url(#clip4902)" style="stroke:#000000; stroke-width:4; stroke-opacity:1; fill:none" points="
  2033.82,149.653 2033.82,1082.24 2145.92,1082.24 2145.92,149.653 2033.82,149.653 
  "/>
<g clip-path="url(#clip4900)">
<text style="fill:#000000; fill-opacity:1; font-family:Arial,Helvetica Neue,Helvetica,sans-serif; font-size:84px; text-anchor:middle;" transform="rotate(0, 1529.39, 938.558)" x="1529.39" y="938.558">**</text>
</g>
<g clip-path="url(#clip4900)">
<text style="fill:#000000; fill-opacity:1; font-family:Arial,Helvetica Neue,Helvetica,sans-serif; font-size:84px; text-anchor:middle;" transform="rotate(0, 1809.63, 824.952)" x="1809.63" y="824.952">**</text>
</g>
<g clip-path="url(#clip4900)">
<text style="fill:#000000; fill-opacity:1; font-family:Arial,Helvetica Neue,Helvetica,sans-serif; font-size:84px; text-anchor:middle;" transform="rotate(0, 1949.75, 418.736)" x="1949.75" y="418.736">**</text>
</g>
<g clip-path="url(#clip4900)">
<text style="fill:#000000; fill-opacity:1; font-family:Arial,Helvetica Neue,Helvetica,sans-serif; font-size:84px; text-anchor:middle;" transform="rotate(0, 2089.87, 161.614)" x="2089.87" y="161.614">**</text>
</g>
<g clip-path="url(#clip4900)">
<text style="fill:#000000; fill-opacity:1; font-family:Arial,Helvetica Neue,Helvetica,sans-serif; font-size:84px; text-anchor:middle;" transform="rotate(0, 2229.99, -6582.56)" x="2229.99" y="-6582.56">**</text>
</g>
</svg>
