<?xml version="1.0" encoding="utf-8"?>
<svg xmlns="http://www.w3.org/2000/svg" xmlns:xlink="http://www.w3.org/1999/xlink" width="600" height="400" viewBox="0 0 2400 1600">
<defs>
  <clipPath id="clip6500">
    <rect x="0" y="0" width="2400" height="1600"/>
  </clipPath>
</defs>
<polygon clip-path="url(#clip6500)" points="
0,1600 2400,1600 2400,0 0,0 
  " fill="#ffffff" fill-rule="evenodd" fill-opacity="1"/>
<defs>
  <clipPath id="clip6501">
    <rect x="480" y="0" width="1681" height="1600"/>
  </clipPath>
</defs>
<polygon clip-path="url(#clip6500)" points="
204.029,1258.98 2352.76,1258.98 2352.76,107.885 204.029,107.885 
  " fill="#ffffff" fill-rule="evenodd" fill-opacity="1"/>
<defs>
  <clipPath id="clip6502">
    <rect x="204" y="107" width="2150" height="1152"/>
  </clipPath>
</defs>
<polyline clip-path="url(#clip6502)" style="stroke:#000000; stroke-width:2; stroke-opacity:0.1; fill:none" points="
  409.138,1258.98 409.138,107.885 
  "/>
<polyline clip-path="url(#clip6502)" style="stroke:#000000; stroke-width:2; stroke-opacity:0.1; fill:none" points="
  626.452,1258.98 626.452,107.885 
  "/>
<polyline clip-path="url(#clip6502)" style="stroke:#000000; stroke-width:2; stroke-opacity:0.1; fill:none" points="
  843.765,1258.98 843.765,107.885 
  "/>
<polyline clip-path="url(#clip6502)" style="stroke:#000000; stroke-width:2; stroke-opacity:0.1; fill:none" points="
  1061.08,1258.98 1061.08,107.885 
  "/>
<polyline clip-path="url(#clip6502)" style="stroke:#000000; stroke-width:2; stroke-opacity:0.1; fill:none" points="
  1278.39,1258.98 1278.39,107.885 
  "/>
<polyline clip-path="url(#clip6502)" style="stroke:#000000; stroke-width:2; stroke-opacity:0.1; fill:none" points="
  1495.71,1258.98 1495.71,107.885 
  "/>
<polyline clip-path="url(#clip6502)" style="stroke:#000000; stroke-width:2; stroke-opacity:0.1; fill:none" points="
  1713.02,1258.98 1713.02,107.885 
  "/>
<polyline clip-path="url(#clip6502)" style="stroke:#000000; stroke-width:2; stroke-opacity:0.1; fill:none" points="
  1930.33,1258.98 1930.33,107.885 
  "/>
<polyline clip-path="url(#clip6502)" style="stroke:#000000; stroke-width:2; stroke-opacity:0.1; fill:none" points="
  2147.65,1258.98 2147.65,107.885 
  "/>
<polyline clip-path="url(#clip6502)" style="stroke:#000000; stroke-width:2; stroke-opacity:0.1; fill:none" points="
  204.029,1226.41 2352.76,1226.41 
  "/>
<polyline clip-path="url(#clip6502)" style="stroke:#000000; stroke-width:2; stroke-opacity:0.1; fill:none" points="
  204.029,956.572 2352.76,956.572 
  "/>
<polyline clip-path="url(#clip6502)" style="stroke:#000000; stroke-width:2; stroke-opacity:0.1; fill:none" points="
  204.029,686.737 2352.76,686.737 
  "/>
<polyline clip-path="url(#clip6502)" style="stroke:#000000; stroke-width:2; stroke-opacity:0.1; fill:none" points="
  204.029,416.903 2352.76,416.903 
  "/>
<polyline clip-path="url(#clip6502)" style="stroke:#000000; stroke-width:2; stroke-opacity:0.1; fill:none" points="
  204.029,147.069 2352.76,147.069 
  "/>
<polyline clip-path="url(#clip6500)" style="stroke:#000000; stroke-width:4; stroke-opacity:1; fill:none" points="
  204.029,1258.98 2352.76,1258.98 
  "/>
<polyline clip-path="url(#clip6500)" style="stroke:#000000; stroke-width:4; stroke-opacity:1; fill:none" points="
  204.029,1258.98 204.029,107.885 
  "/>
<polyline clip-path="url(#clip6500)" style="stroke:#000000; stroke-width:4; stroke-opacity:1; fill:none" points="
  409.138,1258.98 409.138,1241.72 
  "/>
<polyline clip-path="url(#clip6500)" style="stroke:#000000; stroke-width:4; stroke-opacity:1; fill:none" points="
  626.452,1258.98 626.452,1241.72 
  "/>
<polyline clip-path="url(#clip6500)" style="stroke:#000000; stroke-width:4; stroke-opacity:1; fill:none" points="
  843.765,1258.98 843.765,1241.72 
  "/>
<polyline clip-path="url(#clip6500)" style="stroke:#000000; stroke-width:4; stroke-opacity:1; fill:none" points="
  1061.08,1258.98 1061.08,1241.72 
  "/>
<polyline clip-path="url(#clip6500)" style="stroke:#000000; stroke-width:4; stroke-opacity:1; fill:none" points="
  1278.39,1258.98 1278.39,1241.72 
  "/>
<polyline clip-path="url(#clip6500)" style="stroke:#000000; stroke-width:4; stroke-opacity:1; fill:none" points="
  1495.71,1258.98 1495.71,1241.72 
  "/>
<polyline clip-path="url(#clip6500)" style="stroke:#000000; stroke-width:4; stroke-opacity:1; fill:none" points="
  1713.02,1258.98 1713.02,1241.72 
  "/>
<polyline clip-path="url(#clip6500)" style="stroke:#000000; stroke-width:4; stroke-opacity:1; fill:none" points="
  1930.33,1258.98 1930.33,1241.72 
  "/>
<polyline clip-path="url(#clip6500)" style="stroke:#000000; stroke-width:4; stroke-opacity:1; fill:none" points="
  2147.65,1258.98 2147.65,1241.72 
  "/>
<polyline clip-path="url(#clip6500)" style="stroke:#000000; stroke-width:4; stroke-opacity:1; fill:none" points="
  204.029,1226.41 236.26,1226.41 
  "/>
<polyline clip-path="url(#clip6500)" style="stroke:#000000; stroke-width:4; stroke-opacity:1; fill:none" points="
  204.029,956.572 236.26,956.572 
  "/>
<polyline clip-path="url(#clip6500)" style="stroke:#000000; stroke-width:4; stroke-opacity:1; fill:none" points="
  204.029,686.737 236.26,686.737 
  "/>
<polyline clip-path="url(#clip6500)" style="stroke:#000000; stroke-width:4; stroke-opacity:1; fill:none" points="
  204.029,416.903 236.26,416.903 
  "/>
<polyline clip-path="url(#clip6500)" style="stroke:#000000; stroke-width:4; stroke-opacity:1; fill:none" points="
  204.029,147.069 236.26,147.069 
  "/>
<g clip-path="url(#clip6500)">
<text style="fill:#000000; fill-opacity:1; font-family:Arial,Helvetica Neue,Helvetica,sans-serif; font-size:48px; text-anchor:end;" transform="rotate(-45, 438.837, 1300.68)" x="438.837" y="1300.68">childGender</text>
</g>
<g clip-path="url(#clip6500)">
<text style="fill:#000000; fill-opacity:1; font-family:Arial,Helvetica Neue,Helvetica,sans-serif; font-size:48px; text-anchor:end;" transform="rotate(-45, 656.15, 1300.68)" x="656.15" y="1300.68">breastfed</text>
</g>
<g clip-path="url(#clip6500)">
<text style="fill:#000000; fill-opacity:1; font-family:Arial,Helvetica Neue,Helvetica,sans-serif; font-size:48px; text-anchor:end;" transform="rotate(-45, 873.464, 1300.68)" x="873.464" y="1300.68">birthType</text>
</g>
<g clip-path="url(#clip6500)">
<text style="fill:#000000; fill-opacity:1; font-family:Arial,Helvetica Neue,Helvetica,sans-serif; font-size:48px; text-anchor:end;" transform="rotate(-45, 1090.78, 1300.68)" x="1090.78" y="1300.68"> lafed</text>
</g>
<g clip-path="url(#clip6500)">
<text style="fill:#000000; fill-opacity:1; font-family:Arial,Helvetica Neue,Helvetica,sans-serif; font-size:48px; text-anchor:end;" transform="rotate(-45, 1308.09, 1300.68)" x="1308.09" y="1300.68">young kids formulafed</text>
</g>
<g clip-path="url(#clip6500)">
<text style="fill:#000000; fill-opacity:1; font-family:Arial,Helvetica Neue,Helvetica,sans-serif; font-size:48px; text-anchor:end;" transform="rotate(-45, 1525.4, 1300.68)" x="1525.4" y="1300.68">motherSES</text>
</g>
<g clip-path="url(#clip6500)">
<text style="fill:#000000; fill-opacity:1; font-family:Arial,Helvetica Neue,Helvetica,sans-serif; font-size:48px; text-anchor:end;" transform="rotate(-45, 1742.72, 1300.68)" x="1742.72" y="1300.68">young kids breastfed</text>
</g>
<g clip-path="url(#clip6500)">
<text style="fill:#000000; fill-opacity:1; font-family:Arial,Helvetica Neue,Helvetica,sans-serif; font-size:48px; text-anchor:end;" transform="rotate(-45, 1960.03, 1300.68)" x="1960.03" y="1300.68">Subject Type</text>
</g>
<g clip-path="url(#clip6500)">
<text style="fill:#000000; fill-opacity:1; font-family:Arial,Helvetica Neue,Helvetica,sans-serif; font-size:48px; text-anchor:end;" transform="rotate(-45, 2177.35, 1300.68)" x="2177.35" y="1300.68">Age</text>
</g>
<g clip-path="url(#clip6500)">
<text style="fill:#000000; fill-opacity:1; font-family:Arial,Helvetica Neue,Helvetica,sans-serif; font-size:48px; text-anchor:end;" transform="rotate(0, 180.029, 1243.91)" x="180.029" y="1243.91">0.0</text>
</g>
<g clip-path="url(#clip6500)">
<text style="fill:#000000; fill-opacity:1; font-family:Arial,Helvetica Neue,Helvetica,sans-serif; font-size:48px; text-anchor:end;" transform="rotate(0, 180.029, 974.072)" x="180.029" y="974.072">2.5</text>
</g>
<g clip-path="url(#clip6500)">
<text style="fill:#000000; fill-opacity:1; font-family:Arial,Helvetica Neue,Helvetica,sans-serif; font-size:48px; text-anchor:end;" transform="rotate(0, 180.029, 704.237)" x="180.029" y="704.237">5.0</text>
</g>
<g clip-path="url(#clip6500)">
<text style="fill:#000000; fill-opacity:1; font-family:Arial,Helvetica Neue,Helvetica,sans-serif; font-size:48px; text-anchor:end;" transform="rotate(0, 180.029, 434.403)" x="180.029" y="434.403">7.5</text>
</g>
<g clip-path="url(#clip6500)">
<text style="fill:#000000; fill-opacity:1; font-family:Arial,Helvetica Neue,Helvetica,sans-serif; font-size:48px; text-anchor:end;" transform="rotate(0, 180.029, 164.569)" x="180.029" y="164.569">10.0</text>
</g>
<g clip-path="url(#clip6500)">
<text style="fill:#000000; fill-opacity:1; font-family:Arial,Helvetica Neue,Helvetica,sans-serif; font-size:84px; text-anchor:middle;" transform="rotate(0, 1278.39, 73.2)" x="1278.39" y="73.2">Taxonomic Profiles PERMANOVA</text>
</g>
<g clip-path="url(#clip6500)">
<text style="fill:#000000; fill-opacity:1; font-family:Arial,Helvetica Neue,Helvetica,sans-serif; font-size:66px; text-anchor:middle;" transform="rotate(-90, 50.7987, 683.435)" x="50.7987" y="683.435">% Variance explainable</text>
</g>
<polygon clip-path="url(#clip6502)" points="
322.213,1199.88 322.213,1226.41 496.064,1226.41 496.064,1199.88 322.213,1199.88 322.213,1199.88 
  " fill="#808080" fill-rule="evenodd" fill-opacity="1"/>
<polyline clip-path="url(#clip6502)" style="stroke:#000000; stroke-width:4; stroke-opacity:1; fill:none" points="
  322.213,1199.88 322.213,1226.41 496.064,1226.41 496.064,1199.88 322.213,1199.88 
  "/>
<polygon clip-path="url(#clip6502)" points="
539.526,1198.84 539.526,1226.41 713.377,1226.41 713.377,1198.84 539.526,1198.84 539.526,1198.84 
  " fill="#808080" fill-rule="evenodd" fill-opacity="1"/>
<polyline clip-path="url(#clip6502)" style="stroke:#000000; stroke-width:4; stroke-opacity:1; fill:none" points="
  539.526,1198.84 539.526,1226.41 713.377,1226.41 713.377,1198.84 539.526,1198.84 
  "/>
<polygon clip-path="url(#clip6502)" points="
756.84,1171.69 756.84,1226.41 930.691,1226.41 930.691,1171.69 756.84,1171.69 756.84,1171.69 
  " fill="#808080" fill-rule="evenodd" fill-opacity="1"/>
<polyline clip-path="url(#clip6502)" style="stroke:#000000; stroke-width:4; stroke-opacity:1; fill:none" points="
  756.84,1171.69 756.84,1226.41 930.691,1226.41 930.691,1171.69 756.84,1171.69 
  "/>
<polygon clip-path="url(#clip6502)" points="
974.153,1160.04 974.153,1226.41 1148,1226.41 1148,1160.04 974.153,1160.04 974.153,1160.04 
  " fill="#808080" fill-rule="evenodd" fill-opacity="1"/>
<polyline clip-path="url(#clip6502)" style="stroke:#000000; stroke-width:4; stroke-opacity:1; fill:none" points="
  974.153,1160.04 974.153,1226.41 1148,1226.41 1148,1160.04 974.153,1160.04 
  "/>
<polygon clip-path="url(#clip6502)" points="
1191.47,1072.92 1191.47,1226.41 1365.32,1226.41 1365.32,1072.92 1191.47,1072.92 1191.47,1072.92 
  " fill="#808080" fill-rule="evenodd" fill-opacity="1"/>
<polyline clip-path="url(#clip6502)" style="stroke:#000000; stroke-width:4; stroke-opacity:1; fill:none" points="
  1191.47,1072.92 1191.47,1226.41 1365.32,1226.41 1365.32,1072.92 1191.47,1072.92 
  "/>
<polygon clip-path="url(#clip6502)" points="
1408.78,1045.17 1408.78,1226.41 1582.63,1226.41 1582.63,1045.17 1408.78,1045.17 1408.78,1045.17 
  " fill="#808080" fill-rule="evenodd" fill-opacity="1"/>
<polyline clip-path="url(#clip6502)" style="stroke:#000000; stroke-width:4; stroke-opacity:1; fill:none" points="
  1408.78,1045.17 1408.78,1226.41 1582.63,1226.41 1582.63,1045.17 1408.78,1045.17 
  "/>
<polygon clip-path="url(#clip6502)" points="
1626.09,1024.95 1626.09,1226.41 1799.94,1226.41 1799.94,1024.95 1626.09,1024.95 1626.09,1024.95 
  " fill="#808080" fill-rule="evenodd" fill-opacity="1"/>
<polyline clip-path="url(#clip6502)" style="stroke:#000000; stroke-width:4; stroke-opacity:1; fill:none" points="
  1626.09,1024.95 1626.09,1226.41 1799.94,1226.41 1799.94,1024.95 1626.09,1024.95 
  "/>
<polygon clip-path="url(#clip6502)" points="
1843.41,912.88 1843.41,1226.41 2017.26,1226.41 2017.26,912.88 1843.41,912.88 1843.41,912.88 
  " fill="#808080" fill-rule="evenodd" fill-opacity="1"/>
<polyline clip-path="url(#clip6502)" style="stroke:#000000; stroke-width:4; stroke-opacity:1; fill:none" points="
  1843.41,912.88 1843.41,1226.41 2017.26,1226.41 2017.26,912.88 1843.41,912.88 
  "/>
<polygon clip-path="url(#clip6502)" points="
2060.72,140.463 2060.72,1226.41 2234.57,1226.41 2234.57,140.463 2060.72,140.463 2060.72,140.463 
  " fill="#808080" fill-rule="evenodd" fill-opacity="1"/>
<polyline clip-path="url(#clip6502)" style="stroke:#000000; stroke-width:4; stroke-opacity:1; fill:none" points="
  2060.72,140.463 2060.72,1226.41 2234.57,1226.41 2234.57,140.463 2060.72,140.463 
  "/>
<g clip-path="url(#clip6500)">
<text style="fill:#000000; fill-opacity:1; font-family:Arial,Helvetica Neue,Helvetica,sans-serif; font-size:84px; text-anchor:middle;" transform="rotate(0, 1495.71, 1054.08)" x="1495.71" y="1054.08">**</text>
</g>
<g clip-path="url(#clip6500)">
<text style="fill:#000000; fill-opacity:1; font-family:Arial,Helvetica Neue,Helvetica,sans-serif; font-size:84px; text-anchor:middle;" transform="rotate(0, 1930.33, 921.793)" x="1930.33" y="921.793">**</text>
</g>
<g clip-path="url(#clip6500)">
<text style="fill:#000000; fill-opacity:1; font-family:Arial,Helvetica Neue,Helvetica,sans-serif; font-size:84px; text-anchor:middle;" transform="rotate(0, 2147.65, 149.376)" x="2147.65" y="149.376">**</text>
</g>
<g clip-path="url(#clip6500)">
<text style="fill:#000000; fill-opacity:1; font-family:Arial,Helvetica Neue,Helvetica,sans-serif; font-size:84px; text-anchor:middle;" transform="rotate(0, 2364.96, -7703.82)" x="2364.96" y="-7703.82">**</text>
</g>
</svg>
