<?xml version="1.0" encoding="utf-8"?>
<svg xmlns="http://www.w3.org/2000/svg" xmlns:xlink="http://www.w3.org/1999/xlink" width="576" height="384" viewBox="0 0 2304 1536">
<defs>
  <clipPath id="clip8200">
    <rect x="0" y="0" width="2304" height="1536"/>
  </clipPath>
</defs>
<polygon clip-path="url(#clip8200)" points="
0,1536 2304,1536 2304,0 0,0 
  " fill="#ffffff" fill-rule="evenodd" fill-opacity="1"/>
<defs>
  <clipPath id="clip8201">
    <rect x="460" y="0" width="1614" height="1536"/>
  </clipPath>
</defs>
<polygon clip-path="url(#clip8200)" points="
241.556,1110.22 2256.76,1110.22 2256.76,121.675 241.556,121.675 
  " fill="#ffffff" fill-rule="evenodd" fill-opacity="1"/>
<defs>
  <clipPath id="clip8202">
    <rect x="241" y="121" width="2016" height="990"/>
  </clipPath>
</defs>
<polyline clip-path="url(#clip8202)" style="stroke:#000000; stroke-width:2; stroke-opacity:0.1; fill:none" points="
  413.193,1110.22 413.193,121.675 
  "/>
<polyline clip-path="url(#clip8202)" style="stroke:#000000; stroke-width:2; stroke-opacity:0.1; fill:none" points="
  565.187,1110.22 565.187,121.675 
  "/>
<polyline clip-path="url(#clip8202)" style="stroke:#000000; stroke-width:2; stroke-opacity:0.1; fill:none" points="
  717.18,1110.22 717.18,121.675 
  "/>
<polyline clip-path="url(#clip8202)" style="stroke:#000000; stroke-width:2; stroke-opacity:0.1; fill:none" points="
  869.173,1110.22 869.173,121.675 
  "/>
<polyline clip-path="url(#clip8202)" style="stroke:#000000; stroke-width:2; stroke-opacity:0.1; fill:none" points="
  1021.17,1110.22 1021.17,121.675 
  "/>
<polyline clip-path="url(#clip8202)" style="stroke:#000000; stroke-width:2; stroke-opacity:0.1; fill:none" points="
  1173.16,1110.22 1173.16,121.675 
  "/>
<polyline clip-path="url(#clip8202)" style="stroke:#000000; stroke-width:2; stroke-opacity:0.1; fill:none" points="
  1325.15,1110.22 1325.15,121.675 
  "/>
<polyline clip-path="url(#clip8202)" style="stroke:#000000; stroke-width:2; stroke-opacity:0.1; fill:none" points="
  1477.15,1110.22 1477.15,121.675 
  "/>
<polyline clip-path="url(#clip8202)" style="stroke:#000000; stroke-width:2; stroke-opacity:0.1; fill:none" points="
  1629.14,1110.22 1629.14,121.675 
  "/>
<polyline clip-path="url(#clip8202)" style="stroke:#000000; stroke-width:2; stroke-opacity:0.1; fill:none" points="
  1781.13,1110.22 1781.13,121.675 
  "/>
<polyline clip-path="url(#clip8202)" style="stroke:#000000; stroke-width:2; stroke-opacity:0.1; fill:none" points="
  1933.13,1110.22 1933.13,121.675 
  "/>
<polyline clip-path="url(#clip8202)" style="stroke:#000000; stroke-width:2; stroke-opacity:0.1; fill:none" points="
  2085.12,1110.22 2085.12,121.675 
  "/>
<polyline clip-path="url(#clip8202)" style="stroke:#000000; stroke-width:2; stroke-opacity:0.1; fill:none" points="
  241.556,1082.24 2256.76,1082.24 
  "/>
<polyline clip-path="url(#clip8202)" style="stroke:#000000; stroke-width:2; stroke-opacity:0.1; fill:none" points="
  241.556,850.512 2256.76,850.512 
  "/>
<polyline clip-path="url(#clip8202)" style="stroke:#000000; stroke-width:2; stroke-opacity:0.1; fill:none" points="
  241.556,618.783 2256.76,618.783 
  "/>
<polyline clip-path="url(#clip8202)" style="stroke:#000000; stroke-width:2; stroke-opacity:0.1; fill:none" points="
  241.556,387.055 2256.76,387.055 
  "/>
<polyline clip-path="url(#clip8202)" style="stroke:#000000; stroke-width:2; stroke-opacity:0.1; fill:none" points="
  241.556,155.326 2256.76,155.326 
  "/>
<polyline clip-path="url(#clip8200)" style="stroke:#000000; stroke-width:4; stroke-opacity:1; fill:none" points="
  241.556,1110.22 2256.76,1110.22 
  "/>
<polyline clip-path="url(#clip8200)" style="stroke:#000000; stroke-width:4; stroke-opacity:1; fill:none" points="
  241.556,1110.22 241.556,121.675 
  "/>
<polyline clip-path="url(#clip8200)" style="stroke:#000000; stroke-width:4; stroke-opacity:1; fill:none" points="
  413.193,1110.22 413.193,1095.39 
  "/>
<polyline clip-path="url(#clip8200)" style="stroke:#000000; stroke-width:4; stroke-opacity:1; fill:none" points="
  565.187,1110.22 565.187,1095.39 
  "/>
<polyline clip-path="url(#clip8200)" style="stroke:#000000; stroke-width:4; stroke-opacity:1; fill:none" points="
  717.18,1110.22 717.18,1095.39 
  "/>
<polyline clip-path="url(#clip8200)" style="stroke:#000000; stroke-width:4; stroke-opacity:1; fill:none" points="
  869.173,1110.22 869.173,1095.39 
  "/>
<polyline clip-path="url(#clip8200)" style="stroke:#000000; stroke-width:4; stroke-opacity:1; fill:none" points="
  1021.17,1110.22 1021.17,1095.39 
  "/>
<polyline clip-path="url(#clip8200)" style="stroke:#000000; stroke-width:4; stroke-opacity:1; fill:none" points="
  1173.16,1110.22 1173.16,1095.39 
  "/>
<polyline clip-path="url(#clip8200)" style="stroke:#000000; stroke-width:4; stroke-opacity:1; fill:none" points="
  1325.15,1110.22 1325.15,1095.39 
  "/>
<polyline clip-path="url(#clip8200)" style="stroke:#000000; stroke-width:4; stroke-opacity:1; fill:none" points="
  1477.15,1110.22 1477.15,1095.39 
  "/>
<polyline clip-path="url(#clip8200)" style="stroke:#000000; stroke-width:4; stroke-opacity:1; fill:none" points="
  1629.14,1110.22 1629.14,1095.39 
  "/>
<polyline clip-path="url(#clip8200)" style="stroke:#000000; stroke-width:4; stroke-opacity:1; fill:none" points="
  1781.13,1110.22 1781.13,1095.39 
  "/>
<polyline clip-path="url(#clip8200)" style="stroke:#000000; stroke-width:4; stroke-opacity:1; fill:none" points="
  1933.13,1110.22 1933.13,1095.39 
  "/>
<polyline clip-path="url(#clip8200)" style="stroke:#000000; stroke-width:4; stroke-opacity:1; fill:none" points="
  2085.12,1110.22 2085.12,1095.39 
  "/>
<polyline clip-path="url(#clip8200)" style="stroke:#000000; stroke-width:4; stroke-opacity:1; fill:none" points="
  241.556,1082.24 271.784,1082.24 
  "/>
<polyline clip-path="url(#clip8200)" style="stroke:#000000; stroke-width:4; stroke-opacity:1; fill:none" points="
  241.556,850.512 271.784,850.512 
  "/>
<polyline clip-path="url(#clip8200)" style="stroke:#000000; stroke-width:4; stroke-opacity:1; fill:none" points="
  241.556,618.783 271.784,618.783 
  "/>
<polyline clip-path="url(#clip8200)" style="stroke:#000000; stroke-width:4; stroke-opacity:1; fill:none" points="
  241.556,387.055 271.784,387.055 
  "/>
<polyline clip-path="url(#clip8200)" style="stroke:#000000; stroke-width:4; stroke-opacity:1; fill:none" points="
  241.556,155.326 271.784,155.326 
  "/>
<g clip-path="url(#clip8200)">
<text style="fill:#000000; fill-opacity:1; font-family:Arial,Helvetica Neue,Helvetica,sans-serif; font-size:48px; text-anchor:end;" transform="rotate(-45, 442.892, 1151.44)" x="442.892" y="1151.44">childGender</text>
</g>
<g clip-path="url(#clip8200)">
<text style="fill:#000000; fill-opacity:1; font-family:Arial,Helvetica Neue,Helvetica,sans-serif; font-size:48px; text-anchor:end;" transform="rotate(-45, 594.885, 1151.44)" x="594.885" y="1151.44">breastfed</text>
</g>
<g clip-path="url(#clip8200)">
<text style="fill:#000000; fill-opacity:1; font-family:Arial,Helvetica Neue,Helvetica,sans-serif; font-size:48px; text-anchor:end;" transform="rotate(-45, 746.878, 1151.44)" x="746.878" y="1151.44">birthType</text>
</g>
<g clip-path="url(#clip8200)">
<text style="fill:#000000; fill-opacity:1; font-family:Arial,Helvetica Neue,Helvetica,sans-serif; font-size:48px; text-anchor:end;" transform="rotate(-45, 898.872, 1151.44)" x="898.872" y="1151.44"> lafed</text>
</g>
<g clip-path="url(#clip8200)">
<text style="fill:#000000; fill-opacity:1; font-family:Arial,Helvetica Neue,Helvetica,sans-serif; font-size:48px; text-anchor:end;" transform="rotate(-45, 1050.86, 1151.44)" x="1050.86" y="1151.44">white_matter_volume</text>
</g>
<g clip-path="url(#clip8200)">
<text style="fill:#000000; fill-opacity:1; font-family:Arial,Helvetica Neue,Helvetica,sans-serif; font-size:48px; text-anchor:end;" transform="rotate(-45, 1202.86, 1151.44)" x="1202.86" y="1151.44">grey_matter_volume</text>
</g>
<g clip-path="url(#clip8200)">
<text style="fill:#000000; fill-opacity:1; font-family:Arial,Helvetica Neue,Helvetica,sans-serif; font-size:48px; text-anchor:end;" transform="rotate(-45, 1354.85, 1151.44)" x="1354.85" y="1151.44">csf_volume</text>
</g>
<g clip-path="url(#clip8200)">
<text style="fill:#000000; fill-opacity:1; font-family:Arial,Helvetica Neue,Helvetica,sans-serif; font-size:48px; text-anchor:end;" transform="rotate(-45, 1506.84, 1151.44)" x="1506.84" y="1151.44">young kids formulafed</text>
</g>
<g clip-path="url(#clip8200)">
<text style="fill:#000000; fill-opacity:1; font-family:Arial,Helvetica Neue,Helvetica,sans-serif; font-size:48px; text-anchor:end;" transform="rotate(-45, 1658.84, 1151.44)" x="1658.84" y="1151.44">motherSES</text>
</g>
<g clip-path="url(#clip8200)">
<text style="fill:#000000; fill-opacity:1; font-family:Arial,Helvetica Neue,Helvetica,sans-serif; font-size:48px; text-anchor:end;" transform="rotate(-45, 1810.83, 1151.44)" x="1810.83" y="1151.44">young kids breastfed</text>
</g>
<g clip-path="url(#clip8200)">
<text style="fill:#000000; fill-opacity:1; font-family:Arial,Helvetica Neue,Helvetica,sans-serif; font-size:48px; text-anchor:end;" transform="rotate(-45, 1962.82, 1151.44)" x="1962.82" y="1151.44">Subject Type</text>
</g>
<g clip-path="url(#clip8200)">
<text style="fill:#000000; fill-opacity:1; font-family:Arial,Helvetica Neue,Helvetica,sans-serif; font-size:48px; text-anchor:end;" transform="rotate(-45, 2114.82, 1151.44)" x="2114.82" y="1151.44">Age</text>
</g>
<g clip-path="url(#clip8200)">
<text style="fill:#000000; fill-opacity:1; font-family:Arial,Helvetica Neue,Helvetica,sans-serif; font-size:48px; text-anchor:end;" transform="rotate(0, 218.516, 1099.74)" x="218.516" y="1099.74">0.0</text>
</g>
<g clip-path="url(#clip8200)">
<text style="fill:#000000; fill-opacity:1; font-family:Arial,Helvetica Neue,Helvetica,sans-serif; font-size:48px; text-anchor:end;" transform="rotate(0, 218.516, 868.012)" x="218.516" y="868.012">2.5</text>
</g>
<g clip-path="url(#clip8200)">
<text style="fill:#000000; fill-opacity:1; font-family:Arial,Helvetica Neue,Helvetica,sans-serif; font-size:48px; text-anchor:end;" transform="rotate(0, 218.516, 636.283)" x="218.516" y="636.283">5.0</text>
</g>
<g clip-path="url(#clip8200)">
<text style="fill:#000000; fill-opacity:1; font-family:Arial,Helvetica Neue,Helvetica,sans-serif; font-size:48px; text-anchor:end;" transform="rotate(0, 218.516, 404.555)" x="218.516" y="404.555">7.5</text>
</g>
<g clip-path="url(#clip8200)">
<text style="fill:#000000; fill-opacity:1; font-family:Arial,Helvetica Neue,Helvetica,sans-serif; font-size:48px; text-anchor:end;" transform="rotate(0, 218.516, 172.826)" x="218.516" y="172.826">10.0</text>
</g>
<g clip-path="url(#clip8200)">
<text style="fill:#000000; fill-opacity:1; font-family:Arial,Helvetica Neue,Helvetica,sans-serif; font-size:84px; text-anchor:middle;" transform="rotate(0, 1249.16, 73.2)" x="1249.16" y="73.2">Taxonomic Profiles PERMANOVA</text>
</g>
<g clip-path="url(#clip8200)">
<text style="fill:#000000; fill-opacity:1; font-family:Arial,Helvetica Neue,Helvetica,sans-serif; font-size:66px; text-anchor:middle;" transform="rotate(-90, 90.2461, 615.947)" x="90.2461" y="615.947">% Variance explainable</text>
</g>
<polygon clip-path="url(#clip8202)" points="
352.396,1059.46 352.396,1082.24 473.991,1082.24 473.991,1059.46 352.396,1059.46 352.396,1059.46 
  " fill="#808080" fill-rule="evenodd" fill-opacity="1"/>
<polyline clip-path="url(#clip8202)" style="stroke:#000000; stroke-width:4; stroke-opacity:1; fill:none" points="
  352.396,1059.46 352.396,1082.24 473.991,1082.24 473.991,1059.46 352.396,1059.46 
  "/>
<polygon clip-path="url(#clip8202)" points="
504.389,1058.57 504.389,1082.24 625.984,1082.24 625.984,1058.57 504.389,1058.57 504.389,1058.57 
  " fill="#808080" fill-rule="evenodd" fill-opacity="1"/>
<polyline clip-path="url(#clip8202)" style="stroke:#000000; stroke-width:4; stroke-opacity:1; fill:none" points="
  504.389,1058.57 504.389,1082.24 625.984,1082.24 625.984,1058.57 504.389,1058.57 
  "/>
<polygon clip-path="url(#clip8202)" points="
656.382,1035.25 656.382,1082.24 777.977,1082.24 777.977,1035.25 656.382,1035.25 656.382,1035.25 
  " fill="#808080" fill-rule="evenodd" fill-opacity="1"/>
<polyline clip-path="url(#clip8202)" style="stroke:#000000; stroke-width:4; stroke-opacity:1; fill:none" points="
  656.382,1035.25 656.382,1082.24 777.977,1082.24 777.977,1035.25 656.382,1035.25 
  "/>
<polygon clip-path="url(#clip8202)" points="
808.376,1025.25 808.376,1082.24 929.97,1082.24 929.97,1025.25 808.376,1025.25 808.376,1025.25 
  " fill="#808080" fill-rule="evenodd" fill-opacity="1"/>
<polyline clip-path="url(#clip8202)" style="stroke:#000000; stroke-width:4; stroke-opacity:1; fill:none" points="
  808.376,1025.25 808.376,1082.24 929.97,1082.24 929.97,1025.25 808.376,1025.25 
  "/>
<polygon clip-path="url(#clip8202)" points="
960.369,1006.56 960.369,1082.24 1081.96,1082.24 1081.96,1006.56 960.369,1006.56 960.369,1006.56 
  " fill="#808080" fill-rule="evenodd" fill-opacity="1"/>
<polyline clip-path="url(#clip8202)" style="stroke:#000000; stroke-width:4; stroke-opacity:1; fill:none" points="
  960.369,1006.56 960.369,1082.24 1081.96,1082.24 1081.96,1006.56 960.369,1006.56 
  "/>
<polygon clip-path="url(#clip8202)" points="
1112.36,982.904 1112.36,1082.24 1233.96,1082.24 1233.96,982.904 1112.36,982.904 1112.36,982.904 
  " fill="#808080" fill-rule="evenodd" fill-opacity="1"/>
<polyline clip-path="url(#clip8202)" style="stroke:#000000; stroke-width:4; stroke-opacity:1; fill:none" points="
  1112.36,982.904 1112.36,1082.24 1233.96,1082.24 1233.96,982.904 1112.36,982.904 
  "/>
<polygon clip-path="url(#clip8202)" points="
1264.36,968.128 1264.36,1082.24 1385.95,1082.24 1385.95,968.128 1264.36,968.128 1264.36,968.128 
  " fill="#808080" fill-rule="evenodd" fill-opacity="1"/>
<polyline clip-path="url(#clip8202)" style="stroke:#000000; stroke-width:4; stroke-opacity:1; fill:none" points="
  1264.36,968.128 1264.36,1082.24 1385.95,1082.24 1385.95,968.128 1264.36,968.128 
  "/>
<polygon clip-path="url(#clip8202)" points="
1416.35,950.432 1416.35,1082.24 1537.94,1082.24 1537.94,950.432 1416.35,950.432 1416.35,950.432 
  " fill="#808080" fill-rule="evenodd" fill-opacity="1"/>
<polyline clip-path="url(#clip8202)" style="stroke:#000000; stroke-width:4; stroke-opacity:1; fill:none" points="
  1416.35,950.432 1416.35,1082.24 1537.94,1082.24 1537.94,950.432 1416.35,950.432 
  "/>
<polygon clip-path="url(#clip8202)" points="
1568.34,926.597 1568.34,1082.24 1689.94,1082.24 1689.94,926.597 1568.34,926.597 1568.34,926.597 
  " fill="#808080" fill-rule="evenodd" fill-opacity="1"/>
<polyline clip-path="url(#clip8202)" style="stroke:#000000; stroke-width:4; stroke-opacity:1; fill:none" points="
  1568.34,926.597 1568.34,1082.24 1689.94,1082.24 1689.94,926.597 1568.34,926.597 
  "/>
<polygon clip-path="url(#clip8202)" points="
1720.34,909.236 1720.34,1082.24 1841.93,1082.24 1841.93,909.236 1720.34,909.236 1720.34,909.236 
  " fill="#808080" fill-rule="evenodd" fill-opacity="1"/>
<polyline clip-path="url(#clip8202)" style="stroke:#000000; stroke-width:4; stroke-opacity:1; fill:none" points="
  1720.34,909.236 1720.34,1082.24 1841.93,1082.24 1841.93,909.236 1720.34,909.236 
  "/>
<polygon clip-path="url(#clip8202)" points="
1872.33,812.99 1872.33,1082.24 1993.92,1082.24 1993.92,812.99 1872.33,812.99 1872.33,812.99 
  " fill="#808080" fill-rule="evenodd" fill-opacity="1"/>
<polyline clip-path="url(#clip8202)" style="stroke:#000000; stroke-width:4; stroke-opacity:1; fill:none" points="
  1872.33,812.99 1872.33,1082.24 1993.92,1082.24 1993.92,812.99 1872.33,812.99 
  "/>
<polygon clip-path="url(#clip8202)" points="
2024.32,149.653 2024.32,1082.24 2145.92,1082.24 2145.92,149.653 2024.32,149.653 2024.32,149.653 
  " fill="#808080" fill-rule="evenodd" fill-opacity="1"/>
<polyline clip-path="url(#clip8202)" style="stroke:#000000; stroke-width:4; stroke-opacity:1; fill:none" points="
  2024.32,149.653 2024.32,1082.24 2145.92,1082.24 2145.92,149.653 2024.32,149.653 
  "/>
<g clip-path="url(#clip8200)">
<text style="fill:#000000; fill-opacity:1; font-family:Arial,Helvetica Neue,Helvetica,sans-serif; font-size:84px; text-anchor:middle;" transform="rotate(0, 1629.14, 938.558)" x="1629.14" y="938.558">**</text>
</g>
<g clip-path="url(#clip8200)">
<text style="fill:#000000; fill-opacity:1; font-family:Arial,Helvetica Neue,Helvetica,sans-serif; font-size:84px; text-anchor:middle;" transform="rotate(0, 1933.13, 824.952)" x="1933.13" y="824.952">**</text>
</g>
<g clip-path="url(#clip8200)">
<text style="fill:#000000; fill-opacity:1; font-family:Arial,Helvetica Neue,Helvetica,sans-serif; font-size:84px; text-anchor:middle;" transform="rotate(0, 2085.12, 161.614)" x="2085.12" y="161.614">**</text>
</g>
<g clip-path="url(#clip8200)">
<text style="fill:#000000; fill-opacity:1; font-family:Arial,Helvetica Neue,Helvetica,sans-serif; font-size:84px; text-anchor:middle;" transform="rotate(0, 2237.11, -6582.56)" x="2237.11" y="-6582.56">**</text>
</g>
</svg>
